<svg width="146" height="38" viewBox="0 0 146 38" fill="none" xmlns="http://www.w3.org/2000/svg">
  <path fill-rule="evenodd" clip-rule="evenodd"
    d="M26.5497 24.871L30.3257 31.771C30.7167 32.422 30.3257 32.878 29.4137 32.878L26.0937 33.008C25.3777 33.008 24.4657 33.66 24.2057 34.245L22.4477 37.501C22.3953 37.6308 22.3054 37.7419 22.1894 37.8202C22.0734 37.8985 21.9367 37.9403 21.7967 37.9403C21.6568 37.9403 21.52 37.8985 21.404 37.8202C21.288 37.7419 21.1981 37.6308 21.1457 37.501C21.1457 37.501 18.8017 33.204 17.3697 30.404C17.739 30.2987 18.023 30.1502 18.2557 30.0285C18.3104 29.9999 18.3622 29.9727 18.4117 29.948L26.5497 24.871ZM0.116711 31.771L3.89271 24.87L11.9657 29.948C12.0868 29.9967 12.1988 30.0542 12.3151 30.1139C12.5119 30.2149 12.7211 30.3223 13.0077 30.404C11.5757 33.204 9.23171 37.501 9.23171 37.501C9.17935 37.6308 9.08939 37.7419 8.97339 37.8202C8.8574 37.8985 8.72065 37.9403 8.58071 37.9403C8.44077 37.9403 8.30403 37.8985 8.18803 37.8202C8.07203 37.7419 7.98208 37.6308 7.92971 37.501L6.17171 34.245C5.91071 33.594 4.99971 33.008 4.28271 33.008L0.962711 32.878C-0.0132886 32.878 -0.143289 32.357 0.116711 31.771ZM28.6977 18.815C28.6977 20.638 27.5907 22.526 25.9637 23.438V23.439L17.9557 27.866C17.1051 28.2872 16.1699 28.5098 15.2207 28.517C14.3097 28.517 13.3327 28.386 12.4867 27.866L4.47871 23.374C2.85071 22.462 1.74371 20.574 1.74371 18.751V9.766C1.74371 7.944 2.85071 6.055 4.47871 5.144L12.4857 0.65C13.2667 0.26 14.2437 0 15.2197 0C16.1327 0 16.9787 0.13 17.9557 0.65L25.9637 5.143C27.7207 6.055 28.6977 7.812 28.6977 9.765V18.815ZM13.2017 24.154C13.8527 24.544 14.5037 24.61 15.2197 24.61C15.9357 24.61 16.6517 24.479 17.2377 24.154L23.0327 20.899C24.2697 20.183 25.0507 18.88 25.0507 17.513V11.003C25.0507 9.505 24.3347 8.268 23.0327 7.617L17.2377 4.362C16.5217 3.971 15.9357 3.906 15.2197 3.906C14.5037 3.906 13.7877 4.102 13.2017 4.362L7.40671 7.617C6.16971 8.333 5.38871 9.635 5.38871 11.003V17.513C5.38871 18.88 6.23471 20.248 7.40671 20.899L13.2017 24.154ZM12.0536 11.4467C12.0506 11.2311 11.9622 11.0255 11.8077 10.875C11.7312 10.8005 11.6407 10.7418 11.5415 10.7023C11.4422 10.6628 11.3362 10.6432 11.2294 10.6447C11.1226 10.6462 11.0172 10.6687 10.9191 10.711C10.821 10.7532 10.7322 10.8144 10.6577 10.891L8.31572 13.299C8.16909 13.4497 8.08646 13.6513 8.08516 13.8616C8.08385 14.0719 8.16397 14.2745 8.30872 14.427L10.6507 16.901C10.8005 17.0523 11.0035 17.1388 11.2164 17.1422C11.4292 17.1456 11.6349 17.0654 11.7893 16.9189C11.9438 16.7725 12.0347 16.5713 12.0426 16.3586C12.0506 16.1459 11.9748 15.9385 11.8317 15.781L10.0267 13.875L11.8237 12.025C11.9739 11.8703 12.0566 11.6623 12.0536 11.4467ZM18.8665 10.7067C18.7679 10.7475 18.6782 10.8075 18.6027 10.883C18.4501 11.0356 18.3644 11.2426 18.3644 11.4585C18.3644 11.6743 18.4501 11.8813 18.6027 12.034L20.4427 13.875L18.5957 15.773C18.4451 15.9275 18.362 16.1355 18.3647 16.3512C18.3674 16.567 18.4557 16.7728 18.6102 16.9235C18.7647 17.0741 18.9727 17.1572 19.1885 17.1545C19.4042 17.1518 19.6101 17.0635 19.7607 16.909L22.1677 14.435C22.317 14.2818 22.3999 14.0759 22.3986 13.8621C22.3973 13.6482 22.3118 13.4434 22.1607 13.292L19.7527 10.883C19.6772 10.8075 19.5876 10.7475 19.4889 10.7067C19.3903 10.6658 19.2845 10.6447 19.1777 10.6447C19.0709 10.6447 18.9652 10.6658 18.8665 10.7067ZM17.1462 10.8133C17.07 10.7383 16.9798 10.6791 16.8807 10.639L16.8817 10.638C16.7826 10.5978 16.6765 10.5775 16.5695 10.5783C16.4625 10.5792 16.3568 10.6012 16.2583 10.643C16.1598 10.6848 16.0706 10.7456 15.9957 10.822C15.9208 10.8983 15.8616 10.9887 15.8217 11.088L13.7397 16.231C13.6996 16.33 13.6794 16.436 13.6802 16.5428C13.681 16.6496 13.7029 16.7552 13.7445 16.8536C13.7862 16.952 13.8468 17.0412 13.9229 17.1162C13.9991 17.1911 14.0892 17.2504 14.1882 17.2905C14.2872 17.3306 14.3932 17.3508 14.5 17.35C14.6069 17.3492 14.7125 17.3273 14.8109 17.2857C14.9092 17.244 14.9985 17.1834 15.0734 17.1073C15.1484 17.0312 15.2076 16.941 15.2477 16.842L17.3297 11.699C17.3698 11.5999 17.3901 11.4939 17.3892 11.387C17.3884 11.2801 17.3665 11.1744 17.3248 11.076C17.2831 10.9776 17.2224 10.8883 17.1462 10.8133Z"
    fill="white" />
  <path fill-rule="evenodd" clip-rule="evenodd"
    d="M65.7325 7.04377C64.7813 7.19158 64.2021 7.85625 64.2021 8.79141C64.2001 9.46512 64.4595 10.0081 65.0669 10.3178C65.3951 10.4869 65.7562 10.5823 66.1251 10.5974C66.494 10.6125 66.8617 10.5469 67.2027 10.4053C67.4943 10.3066 67.7504 10.1239 67.9387 9.88031C68.1271 9.63669 68.2394 9.3429 68.2615 9.03575C68.3399 8.32182 68.1247 7.70642 67.4782 7.31627C66.9392 6.99148 66.3359 6.95025 65.7325 7.04377ZM102.906 16.1935V16.1935V16.1936V16.1936V16.1937V16.1937V16.1938C102.91 16.6458 102.914 17.0979 102.914 17.5497L102.861 17.5507C102.873 18.0575 102.877 18.5659 102.88 19.0747V19.0747V19.0748V19.0749V19.0749V19.075V19.075C102.889 20.2257 102.898 21.3787 102.994 22.5221C103.144 24.2889 104.085 25.6142 105.709 26.3774C107.273 27.1114 108.914 27.1507 110.563 26.7334C111.63 26.4629 112.554 25.9118 113.239 25.0189C113.948 24.0934 114.326 22.9561 114.31 21.7901C114.315 20.0525 114.314 18.3149 114.312 16.5773L114.312 16.5523C114.311 15.6918 114.31 14.8314 114.31 13.971C114.312 13.5519 114.292 13.1331 114.251 12.7161C114.052 10.8156 112.9 9.20971 110.997 8.54706C109.661 8.0838 108.218 8.01917 106.845 8.36103C104.407 8.93822 103.007 10.7381 102.924 13.1515C102.888 14.1642 102.897 15.1789 102.906 16.1935ZM105.99 17.5497H106.013V17.5457C106.013 17.1076 106.01 16.6693 106.008 16.231V16.2309V16.2308V16.2306V16.2305V16.2304V16.2303C106.002 15.2193 105.997 14.2086 106.021 13.2007C106.042 12.3591 106.375 11.6371 107.158 11.2047C107.993 10.7432 109.73 10.7572 110.476 11.5064C110.971 12.0031 111.143 12.6105 111.197 13.2751C111.207 13.4079 111.207 13.5426 111.207 13.6774V21.4703C111.208 21.9852 111.16 22.493 110.941 22.9656C110.556 23.7972 109.852 24.1742 108.981 24.2275C108.53 24.2584 108.077 24.2207 107.638 24.1159C106.733 23.8887 106.242 23.2371 106.072 22.3441C106.014 22.0061 105.986 21.6635 105.99 21.3205C105.986 20.4831 105.987 19.6458 105.988 18.8084V18.8066C105.989 18.3877 105.99 17.9687 105.99 17.5497ZM54.5046 13.5537H57.6077C57.6163 13.4883 57.6213 13.4225 57.6228 13.3566C57.6195 13.3071 57.6164 13.2576 57.6134 13.2081C57.6036 13.0485 57.5938 12.8893 57.5746 12.7311C57.4086 11.3948 56.8385 10.2736 55.7867 9.41887C54.9666 8.76009 53.9748 8.35008 52.9289 8.23736C51.5342 8.06541 50.1737 8.16597 48.8826 8.76929C47.7515 9.27138 46.8628 10.1976 46.408 11.3485C46.0832 12.1409 46.0058 12.9695 46.0058 13.8101C45.9977 16.1731 45.9977 18.5362 46.0058 20.8992C45.9981 21.4265 46.0233 21.9537 46.0812 22.4779C46.3155 24.2929 47.2486 25.6242 48.9239 26.3885C50.4503 27.0853 52.0501 27.1366 53.659 26.7655C54.7926 26.5223 55.8058 25.8911 56.5238 24.9807C57.2799 24.0214 57.6138 22.9022 57.6188 21.6855V17.236C57.6188 17.1846 57.6137 17.1333 57.6087 17.0816C57.6066 17.0604 57.6045 17.0391 57.6027 17.0178H51.3995V19.7066H54.4564C54.4564 19.9608 54.4604 20.2132 54.4645 20.4642V20.4642V20.4642V20.4642V20.4643V20.4643V20.4643C54.4736 21.0314 54.4826 21.5906 54.4443 22.1441C54.388 22.9636 53.9586 23.6001 53.2185 23.9792C52.6534 24.2688 52.038 24.307 51.4086 24.2537C50.0792 24.1421 49.1581 23.2069 49.13 21.8746C49.1018 20.6106 49.1018 19.3446 49.1018 18.0797V18.0796L49.102 17.4003C49.102 16.0096 49.102 14.6185 49.134 13.2289C49.1541 12.3108 49.5674 11.5858 50.4181 11.1685C50.9832 10.892 51.5956 10.8528 52.209 10.9071C53.3995 11.0137 54.2653 11.7125 54.4282 12.882C54.4485 13.0257 54.4636 13.1703 54.4789 13.3163C54.4872 13.395 54.4955 13.4741 54.5046 13.5537ZM130.108 26.7303H126.939C126.839 26.309 126.738 25.8817 126.637 25.4533L126.53 24.979C126.344 24.1506 126.157 23.322 125.977 22.492C125.94 22.318 125.863 22.2677 125.689 22.2687C124.207 22.2761 122.725 22.2761 121.243 22.2687C121.062 22.2687 121.001 22.3291 120.964 22.498C120.737 23.5255 120.505 24.5476 120.272 25.5761C120.185 25.9567 120.099 26.3383 120.012 26.7213H116.846C116.913 26.4658 116.976 26.2112 117.038 25.9565L117.038 25.9564L117.038 25.9564L117.038 25.9563L117.038 25.9562L117.039 25.9548C117.07 25.8272 117.101 25.6996 117.133 25.572C118.557 19.9208 119.98 14.2689 121.404 8.61644L121.411 8.58775C121.435 8.48524 121.456 8.39925 121.613 8.39925C122.458 8.40392 123.304 8.40238 124.16 8.40082C124.592 8.40004 125.027 8.39925 125.466 8.39925L130.108 26.7303ZM123.481 11.2449C123.097 12.9822 122.708 14.7412 122.317 16.5129L121.604 19.7378H125.336C124.968 18.0477 124.6 16.3666 124.236 14.7007L124.224 14.6449L124.221 14.6321L124.18 14.4437L124.173 14.4135L124.159 14.35L123.481 11.2449ZM88.6117 8.40327H88.3543V26.7173H91.4584V19.6915C91.7801 19.6915 92.0985 19.6924 92.4146 19.6933C93.0403 19.6951 93.6574 19.6969 94.274 19.6915C95.1639 19.6805 96.0447 19.601 96.8884 19.2893C98.5837 18.6699 99.726 17.5145 100.252 15.7699C100.526 14.8341 100.573 13.8467 100.391 12.889C100.124 11.3656 99.353 10.17 98.0347 9.34748C96.8944 8.63756 95.6304 8.40327 94.3142 8.40327H88.6117ZM91.4645 16.8499V11.2077C91.7121 11.2077 91.958 11.207 92.2026 11.2062C92.7962 11.2043 93.3822 11.2025 93.9683 11.2118C94.3771 11.2089 94.7855 11.2405 95.189 11.3063C96.4067 11.5355 97.2122 12.4335 97.3188 13.6703C97.3942 14.5492 97.2413 15.3667 96.6018 16.0414C96.1533 16.514 95.5973 16.8066 94.9718 16.8348C94.1531 16.871 93.3324 16.8636 92.5037 16.8561L92.5034 16.8561C92.1586 16.853 91.8125 16.8499 91.4645 16.8499ZM136.475 19.7026V26.7233H133.39V8.40327H133.652H139.329C140.637 8.4083 141.893 8.63052 143.027 9.32837C144.368 10.1529 145.151 11.3576 145.418 12.9001C145.619 14.0605 145.548 15.2008 145.096 16.3018C144.616 17.5047 143.699 18.4819 142.529 19.0379C141.524 19.5407 140.446 19.6835 139.342 19.6955C138.772 19.7009 138.202 19.6991 137.632 19.6973H137.632H137.632H137.632H137.631C137.347 19.6964 137.063 19.6955 136.778 19.6955L136.475 19.7026ZM136.482 16.876C136.522 16.8853 136.564 16.8917 136.605 16.8951C136.9 16.8951 137.195 16.8967 137.489 16.8983H137.489H137.49H137.49C138.166 16.9019 138.843 16.9055 139.521 16.8901C140.326 16.871 141.066 16.6508 141.646 16.0344C142.27 15.3727 142.417 14.5723 142.356 13.7095C142.256 12.3591 141.238 11.3214 139.888 11.258C139.122 11.2211 138.354 11.2203 137.586 11.2194C137.266 11.2191 136.946 11.2187 136.627 11.2158C136.579 11.221 136.531 11.2318 136.486 11.248L136.482 16.876ZM79.2823 12.9262V9.05989C79.2307 9.05715 79.1872 9.05359 79.1486 9.05042C79.102 9.0466 79.0623 9.04334 79.0238 9.04279C78.7362 9.04279 78.4487 9.04414 78.1611 9.04548C77.5859 9.04816 77.0107 9.05084 76.4356 9.04279C76.2153 9.03877 76.152 9.10112 76.152 9.32334C76.1567 10.0546 76.1551 10.7863 76.1536 11.5181V11.5183V11.5184C76.1528 11.8844 76.152 12.2504 76.152 12.6165C76.152 12.6857 76.1441 12.7549 76.1355 12.8295C76.1315 12.8644 76.1274 12.9005 76.1238 12.9383H72.4244V15.7347H76.154V16.0826C76.154 16.7614 76.1531 17.4401 76.1522 18.1188C76.1504 19.4763 76.1486 20.8338 76.154 22.1913C76.1484 22.626 76.1746 23.0606 76.2324 23.4915C76.3973 24.5835 76.8961 25.4825 77.8514 26.0858C78.6437 26.5886 79.5306 26.7253 80.4437 26.7344C81.2481 26.7404 82.0525 26.7384 82.857 26.7364C83.2592 26.7354 83.6614 26.7344 84.0636 26.7344H84.311L84.3145 26.6914L84.3189 26.6426C84.324 26.5871 84.3281 26.5428 84.3281 26.4991C84.3302 26.1793 84.3293 25.8594 84.3285 25.5397C84.3272 25.0884 84.326 24.6372 84.3331 24.1863C84.3371 23.9661 84.2557 23.9259 84.0546 23.9259C82.9404 23.9369 81.8273 23.943 80.7131 23.9259C80.4284 23.9354 80.1447 23.8864 79.8795 23.7821C79.3868 23.5498 79.2762 23.0782 79.2762 22.5754V15.9891C79.2762 15.9409 79.2805 15.8915 79.2855 15.8347L79.2855 15.8346C79.2881 15.8049 79.2909 15.7732 79.2933 15.7387H79.595C80.1211 15.7387 80.647 15.7378 81.1725 15.7369C82.2229 15.7351 83.2722 15.7334 84.321 15.7387C84.5191 15.7397 84.5795 15.6844 84.5795 15.4833V13.1706C84.5788 13.1257 84.5736 13.0812 84.5675 13.03L84.5675 13.0299L84.5675 13.0296C84.5638 12.9982 84.5598 12.9643 84.5563 12.9262H79.2823ZM67.9669 23.8877H72.2214V26.7203H60.192V23.9048H64.9764V15.7407H60.8155V12.9453H67.9649L67.9669 23.8877Z"
    fill="white" />
</svg>