<svg width="128" height="39" viewBox="0 0 128 39" fill="none" xmlns="http://www.w3.org/2000/svg">
  <path
    d="M51.2279 23.9257C50.3244 23.9257 49.5339 23.7596 48.8563 23.4274C48.192 23.082 47.6738 22.5904 47.3018 21.9526C46.943 21.3016 46.7637 20.5443 46.7637 19.6806V13.2234C46.7637 12.3465 46.943 11.5892 47.3018 10.9514C47.6738 10.3137 48.192 9.82874 48.8563 9.49658C49.5339 9.15113 50.3244 8.97841 51.2279 8.97841C52.1314 8.97841 52.9153 9.15113 53.5796 9.49658C54.2439 9.84202 54.7555 10.3336 55.1142 10.9714C55.4862 11.5958 55.6722 12.3465 55.6722 13.2234H53.5198C53.5198 12.4661 53.3205 11.8881 52.9219 11.4895C52.5234 11.091 51.9587 10.8917 51.2279 10.8917C50.4972 10.8917 49.9258 11.091 49.514 11.4895C49.1154 11.8881 48.9161 12.4595 48.9161 13.2035V19.6806C48.9161 20.4247 49.1154 21.0026 49.514 21.4145C49.9258 21.8264 50.4972 22.0323 51.2279 22.0323C51.9587 22.0323 52.5234 21.8264 52.9219 21.4145C53.3205 21.0026 53.5198 20.4247 53.5198 19.6806V18.0464H50.8094V16.1531H55.6722V19.6806C55.6722 20.5443 55.4862 21.2949 55.1142 21.9327C54.7555 22.5704 54.2439 23.062 53.5796 23.4075C52.9153 23.7529 52.1314 23.9257 51.2279 23.9257Z"
    fill="#17457C" />
  <path
    d="M58.7336 23.7264V21.7733H62.5801V14.7182H59.2319V12.765H64.6727V21.7733H68.2002V23.7264H58.7336ZM63.4171 10.8717C62.9521 10.8717 62.5801 10.7521 62.301 10.513C62.022 10.2605 61.8825 9.92839 61.8825 9.51651C61.8825 9.09134 62.022 8.75918 62.301 8.52002C62.5801 8.26758 62.9521 8.14136 63.4171 8.14136C63.8821 8.14136 64.2542 8.26758 64.5332 8.52002C64.8122 8.75918 64.9517 9.09134 64.9517 9.51651C64.9517 9.92839 64.8122 10.2605 64.5332 10.513C64.2542 10.7521 63.8821 10.8717 63.4171 10.8717Z"
    fill="#17457C" />
  <path
    d="M76.244 23.7264C75.2476 23.7264 74.4703 23.454 73.9123 22.9093C73.3542 22.3645 73.0752 21.6072 73.0752 20.6373V14.7182H70.0459V12.765H73.0752V9.67594H75.2276V12.765H79.5125V14.7182H75.2276V20.6373C75.2276 21.3946 75.593 21.7733 76.3238 21.7733H79.3132V23.7264H76.244Z"
    fill="#17457C" />
  <path
    d="M82.6935 23.7264V9.1777H87.4567C88.4 9.1777 89.2171 9.35707 89.908 9.7158C90.6122 10.0745 91.1503 10.5861 91.5223 11.2504C91.9076 11.9014 92.1003 12.672 92.1003 13.5622C92.1003 14.4391 91.9076 15.2098 91.5223 15.8741C91.137 16.5384 90.5989 17.0499 89.908 17.4087C89.2171 17.7674 88.4 17.9468 87.4567 17.9468H84.8459V23.7264H82.6935ZM84.8459 16.0136H87.4567C88.2007 16.0136 88.792 15.7944 89.2304 15.3559C89.6821 14.9042 89.908 14.3063 89.908 13.5622C89.908 12.8049 89.6821 12.207 89.2304 11.7686C88.792 11.3301 88.2007 11.1109 87.4567 11.1109H84.8459V16.0136Z"
    fill="#17457C" />
  <path
    d="M98.9483 23.9257C98.0448 23.9257 97.2609 23.7596 96.5966 23.4274C95.9456 23.082 95.4407 22.5904 95.082 21.9526C94.7365 21.3016 94.5638 20.5443 94.5638 19.6806V13.2234C94.5638 12.3465 94.7365 11.5892 95.082 10.9514C95.4407 10.3137 95.9456 9.82874 96.5966 9.49658C97.2609 9.15113 98.0448 8.97841 98.9483 8.97841C99.8518 8.97841 100.629 9.15113 101.28 9.49658C101.944 9.82874 102.449 10.3137 102.795 10.9514C103.153 11.5892 103.333 12.3399 103.333 13.2035V19.6806C103.333 20.5443 103.153 21.3016 102.795 21.9526C102.449 22.5904 101.944 23.082 101.28 23.4274C100.629 23.7596 99.8518 23.9257 98.9483 23.9257ZM98.9483 22.0124C99.6791 22.0124 100.23 21.8131 100.602 21.4145C100.988 21.0026 101.18 20.4247 101.18 19.6806V13.2234C101.18 12.4661 100.988 11.8881 100.602 11.4895C100.23 11.091 99.6791 10.8917 98.9483 10.8917C98.2308 10.8917 97.6795 11.091 97.2941 11.4895C96.9088 11.8881 96.7162 12.4661 96.7162 13.2234V19.6806C96.7162 20.4247 96.9088 21.0026 97.2941 21.4145C97.6795 21.8131 98.2308 22.0124 98.9483 22.0124Z"
    fill="#17457C" />
  <path
    d="M105.776 23.7264L109.483 9.1777H112.313L116.02 23.7264H113.848L112.971 20.0394H108.846L107.969 23.7264H105.776ZM109.244 18.2656H112.552L111.556 14.0605C111.383 13.3164 111.237 12.672 111.118 12.1273C111.011 11.5693 110.938 11.1906 110.898 10.9913C110.858 11.1906 110.785 11.5693 110.679 12.1273C110.573 12.672 110.427 13.3098 110.241 14.0405L109.244 18.2656Z"
    fill="#17457C" />
  <path
    d="M118.544 23.7264V9.1777H123.307C124.25 9.1777 125.067 9.35707 125.758 9.7158C126.462 10.0745 127 10.5861 127.372 11.2504C127.758 11.9014 127.95 12.672 127.95 13.5622C127.95 14.4391 127.758 15.2098 127.372 15.8741C126.987 16.5384 126.449 17.0499 125.758 17.4087C125.067 17.7674 124.25 17.9468 123.307 17.9468H120.696V23.7264H118.544ZM120.696 16.0136H123.307C124.051 16.0136 124.642 15.7944 125.08 15.3559C125.532 14.9042 125.758 14.3063 125.758 13.5622C125.758 12.8049 125.532 12.207 125.08 11.7686C124.642 11.3301 124.051 11.1109 123.307 11.1109H120.696V16.0136Z"
    fill="#17457C" />
  <path
    d="M30.3262 32.0614L26.5501 25.1602L18.4118 30.2384C18.1514 30.3686 17.8259 30.564 17.3701 30.6942C18.8024 33.4937 21.1463 37.7907 21.1463 37.7907C21.4067 38.3767 22.188 38.3767 22.4484 37.7907L24.2062 34.5354C24.4667 33.9495 25.3781 33.2984 26.0943 33.2984L29.4147 33.1682C30.3262 33.1682 30.7168 32.7124 30.3262 32.0614Z"
    fill="#17457C" />
  <path
    d="M3.89307 25.1602L0.116925 32.0614C-0.143499 32.6473 -0.0132869 33.1682 0.963302 33.1682L4.28371 33.2984C4.99987 33.2984 5.91135 33.8844 6.17178 34.5354L7.92964 37.7907C8.19006 38.3767 8.97133 38.3767 9.23176 37.7907C9.23176 37.7907 11.5756 33.4937 13.0079 30.6942C12.5522 30.564 12.2917 30.3686 11.9662 30.2384L3.89307 25.1602Z"
    fill="#17457C" />
  <path
    d="M25.9636 23.7277C27.5912 22.8162 28.698 20.9281 28.698 19.1052V10.0554C28.698 8.10226 27.7214 6.3444 25.9636 5.43292L17.9555 0.94061C16.9789 0.419763 16.1326 0.289551 15.2211 0.289551C14.2445 0.289551 13.2679 0.549975 12.4866 0.94061L4.47859 5.43292C2.85094 6.3444 1.74414 8.23248 1.74414 10.0554V19.0401C1.74414 20.863 2.85094 22.7511 4.47859 23.6626L12.4866 28.1549C13.333 28.6757 14.3096 28.806 15.2211 28.806C16.1977 28.806 17.1742 28.5455 17.9555 28.1549L25.9636 23.7277ZM15.2211 24.8996C14.5049 24.8996 13.8538 24.8345 13.2028 24.4439L7.40836 21.1886C6.23645 20.5375 5.39007 19.1703 5.39007 17.8031V11.2925C5.39007 9.92523 6.17135 8.62311 7.40836 7.90695L13.2028 4.65165C13.7887 4.39123 14.5049 4.19591 15.2211 4.19591C15.9372 4.19591 16.5232 4.26101 17.2394 4.65165L23.0338 7.90695C24.3359 8.55801 25.0521 9.79502 25.0521 11.2925V17.8031C25.0521 19.1703 24.2708 20.4724 23.0338 21.1886L17.2394 24.4439C16.6534 24.7694 15.9372 24.8996 15.2211 24.8996Z"
    fill="#17457C" />
  <path fill-rule="evenodd" clip-rule="evenodd"
    d="M11.8083 11.1649C12.1303 11.4783 12.1373 11.9935 11.8241 12.3157L10.0265 14.1646L11.8316 16.0714C12.1405 16.3977 12.1266 16.9128 11.8005 17.2219C11.4745 17.531 10.9598 17.5171 10.6509 17.1908L8.3088 14.7168C8.00877 14.3998 8.01208 13.9025 8.3163 13.5895L10.6584 11.1806C10.9716 10.8585 11.4864 10.8514 11.8083 11.1649Z"
    fill="#17457C" />
  <path fill-rule="evenodd" clip-rule="evenodd"
    d="M18.6034 11.1727C18.921 10.8549 19.4359 10.8549 19.7535 11.1727L22.1606 13.5816C22.4752 13.8964 22.4786 14.4058 22.1682 14.7248L19.7611 17.1988C19.4478 17.5209 18.9329 17.5277 18.6111 17.2142C18.2894 16.9006 18.2825 16.3854 18.5958 16.0634L20.4431 14.1647L18.6034 12.3236C18.2858 12.0058 18.2858 11.4905 18.6034 11.1727Z"
    fill="#17457C" />
  <path fill-rule="evenodd" clip-rule="evenodd"
    d="M16.8813 10.9289C17.2975 11.0976 17.4983 11.5721 17.3297 11.9887L15.2478 17.1321C15.0792 17.5487 14.6051 17.7496 14.1888 17.5808C13.7725 17.4121 13.5717 16.9376 13.7404 16.521L15.8222 11.3776C15.9908 10.9611 16.465 10.7601 16.8813 10.9289Z"
    fill="#17457C" />
</svg>