<?xml version="1.0" standalone="no"?>
<!DOCTYPE svg PUBLIC "-//W3C//DTD SVG 20010904//EN"
 "http://www.w3.org/TR/2001/REC-SVG-20010904/DTD/svg10.dtd">
<svg version="1.0" xmlns="http://www.w3.org/2000/svg"
 width="1248.000000pt" height="1248.000000pt" viewBox="0 0 1248.000000 1248.000000"
 preserveAspectRatio="xMidYMid meet">
<metadata>
Created by potrace 1.14, written by Peter Selinger 2001-2017
</metadata>
<g transform="translate(0.000000,1248.000000) scale(0.100000,-0.100000)"
fill="#000000" stroke="none">
<path d="M6007 12384 c-1 -1 -31 -5 -67 -9 -36 -4 -74 -9 -85 -11 -11 -2 -36
-7 -55 -10 -52 -10 -92 -19 -125 -28 -5 -2 -23 -6 -40 -11 -94 -24 -234 -77
-330 -125 -127 -63 -472 -256 -496 -276 -8 -8 -23 -14 -32 -14 -9 0 -17 -4
-17 -8 0 -4 -12 -13 -27 -19 -16 -7 -55 -28 -88 -48 -33 -19 -76 -43 -95 -52
-19 -10 -43 -24 -52 -32 -9 -8 -25 -16 -35 -17 -10 -2 -19 -8 -21 -13 -2 -6
-8 -11 -13 -11 -8 0 -108 -55 -289 -159 -25 -14 -48 -24 -52 -23 -5 1 -8 -2
-8 -6 0 -10 -50 -37 -62 -34 -5 1 -8 -2 -8 -8 0 -5 -7 -10 -15 -10 -8 0 -15
-5 -15 -12 0 -6 -3 -8 -6 -5 -4 4 -19 -2 -33 -11 -14 -10 -37 -23 -51 -30 -14
-6 -32 -16 -40 -22 -20 -13 -191 -110 -194 -110 -3 0 -171 -94 -196 -110 -8
-5 -35 -20 -60 -32 -25 -13 -47 -25 -50 -28 -3 -3 -57 -34 -120 -69 -126 -70
-160 -89 -235 -133 -27 -15 -74 -40 -102 -55 -29 -14 -53 -30 -53 -35 0 -5 -4
-6 -10 -3 -5 3 -10 1 -10 -5 0 -6 -4 -9 -9 -6 -5 3 -14 -1 -21 -9 -7 -8 -16
-15 -21 -15 -21 0 -199 -115 -286 -186 -72 -59 -219 -210 -266 -273 -22 -31
-43 -58 -47 -61 -11 -10 -88 -135 -117 -190 -15 -30 -31 -56 -36 -58 -4 -2 -5
-8 -1 -13 3 -5 1 -9 -4 -9 -6 0 -13 -11 -16 -25 -4 -14 -17 -49 -31 -78 -34
-74 -91 -268 -101 -342 -1 -11 -3 -20 -4 -20 -2 0 -8 -42 -14 -110 -10 -102
-11 -225 -3 -225 5 0 5 -5 1 -12 -10 -16 -11 -160 -2 -180 5 -10 5 -18 0 -18
-4 0 -8 -27 -7 -60 0 -33 4 -60 8 -60 5 0 5 -5 1 -12 -10 -16 -11 -279 -1
-300 4 -10 4 -18 0 -18 -10 0 -9 -132 1 -148 4 -7 4 -12 -1 -12 -10 0 -9 -132
1 -148 4 -7 4 -12 -1 -12 -10 0 -9 -132 1 -148 4 -7 4 -12 -1 -12 -10 0 -9
-162 1 -178 4 -7 3 -12 -1 -12 -5 0 -9 -27 -8 -60 0 -33 4 -60 8 -60 5 0 5 -5
1 -11 -10 -17 -11 -139 -1 -139 5 0 5 -5 1 -12 -10 -16 -11 -160 -2 -180 5
-10 5 -18 0 -18 -4 0 -8 -27 -7 -60 0 -33 4 -60 8 -60 5 0 5 -5 1 -11 -10 -17
-11 -139 -1 -139 5 0 5 -5 1 -12 -10 -16 -12 -159 -2 -180 5 -10 3 -18 -5 -21
-9 -3 -9 -7 0 -19 7 -8 10 -18 6 -21 -9 -10 -10 -209 0 -229 4 -10 4 -18 0
-18 -10 0 -9 -132 1 -148 4 -7 4 -12 -1 -12 -4 0 -7 -21 -6 -47 4 -90 12 -198
17 -228 7 -37 27 -137 30 -150 16 -61 30 -107 43 -140 8 -22 16 -47 18 -56 2
-9 24 -60 49 -114 25 -53 46 -101 46 -106 0 -5 5 -9 10 -9 6 0 10 -5 10 -10 0
-6 16 -36 35 -66 19 -30 35 -56 35 -59 0 -3 6 -13 14 -22 8 -10 43 -54 78 -98
70 -89 175 -198 258 -266 54 -45 186 -139 194 -139 2 0 39 -20 80 -45 42 -25
78 -45 80 -45 3 0 37 -19 78 -43 40 -24 88 -50 106 -58 17 -7 32 -17 32 -21 0
-5 4 -8 9 -8 5 0 48 -23 96 -50 48 -28 91 -50 96 -50 5 0 9 -4 9 -10 0 -5 5
-10 11 -10 7 0 67 -32 134 -70 67 -39 126 -70 130 -70 5 0 16 -6 24 -14 9 -8
39 -26 66 -40 28 -15 57 -31 65 -36 25 -15 311 -175 375 -210 135 -74 150 -83
155 -89 3 -3 32 -19 65 -36 33 -16 62 -32 65 -35 3 -3 23 -14 45 -25 22 -11
42 -23 43 -27 2 -5 7 -8 12 -8 6 0 199 -105 240 -130 8 -6 40 -23 70 -40 30
-16 82 -45 115 -65 33 -20 72 -40 88 -46 15 -6 27 -15 27 -19 0 -5 14 -11 30
-15 17 -4 30 -10 30 -15 0 -5 23 -19 50 -31 28 -12 50 -26 50 -31 0 -4 4 -8
10 -8 5 0 61 -28 122 -63 101 -56 148 -79 213 -103 23 -8 18 -7 75 -23 25 -7
56 -17 70 -22 14 -5 41 -11 60 -14 19 -3 46 -7 60 -11 14 -3 40 -7 58 -7 17
-1 32 -4 32 -7 0 -13 410 -18 505 -6 28 4 66 8 85 10 19 2 58 10 85 16 28 6
61 14 75 16 14 3 49 12 77 20 29 9 55 15 58 15 2 0 25 8 50 19 25 11 46 19 48
19 14 -2 191 79 257 118 30 18 61 33 68 33 6 0 12 3 12 8 0 4 17 15 38 24 20
10 62 32 92 49 30 18 78 44 105 58 28 14 52 28 55 31 3 3 27 17 55 30 27 14
55 30 62 37 7 6 23 15 36 19 12 4 24 10 27 14 3 3 25 16 50 29 25 12 63 33 85
45 22 12 67 37 100 56 33 18 94 51 135 75 41 23 107 59 145 80 116 63 229 125
245 135 8 5 31 18 50 28 19 10 62 33 95 51 33 19 78 44 100 56 22 12 56 31 75
42 19 11 62 35 95 53 33 18 66 37 73 43 6 5 12 6 12 1 0 -5 4 -4 8 2 4 5 32
23 62 38 30 16 57 31 60 35 3 3 43 26 90 50 47 25 99 52 115 62 17 10 51 29
76 42 25 14 63 35 85 47 21 13 62 35 89 50 28 15 68 37 90 50 42 23 133 79
150 92 96 75 145 116 172 143 18 19 33 32 33 30 0 -3 19 17 43 43 23 25 47 52
52 58 91 100 265 369 265 409 0 8 4 15 9 15 5 0 11 8 14 18 3 9 24 67 47 127
24 61 44 119 45 130 1 11 4 21 5 23 1 1 3 10 4 20 1 9 4 22 7 27 4 6 10 30 14
55 3 25 9 58 11 74 3 16 7 54 10 85 8 78 8 3087 0 3186 -8 97 -11 121 -32 220
-4 17 -8 39 -9 50 -2 11 -4 21 -5 23 -2 1 -3 5 -4 10 -2 5 -23 75 -41 132 -2
6 -9 24 -41 100 -45 111 -167 320 -186 320 -4 0 -8 5 -8 11 0 19 -138 169
-233 254 -7 6 -39 31 -72 55 -33 25 -61 48 -63 53 -2 4 -8 7 -14 7 -5 0 -28
12 -51 28 -74 48 -81 52 -109 63 -16 6 -28 16 -28 22 0 6 -3 8 -6 4 -3 -3 -23
4 -43 17 -20 12 -67 39 -104 60 -37 20 -84 46 -105 58 -119 68 -193 108 -202
108 -6 0 -10 4 -10 9 0 5 -16 15 -35 22 -19 7 -35 16 -35 19 0 4 -16 12 -35
20 -19 8 -35 16 -35 19 0 4 -13 12 -29 19 -30 13 -264 144 -291 162 -8 6 -27
16 -42 23 -16 6 -28 15 -28 19 0 4 -6 8 -13 8 -7 0 -34 13 -60 30 -26 16 -47
27 -47 24 0 -3 -7 2 -16 10 -8 9 -22 16 -30 16 -8 0 -14 5 -14 10 0 6 -6 10
-12 10 -7 0 -39 16 -72 35 -32 20 -86 51 -120 69 -33 19 -110 61 -170 95 -60
34 -112 61 -115 61 -4 0 -16 8 -27 18 -10 10 -21 18 -24 18 -5 0 -110 57 -203
111 -32 18 -62 33 -67 33 -4 0 -10 3 -12 8 -1 4 -16 14 -33 23 -82 42 -140 74
-145 80 -3 3 -20 12 -37 20 -18 8 -33 18 -33 22 0 5 -4 5 -10 2 -5 -3 -10 -3
-10 2 0 4 -23 19 -50 32 -28 14 -50 29 -50 33 0 4 -6 8 -14 8 -8 0 -47 19 -88
43 -79 47 -202 107 -218 107 -6 0 -10 5 -10 12 0 6 -3 9 -6 5 -4 -3 -23 1 -43
9 -35 15 -124 45 -147 50 -7 1 -45 10 -85 19 -78 18 -88 19 -184 31 -55 6
-382 13 -388 8z m378 -1258 c77 -9 173 -32 250 -61 39 -15 78 -29 88 -32 9 -3
17 -9 17 -14 0 -5 9 -9 20 -9 11 0 20 -4 20 -10 0 -5 5 -10 11 -10 7 0 78 -38
158 -84 150 -85 198 -112 311 -174 36 -19 82 -46 102 -59 21 -13 40 -23 42
-23 2 0 43 -22 91 -50 48 -27 91 -50 96 -50 5 0 9 -4 9 -8 0 -5 16 -14 35 -22
19 -8 35 -16 35 -19 0 -4 15 -12 33 -20 17 -8 34 -17 37 -20 3 -3 23 -15 45
-27 65 -33 130 -69 135 -74 3 -3 16 -11 30 -17 14 -7 48 -25 75 -41 28 -16 73
-42 100 -57 28 -15 75 -42 105 -59 30 -17 69 -38 85 -46 17 -8 32 -17 35 -20
6 -6 40 -26 105 -60 66 -35 99 -54 105 -60 3 -3 16 -11 30 -17 64 -31 177 -96
196 -114 11 -10 24 -19 29 -19 10 0 119 -92 153 -130 50 -53 130 -157 148
-190 10 -19 21 -37 24 -40 7 -6 65 -124 62 -127 -1 -2 7 -23 18 -48 11 -25 17
-45 13 -45 -3 0 -1 -6 5 -12 9 -12 45 -184 52 -248 1 -14 3 -538 4 -1165 0
-1022 -2 -1198 -17 -1270 -2 -11 -8 -38 -12 -60 -5 -22 -10 -44 -11 -50 -5
-16 -34 -98 -41 -115 -3 -8 -7 -17 -8 -20 -2 -9 -36 -85 -45 -100 -5 -8 -23
-40 -41 -70 -18 -30 -52 -82 -78 -115 -53 -71 -195 -215 -210 -215 -6 0 -11
-4 -11 -9 0 -19 -198 -141 -520 -319 -30 -16 -84 -46 -118 -66 -35 -20 -68
-36 -73 -36 -5 0 -9 -3 -9 -8 0 -4 -13 -13 -29 -20 -25 -11 -253 -139 -411
-230 -25 -15 -48 -25 -52 -24 -5 1 -8 -2 -8 -7 0 -5 -6 -11 -12 -13 -13 -3
-144 -75 -263 -144 -33 -19 -71 -40 -85 -46 -14 -7 -27 -15 -30 -19 -3 -3 -20
-12 -37 -20 -18 -8 -33 -18 -33 -22 0 -5 -4 -6 -9 -3 -5 4 -11 3 -13 -1 -1 -5
-29 -21 -60 -38 -32 -16 -58 -33 -58 -37 0 -5 -9 -8 -19 -8 -11 0 -22 -4 -26
-9 -3 -6 -18 -16 -33 -24 -54 -28 -167 -90 -187 -102 -11 -6 -33 -16 -50 -20
-36 -10 -36 -10 -55 -18 -59 -25 -119 -40 -167 -41 -13 -1 -23 -4 -23 -8 0 -4
-8 -6 -17 -6 -10 1 -36 -3 -58 -7 -46 -9 -415 -14 -430 -6 -12 7 -27 9 -85 15
-25 3 -61 10 -80 16 -19 6 -47 13 -62 16 -14 3 -54 18 -87 34 -34 17 -63 30
-66 30 -2 0 -54 29 -114 64 -61 36 -111 61 -111 58 0 -4 -4 -2 -8 4 -4 6 -27
21 -52 35 -25 13 -48 28 -51 32 -3 5 -9 8 -13 7 -4 0 -62 30 -129 68 -67 38
-142 80 -167 93 -25 13 -47 26 -50 29 -3 3 -18 12 -35 21 -16 10 -55 31 -85
48 -30 17 -72 39 -92 49 -21 9 -38 20 -38 24 0 5 -4 8 -10 8 -5 0 -33 14 -62
31 -29 17 -75 44 -103 58 -74 40 -98 54 -117 70 -10 8 -18 11 -18 7 0 -4 -13
2 -29 13 -16 12 -34 21 -40 21 -6 0 -11 3 -11 8 0 4 -15 13 -32 21 -18 8 -35
17 -38 20 -3 3 -23 15 -45 27 -97 51 -160 88 -166 97 -3 5 -9 8 -13 7 -6 -2
-284 154 -340 190 -49 32 -82 56 -110 80 -67 57 -223 220 -210 220 3 0 -3 9
-13 20 -23 23 -110 169 -115 190 -2 8 -6 17 -9 20 -13 10 -71 160 -84 216 -2
10 -9 38 -15 62 -6 24 -8 47 -5 53 4 5 2 9 -3 9 -6 0 -9 16 -8 36 1 20 -1 37
-4 39 -5 3 -5 2280 0 2280 1 0 3 20 5 45 8 121 96 374 166 477 16 23 29 46 29
51 0 6 3 12 8 14 4 2 27 30 51 63 49 65 185 205 200 205 6 0 16 8 23 18 12 16
131 102 142 102 2 0 44 23 93 52 48 29 94 53 102 55 8 1 17 6 20 11 8 12 164
97 174 94 4 -1 7 2 7 8 0 5 7 10 15 10 8 0 15 5 15 11 0 5 5 7 10 4 6 -3 10
-3 10 2 0 4 10 13 23 19 60 29 182 99 185 106 2 4 9 8 15 8 7 0 37 16 67 34
30 19 58 32 62 30 4 -3 8 -1 8 4 0 5 12 14 28 21 15 7 38 20 52 29 14 9 27 17
30 17 3 0 37 19 75 41 209 120 303 172 323 178 12 4 22 12 22 17 0 5 4 9 10 9
5 0 44 20 86 45 41 25 78 45 80 45 3 0 44 23 92 51 47 28 95 55 107 60 11 5
43 23 70 39 28 17 75 42 105 56 30 14 63 30 73 35 11 6 21 8 24 5 3 -3 15 0
27 6 11 7 24 13 29 14 4 1 9 3 12 4 3 1 10 4 15 5 6 1 11 3 13 5 1 1 9 3 17 5
47 12 68 16 90 20 14 2 43 9 65 15 22 5 65 13 95 16 30 3 56 6 57 8 4 4 297
-3 348 -8z"/>
<path d="M6499 8986 c-43 -15 -99 -53 -99 -67 0 -6 -4 -7 -10 -4 -5 3 -10 1
-10 -6 0 -7 -6 -20 -13 -28 -13 -15 -56 -112 -62 -136 -1 -5 -11 -30 -22 -55
-11 -25 -37 -88 -57 -140 -21 -52 -46 -114 -57 -137 -10 -24 -19 -46 -19 -50
-1 -5 -9 -26 -20 -48 -11 -22 -19 -45 -20 -51 0 -6 -6 -24 -14 -40 -14 -28
-38 -83 -41 -94 -8 -32 -28 -80 -34 -80 -4 0 -7 -8 -8 -17 -2 -18 -55 -152
-73 -185 -6 -10 -10 -22 -10 -27 0 -4 -10 -30 -22 -57 -12 -27 -23 -58 -25
-68 -2 -11 -7 -24 -12 -30 -5 -6 -27 -58 -50 -116 -22 -58 -45 -113 -51 -122
-5 -10 -10 -22 -10 -27 0 -4 -9 -29 -20 -55 -12 -25 -21 -47 -20 -48 0 -2 -13
-34 -29 -73 -56 -132 -29 -263 70 -335 75 -54 161 -68 242 -39 66 24 111 62
142 120 17 31 92 218 97 239 2 8 5 17 8 20 13 13 30 52 30 70 0 11 5 20 10 20
6 0 10 6 10 14 0 7 8 31 17 52 9 22 18 41 18 44 1 3 8 21 16 40 7 19 12 38 11
43 -1 4 2 7 6 7 5 0 9 6 10 13 0 11 215 543 248 614 8 17 14 35 14 40 1 4 9
26 20 48 11 22 19 44 20 48 0 4 10 29 22 55 12 26 22 49 22 52 1 11 60 155 66
160 3 3 6 10 7 15 1 6 12 37 24 70 54 148 3 276 -136 344 -45 22 -137 25 -186
7z"/>
<path d="M4795 8968 c-65 -24 -78 -37 -498 -471 -95 -98 -173 -182 -175 -187
-2 -6 -10 -10 -18 -10 -8 0 -14 -4 -14 -8 0 -5 -37 -47 -82 -94 -117 -122
-132 -146 -137 -223 -1 -27 -5 -53 -7 -57 -3 -5 -1 -8 5 -8 5 0 8 -7 7 -16 -6
-41 44 -107 223 -293 50 -52 91 -98 91 -103 0 -5 5 -6 10 -3 6 3 10 2 10 -3 0
-5 24 -34 53 -64 28 -30 117 -124 197 -208 230 -242 264 -277 299 -294 36 -19
88 -29 141 -27 52 2 152 54 173 90 10 17 23 31 28 31 6 0 7 5 4 10 -3 6 -1 10
4 10 6 0 10 3 9 8 -1 4 3 25 10 47 16 61 -4 195 -30 195 -4 0 -8 6 -8 13 0 7
-8 20 -17 28 -10 9 -70 71 -133 139 -63 67 -142 151 -175 185 -140 146 -212
223 -242 258 l-33 37 134 138 c494 504 484 493 501 560 10 39 13 130 5 140 -2
1 -3 5 -5 10 -16 57 -62 113 -122 149 -51 29 -157 41 -208 21z"/>
<path d="M7335 8967 c-120 -40 -195 -168 -173 -292 14 -76 40 -108 347 -415
l311 -311 -48 -51 c-26 -28 -94 -100 -152 -158 -255 -260 -388 -399 -412 -431
-126 -168 5 -417 217 -411 85 2 145 38 246 148 20 21 45 46 55 55 11 9 93 94
184 189 91 94 238 246 326 337 95 97 171 183 184 210 41 82 33 182 -20 258
-16 22 -208 220 -429 440 -274 274 -414 406 -443 420 -48 23 -143 29 -193 12z"/>
<path d="M2516 4413 c-3 -10 -14 -31 -24 -48 -10 -16 -32 -55 -48 -85 -16 -30
-33 -58 -39 -62 -5 -4 -6 -8 -2 -8 5 0 0 -12 -11 -27 -11 -16 -23 -38 -26 -50
-4 -13 -12 -23 -17 -23 -6 0 -8 -4 -4 -9 3 -5 1 -12 -5 -16 -6 -3 -17 -21 -25
-38 -8 -18 -35 -68 -59 -112 -25 -44 -56 -100 -69 -125 -14 -25 -44 -79 -66
-120 -23 -41 -47 -87 -54 -102 -6 -16 -15 -28 -19 -28 -4 0 -8 -9 -8 -19 0
-11 -5 -23 -10 -26 -6 -4 -21 -28 -34 -53 -13 -26 -42 -80 -65 -121 -22 -41
-41 -77 -41 -81 0 -4 -7 -13 -15 -20 -8 -7 -13 -16 -10 -20 3 -5 1 -11 -5 -15
-11 -7 -61 -100 -59 -111 0 -4 -3 -10 -9 -13 -5 -3 -35 -55 -67 -116 -32 -60
-63 -113 -69 -117 -6 -4 -7 -8 -2 -8 5 0 4 -6 -2 -12 -15 -19 -172 -309 -172
-319 0 -5 -3 -9 -7 -9 -5 0 -19 -25 -33 -55 -14 -30 -29 -55 -33 -55 -5 0 -6
-4 -3 -9 3 -5 -1 -14 -9 -21 -8 -7 -15 -16 -15 -21 0 -4 -14 -31 -30 -59 -71
-121 -87 -244 -40 -314 29 -42 106 -83 171 -91 42 -6 78 -7 394 -20 160 -6
375 -15 438 -18 20 -1 37 3 37 8 0 6 3 6 8 -1 4 -6 30 -11 57 -11 248 -3 367
-19 460 -59 22 -10 43 -17 48 -16 4 1 7 -3 7 -9 0 -5 5 -7 10 -4 6 3 10 2 10
-3 0 -5 8 -12 18 -16 15 -5 29 -13 66 -38 37 -25 143 -129 165 -163 15 -22 53
-87 83 -145 30 -58 64 -121 75 -140 11 -19 37 -69 59 -110 21 -41 41 -77 44
-80 3 -3 13 -21 22 -40 10 -19 37 -71 61 -115 110 -204 194 -358 244 -453 51
-95 112 -170 134 -165 5 2 9 -2 9 -9 0 -6 3 -8 7 -5 3 4 12 2 19 -4 20 -17
113 -13 158 8 54 24 95 70 137 151 18 37 36 69 39 72 3 3 16 28 30 55 14 28
27 52 30 55 3 3 12 18 20 35 8 16 47 89 86 160 39 72 75 141 78 153 4 12 11
22 16 22 4 0 11 12 15 27 3 15 10 30 14 33 8 5 58 97 150 275 19 39 38 72 41
75 3 3 14 23 24 45 11 22 27 52 38 68 11 15 16 27 11 27 -4 0 -3 4 2 8 6 4 32
50 59 102 27 52 77 147 111 210 34 63 95 178 135 255 40 77 76 144 81 149 5 6
9 18 9 28 0 10 4 18 8 18 8 0 44 67 40 73 -1 1 10 22 24 47 14 25 49 90 77
144 46 90 49 100 34 111 -10 7 -23 11 -29 8 -7 -2 -15 0 -19 6 -3 6 -15 11
-26 11 -10 0 -19 5 -19 12 0 6 -3 9 -6 5 -5 -5 -262 119 -274 132 -10 12 -120
81 -120 76 0 -3 -10 3 -22 15 -12 11 -28 20 -35 20 -7 0 -13 4 -13 9 0 5 -10
13 -22 17 -21 6 -31 13 -63 42 -8 7 -15 11 -15 8 0 -3 -17 6 -37 19 -21 14
-45 30 -53 35 -8 5 -31 20 -50 33 -90 58 -221 137 -229 137 -5 0 -11 4 -13 8
-3 9 -261 174 -310 199 -16 8 -28 19 -28 24 0 5 -6 9 -14 9 -8 0 -21 7 -30 15
-8 9 -17 15 -18 13 -2 -1 -35 19 -75 45 -39 26 -83 52 -97 59 -14 6 -26 15
-26 20 0 4 -7 8 -15 8 -8 0 -15 5 -15 10 0 6 -5 10 -11 10 -6 0 -30 14 -54 30
-24 17 -48 30 -53 30 -6 0 -12 3 -14 8 -2 6 -448 289 -543 345 -11 7 -45 29
-77 50 -31 20 -61 37 -66 37 -5 0 -17 9 -27 20 -10 11 -24 20 -32 20 -7 0 -13
5 -13 10 0 6 -5 10 -11 10 -5 0 -48 25 -94 55 -45 30 -88 55 -94 55 -6 0 -11
4 -11 8 0 5 -15 16 -32 25 -18 10 -47 26 -64 37 -30 19 -32 19 -38 3z"/>
<path d="M9690 4375 c-47 -29 -89 -57 -95 -62 -5 -5 -14 -11 -20 -12 -5 -2
-19 -9 -30 -16 -281 -177 -489 -305 -496 -305 -5 0 -9 -4 -9 -8 0 -5 -15 -16
-32 -25 -18 -10 -45 -25 -61 -35 -322 -203 -446 -280 -471 -294 -40 -23 -65
-40 -82 -56 -7 -7 -15 -12 -16 -10 -2 1 -84 -48 -183 -111 -99 -62 -189 -118
-200 -124 -11 -7 -33 -21 -50 -32 -16 -11 -42 -27 -56 -35 -27 -16 -153 -94
-197 -122 -15 -10 -40 -25 -57 -34 -16 -9 -32 -20 -35 -24 -3 -4 -10 -9 -16
-11 -5 -2 -92 -56 -193 -119 -189 -119 -322 -194 -413 -231 -29 -11 -62 -25
-73 -31 -12 -5 -30 -11 -40 -12 -20 -3 -22 -29 -5 -51 4 -5 49 -93 101 -195
52 -102 96 -187 99 -190 3 -3 26 -45 51 -95 105 -202 141 -271 151 -282 6 -7
7 -13 3 -13 -5 0 -1 -8 7 -18 8 -9 22 -30 30 -47 17 -36 121 -232 177 -335 23
-41 51 -95 63 -120 13 -25 27 -48 33 -52 7 -5 7 -8 0 -8 -6 0 -6 -3 0 -8 6 -4
31 -45 55 -92 24 -47 52 -101 63 -120 11 -19 34 -62 52 -95 18 -33 49 -91 70
-130 41 -74 81 -149 138 -255 114 -213 151 -270 176 -270 6 0 11 -4 11 -8 0
-12 62 -32 101 -34 72 -2 137 25 181 77 21 24 238 421 238 434 0 5 3 11 8 13
7 3 16 18 79 138 18 36 48 92 66 125 18 33 56 103 84 155 28 52 67 124 87 160
20 36 45 84 56 108 11 23 24 42 30 42 5 0 10 6 10 13 0 14 120 133 170 168 47
33 89 57 123 72 15 6 27 15 27 20 0 4 5 5 10 2 6 -4 16 -2 23 3 7 6 32 15 57
22 25 7 52 14 60 17 8 3 65 6 125 9 61 2 169 6 240 10 72 3 177 7 235 9 112 3
335 12 515 20 146 7 178 12 239 39 56 25 103 67 118 105 11 31 8 122 -5 139
-5 6 -6 12 -2 12 5 0 0 9 -9 19 -10 11 -18 26 -20 34 -1 8 -9 26 -19 40 -9 15
-17 31 -17 37 0 5 -4 10 -10 10 -5 0 -10 5 -10 11 0 6 -24 54 -54 108 -75 136
-103 185 -149 271 -22 41 -53 98 -68 125 -15 28 -41 75 -57 105 -17 30 -46 84
-66 120 -20 36 -44 81 -54 100 -9 19 -19 37 -22 40 -3 3 -14 23 -25 45 -11 22
-23 42 -28 43 -4 2 -5 7 -2 12 3 4 -2 13 -10 20 -8 7 -15 16 -15 20 0 4 -32
65 -71 136 -72 129 -100 180 -180 329 -23 44 -46 82 -51 83 -4 2 -6 8 -2 13 3
5 0 9 -5 9 -6 0 -11 5 -11 11 0 6 -38 80 -85 164 -47 84 -85 158 -85 163 0 6
-3 12 -7 14 -5 2 -23 32 -42 68 -19 36 -42 77 -51 92 l-16 26 -84 -53z"/>
</g>
</svg>
