<?xml version="1.0" encoding="utf-8"?>
<!-- Generator: Adobe Illustrator 25.2.0, SVG Export Plug-In . SVG Version: 6.00 Build 0)  -->
<svg version="1.1" id="Layer_1" xmlns="http://www.w3.org/2000/svg" xmlns:xlink="http://www.w3.org/1999/xlink" x="0px"
  y="0px" viewBox="0 0 507 314" style="enable-background:new 0 0 507 314;" xml:space="preserve">
  <style type="text/css">
    .st0 {
      fill: #FFFFFF;
    }

    .st1 {
      opacity: 0.5;
    }

    .st2 {
      fill: #C4C4C4;
      filter: url(#Adobe_OpacityMaskFilter);
    }

    .st3 {
      mask: url(#mask0_598:22118_1_);
    }

    .st4 {
      fill: none;
      stroke: url(#SVGID_1_);
      stroke-width: 3;
    }

    .st5 {
      fill: none;
      stroke: url(#SVGID_2_);
      stroke-width: 3;
    }

    .st6 {
      fill: none;
      stroke: url(#SVGID_3_);
      stroke-width: 3;
    }

    .st7 {
      fill: url(#SVGID_4_);
    }

    .st8 {
      fill: none;
      stroke: url(#SVGID_5_);
      stroke-width: 4;
    }

    .st9 {
      fill: none;
      stroke: url(#SVGID_6_);
      stroke-width: 4;
    }

    .st10 {
      fill: none;
      stroke: url(#SVGID_7_);
      stroke-width: 4;
    }

    .st11 {
      fill: url(#SVGID_8_);
    }

    .st12 {
      fill: url(#SVGID_9_);
    }

    .st13 {
      fill: url(#SVGID_10_);
    }

    .st14 {
      fill: url(#SVGID_11_);
    }

    .st15 {
      fill: url(#SVGID_12_);
    }

    .st16 {
      fill: none;
      stroke: #FFD9D9;
    }

    .st17 {
      fill: url(#SVGID_13_);
    }

    .st18 {
      fill: url(#SVGID_14_);
    }

    .st19 {
      fill: url(#SVGID_15_);
    }

    .st20 {
      fill: #8689E3;
    }

    .st21 {
      fill: #515151;
    }

    .st22 {
      fill: #F278A4;
    }

    .st23 {
      fill: #E6EDFF;
      stroke: #FFFFFF;
      stroke-width: 6;
    }

    .st24 {
      fill: none;
      stroke: url(#SVGID_16_);
      stroke-width: 2;
    }

    .st25 {
      fill: none;
      stroke: url(#SVGID_17_);
      stroke-width: 2;
    }

    .st26 {
      fill: none;
      stroke: url(#SVGID_18_);
      stroke-width: 2;
    }

    .st27 {
      fill: #F8FAFF;
      filter: url(#Adobe_OpacityMaskFilter_1_);
    }

    .st28 {
      mask: url(#mask1_598:22118_1_);
    }

    .st29 {
      fill: #17457C;
    }

    .st30 {
      fill-rule: evenodd;
      clip-rule: evenodd;
      fill: url(#SVGID_19_);
    }

    .st31 {
      fill: none;
      stroke: url(#SVGID_20_);
      stroke-width: 3;
    }

    .st32 {
      fill: none;
      stroke: url(#SVGID_21_);
      stroke-width: 2;
    }

    .st33 {
      fill: none;
      stroke: url(#SVGID_22_);
      stroke-width: 2;
    }

    .st34 {
      fill: none;
      stroke: url(#SVGID_23_);
      stroke-width: 2;
    }

    .st35 {
      fill: #F8FAFF;
      filter: url(#Adobe_OpacityMaskFilter_2_);
    }

    .st36 {
      mask: url(#mask2_598:22118_1_);
    }

    .st37 {
      fill-rule: evenodd;
      clip-rule: evenodd;
      fill: url(#SVGID_24_);
    }

    .st38 {
      fill: none;
      stroke: url(#SVGID_25_);
      stroke-width: 3;
    }

    .st39 {
      fill: none;
      stroke: #17457C;
      stroke-width: 0.6;
      stroke-linecap: round;
      stroke-linejoin: round;
    }

    .st40 {
      fill: none;
      stroke: url(#SVGID_26_);
      stroke-width: 2;
    }

    .st41 {
      fill: none;
      stroke: url(#SVGID_27_);
      stroke-width: 2;
    }

    .st42 {
      fill: none;
      stroke: url(#SVGID_28_);
      stroke-width: 2;
    }

    .st43 {
      fill: #F8FAFF;
      filter: url(#Adobe_OpacityMaskFilter_3_);
    }

    .st44 {
      mask: url(#mask3_598:22118_1_);
    }

    .st45 {
      fill-rule: evenodd;
      clip-rule: evenodd;
      fill: url(#SVGID_29_);
    }

    .st46 {
      fill: none;
      stroke: url(#SVGID_30_);
      stroke-width: 3;
    }

    .st47 {
      fill: url(#SVGID_31_);
    }

    .st48 {
      fill-rule: evenodd;
      clip-rule: evenodd;
      fill: #17457C;
    }

    .st49 {
      fill: url(#SVGID_32_);
    }

    .st50 {
      fill: url(#SVGID_33_);
    }

    .st51 {
      fill: #C4C4C4;
      filter: url(#Adobe_OpacityMaskFilter_4_);
    }

    .st52 {
      mask: url(#mask4_598:22118_1_);
    }

    .st53 {
      fill: none;
      stroke: url(#SVGID_34_);
      stroke-width: 4;
    }

    .st54 {
      fill: none;
      stroke: url(#SVGID_35_);
      stroke-width: 4;
    }

    .st55 {
      fill: none;
      stroke: url(#SVGID_36_);
      stroke-width: 4;
    }
  </style>
  <path class="st0" d="M345.5,56.8c-1.5-0.6-3.1-1.7-4.3-3.2c-1.2-1.5-2.2-3.5-2.8-5.6l-0.7-2.5c-0.1-0.3-0.4-0.5-0.7-0.5
	c-0.3,0-0.6,0.2-0.7,0.5l-0.7,2.5c-0.6,2.2-1.6,4.1-2.8,5.6c-1.2,1.5-2.6,2.6-4.1,3.2c-0.3,0.1-0.5,0.4-0.5,0.7
	c0,0.3,0.2,0.6,0.5,0.7l0.2,0.1c3,1.3,5.4,4.4,6.7,8.6l0.8,2.6c0.1,0.3,0.4,0.5,0.7,0.5c0.3,0,0.6-0.2,0.7-0.5l0.8-2.6
	c1.3-4.2,3.9-7.3,6.9-8.6l0.2-0.1c0.3-0.1,0.5-0.4,0.5-0.7C346,57.2,345.8,56.9,345.5,56.8z" />
  <g class="st1">
    <defs>
      <filter id="Adobe_OpacityMaskFilter" filterUnits="userSpaceOnUse" x="422.6" y="-68.5" width="125.3" height="163">
        <feColorMatrix type="matrix" values="1 0 0 0 0  0 1 0 0 0  0 0 1 0 0  0 0 0 1 0" />
      </filter>
    </defs>
    <mask maskUnits="userSpaceOnUse" x="422.6" y="-68.5" width="125.3" height="163" id="mask0_598:22118_1_">
      <rect x="401" class="st2" width="106" height="117.1" />
    </mask>
    <g class="st3">

      <linearGradient id="SVGID_1_" gradientUnits="userSpaceOnUse" x1="498.7385" y1="306.8727" x2="411.2405"
        y2="281.6962" gradientTransform="matrix(1 0 0 -1 0 316)">
        <stop offset="0" style="stop-color:#FDEEC4" />
        <stop offset="0.8839" style="stop-color:#FFFFFF" />
      </linearGradient>
      <path class="st4" d="M438-28c-0.5-5.9,1-11.7,4.2-15.8v0c3.1-4.1,7.3-5.9,11.5-5.3l0,0c8.1,1.2,15.7-3,20.5-11v0
			c2.8-4.6,6.8-7,11-7c4.2,0,8.3,2.5,11,7v0c4.8,7.9,12.5,12.2,20.5,11v0c4.2-0.6,8.4,1.2,11.5,5.3l0,0c3.2,4.1,4.7,9.9,4.2,15.8
			c-0.9,9.9,2.2,19.6,8.3,26c3.5,3.6,5.5,9,5.5,15c0,6-2.1,11.4-5.5,15c-6.1,6.3-9.2,16.1-8.3,26c0.5,5.9-1,11.7-4.2,15.8v0
			c-3.1,4.1-7.3,5.9-11.5,5.3l0,0c-8.1-1.2-15.7,3-20.5,11v0c-2.8,4.6-6.8,7-11,7s-8.3-2.5-11-7v0c-4.8-7.9-12.5-12.2-20.5-11l0,0
			c-4.2,0.6-8.4-1.2-11.5-5.3l-1.2,0.9l1.2-0.9c-3.2-4.1-4.7-9.9-4.2-15.8c0.9-9.9-2.2-19.6-8.3-26c-3.5-3.6-5.5-9-5.5-15
			c0-6,2.1-11.4,5.5-15C435.8-8.3,438.9-18.1,438-28z M438-28l-1.5,0.1L438-28z" />

      <linearGradient id="SVGID_2_" gradientUnits="userSpaceOnUse" x1="497.8981" y1="307.9217" x2="431.8861"
        y2="282.1729" gradientTransform="matrix(1 0 0 -1 0 316)">
        <stop offset="0" style="stop-color:#FDEEC4" />
        <stop offset="0.8839" style="stop-color:#FFFFFF" />
      </linearGradient>
      <path class="st5" d="M447.7-19.8c-0.4-4.7,0.8-9.2,3.3-12.4l0,0c2.5-3.2,5.7-4.6,8.9-4.1l0,0c6.6,1,12.8-2.5,16.7-8.9v0
			c2.2-3.6,5.3-5.5,8.6-5.5c3.2,0,6.4,1.9,8.6,5.5v0c3.9,6.4,10.1,9.9,16.7,8.9l0,0c3.2-0.5,6.5,0.9,8.9,4.1l0,0
			c2.5,3.2,3.7,7.7,3.3,12.4c-0.7,8,1.7,15.9,6.7,21c2.7,2.8,4.3,7.1,4.3,11.8c0,4.7-1.6,9-4.3,11.8c-5,5.1-7.4,13-6.7,21
			c0.4,4.7-0.8,9.2-3.3,12.4v0c-2.5,3.2-5.7,4.6-8.9,4.1l0,0c-6.6-1-12.8,2.5-16.7,8.9v0c-2.2,3.6-5.3,5.5-8.6,5.5
			c-3.2,0-6.4-1.9-8.6-5.5v0c-3.9-6.4-10.1-9.9-16.7-8.9l0,0c-3.2,0.5-6.5-0.9-8.9-4.1v0c-2.5-3.2-3.7-7.7-3.3-12.4
			c0.7-8-1.7-15.9-6.7-21c-2.7-2.8-4.3-7.1-4.3-11.8c0-4.7,1.6-9,4.3-11.8C446-3.9,448.4-11.8,447.7-19.8z M447.7-19.8l-1.5,0.1
			L447.7-19.8z" />

      <linearGradient id="SVGID_3_" gradientUnits="userSpaceOnUse" x1="493.6664" y1="303.4853" x2="436.6085"
        y2="300.1998" gradientTransform="matrix(1 0 0 -1 0 316)">
        <stop offset="0" style="stop-color:#FDEEC4" />
        <stop offset="0.8839" style="stop-color:#FFFFFF" />
      </linearGradient>
      <path class="st6" d="M509.4-19L509.4-19c-1.7-2.2-3.9-3.1-6-2.8v0c-4.9,0.7-9.5-1.9-12.4-6.6v0c-1.5-2.5-3.6-3.7-5.8-3.7
			c-2.1,0-4.3,1.2-5.8,3.7l0,0c-2.9,4.7-7.5,7.3-12.4,6.6l0,0c-2.1-0.3-4.3,0.6-6,2.8v0c-1.7,2.2-2.6,5.3-2.3,8.6L509.4-19z
			 M509.4-19c1.7,2.2,2.6,5.3,2.3,8.6c-0.5,5.8,1.3,11.6,4.9,15.3c1.8,1.9,3,4.9,3,8.1c0,3.3-1.1,6.2-3,8.1
			c-3.7,3.8-5.4,9.5-4.9,15.3c0.3,3.2-0.6,6.4-2.3,8.6v0c-1.7,2.2-3.9,3.1-6,2.8l0,0c-4.9-0.7-9.5,1.9-12.4,6.6v0
			c-1.5,2.5-3.6,3.7-5.8,3.7c-2.1,0-4.3-1.2-5.8-3.7v0c-2.9-4.7-7.5-7.3-12.4-6.6v0c-2.1,0.3-4.3-0.6-6-2.8v0 M509.4-19L461.2,45
			 M461.2,45c-1.7-2.2-2.6-5.3-2.3-8.6c0.5-5.8-1.3-11.6-4.9-15.3c-1.8-1.9-3-4.9-3-8.1c0-3.3,1.1-6.2,3-8.1 M461.2,45L454,4.9
			 M454,4.9c3.7-3.8,5.4-9.5,4.9-15.3L454,4.9z" />
    </g>
  </g>
  <linearGradient id="SVGID_4_" gradientUnits="userSpaceOnUse" x1="278.2988" y1="234.1689" x2="98.6225" y2="11.9615"
    gradientTransform="matrix(1 0 0 -1 0 316)">
    <stop offset="0" style="stop-color:#DDE4FF" />
    <stop offset="0.8839" style="stop-color:#FFFFFF" />
  </linearGradient>
  <rect y="2" class="st7" width="507" height="221" />
  <linearGradient id="SVGID_5_" gradientUnits="userSpaceOnUse" x1="154.8032" y1="228.1918" x2="49.1151" y2="185.0213"
    gradientTransform="matrix(1 0 0 -1 0 316)">
    <stop offset="0" style="stop-color:#DBEFFF" />
    <stop offset="1" style="stop-color:#FFFFFF" />
  </linearGradient>
  <path class="st8" d="M77.4,133.8c1.1-9.9-2.9-19.6-10.7-25.8c-4.3-3.4-6.8-8.5-6.8-14c0-5.5,2.5-10.6,6.8-14
	c7.8-6.2,11.8-15.9,10.7-25.8c-0.6-5.4,1.2-10.8,5.1-14.7l0,0c3.9-3.9,9.2-5.7,14.7-5.1l0,0c9.9,1.1,19.6-2.9,25.8-10.7l0,0
	c3.4-4.3,8.5-6.8,14-6.8s10.6,2.5,14,6.8v0c6.2,7.8,15.9,11.8,25.8,10.7l0,0c5.4-0.6,10.8,1.2,14.7,5.1l0,0
	c3.9,3.9,5.7,9.2,5.1,14.7c-1.1,9.9,2.9,19.6,10.7,25.8c4.3,3.4,6.8,8.5,6.8,14c0,5.5-2.5,10.6-6.8,14c-7.8,6.2-11.8,15.9-10.7,25.8
	c0.6,5.4-1.2,10.8-5.1,14.7l0,0c-3.9,3.9-9.2,5.7-14.7,5.1c-9.9-1.1-19.6,2.9-25.8,10.7l0,0c-3.4,4.3-8.5,6.8-14,6.8
	c-5.5,0-10.6-2.5-14-6.8l0,0c-6.2-7.8-15.9-11.8-25.8-10.7h0c-5.4,0.6-10.8-1.2-14.7-5.1h0C78.7,144.6,76.8,139.2,77.4,133.8z
	 M77.4,133.8l-2-0.2 M77.4,133.8l-2-0.2 M121.5,165.5c3.8,4.8,9.5,7.5,15.5,7.5 M121.5,165.5L137,173 M137,173
	c6.1,0,11.8-2.7,15.5-7.5L137,173z" />
  <linearGradient id="SVGID_6_" gradientUnits="userSpaceOnUse" x1="150.4832" y1="227.8208" x2="41.4096" y2="180.7338"
    gradientTransform="matrix(1 0 0 -1 0 316)">
    <stop offset="0" style="stop-color:#DDF0FF" />
    <stop offset="0.7146" style="stop-color:#FFFFFF" />
  </linearGradient>
  <path class="st9" d="M180.3,50.7L180.3,50.7c-3-3-7.2-4.5-11.4-4l0,0c-8.1,0.9-15.9-2.3-21-8.7v0c-2.6-3.3-6.6-5.3-10.9-5.3
	s-8.2,1.9-10.9,5.3v0c-5.1,6.4-12.9,9.6-21,8.7l0,0c-4.2-0.5-8.4,1-11.4,4l0,0c-3,3-4.5,7.2-4,11.4 M180.3,50.7c3,3,4.5,7.2,4,11.4
	c-0.9,8.1,2.3,16,8.7,21c3.3,2.7,5.3,6.6,5.3,10.9c0,4.3-1.9,8.2-5.2,10.9c-6.4,5.1-9.6,12.9-8.7,21c0.5,4.2-1,8.4-4,11.4h0
	c-3,3-7.2,4.5-11.4,4l0,0c-8.1-0.9-15.9,2.3-21,8.7l0,0c-2.6,3.3-6.6,5.2-10.9,5.2s-8.2-1.9-10.9-5.2v0c-5.1-6.4-12.9-9.6-21-8.7h0
	c-4.2,0.5-8.4-1-11.4-4h0 M93.7,137.3c-3-3-4.5-7.2-4-11.4 M81,83.1c-3.3,2.7-5.2,6.6-5.2,10.9s1.9,8.2,5.3,10.9
	c6.4,5.1,9.6,12.9,8.7,21 M89.8,125.9l-2-0.2 M89.8,125.9l-2-0.2 M81,83.1c6.4-5.1,9.6-12.9,8.7-21" />
  <linearGradient id="SVGID_7_" gradientUnits="userSpaceOnUse" x1="145.2809" y1="226.4646" x2="83.0685" y2="192.9275"
    gradientTransform="matrix(1 0 0 -1 0 316)">
    <stop offset="0" style="stop-color:#DDF0FF" />
    <stop offset="0.8839" style="stop-color:#FFFFFF" />
  </linearGradient>
  <path class="st10" d="M167.5,63.5L167.5,63.5c-2-2-4.8-3-7.7-2.7v0c-6,0.7-11.8-1.7-15.5-6.4v0c-1.8-2.2-4.4-3.5-7.3-3.5
	c-2.9,0-5.5,1.3-7.3,3.5v0c-3.7,4.7-9.5,7.1-15.5,6.4l0,0c-2.9-0.3-5.6,0.6-7.7,2.7v0c-2,2-3,4.8-2.7,7.7 M167.5,63.5
	c2,2,3,4.8,2.7,7.7c-0.7,6,1.7,11.8,6.4,15.5c2.2,1.8,3.5,4.4,3.5,7.3c0,2.9-1.3,5.5-3.5,7.3c-4.7,3.7-7.1,9.5-6.4,15.5
	c0.3,2.9-0.6,5.6-2.7,7.7l0,0c-2,2-4.8,3-7.7,2.7l0,0c-6-0.7-11.8,1.7-15.5,6.4v0c-1.8,2.2-4.4,3.5-7.3,3.5c-2.9,0-5.5-1.3-7.3-3.5
	l0,0c-3.7-4.7-9.5-7.1-15.5-6.4l0,0c-2.8,0.3-5.6-0.6-7.7-2.7l0,0 M106.5,124.5 M167.5,63.5 M106.5,124.5c-2-2-3-4.8-2.7-7.7
	c0.7-6-1.7-11.8-6.4-15.5c-2.2-1.8-3.5-4.4-3.5-7.3c0-2.9,1.3-5.5,3.5-7.3 M97.4,86.7c4.7-3.7,7.1-9.5,6.4-15.5" />
  <linearGradient id="SVGID_8_" gradientUnits="userSpaceOnUse" x1="347.2248" y1="6.5829" x2="173.6208" y2="48.7809"
    gradientTransform="matrix(1 0 0 -1 0 316)">
    <stop offset="0" style="stop-color:#6A5C8B" />
    <stop offset="1" style="stop-color:#7C74A0;stop-opacity:0" />
  </linearGradient>
  <rect x="221" y="272" class="st11" width="68" height="30" />
  <linearGradient id="SVGID_9_" gradientUnits="userSpaceOnUse" x1="296.672" y1="-47.2471" x2="171.612" y2="105.1599"
    gradientTransform="matrix(1 0 0 -1 0 316)">
    <stop offset="0" style="stop-color:#6A5C8B" />
    <stop offset="1" style="stop-color:#7C74A0;stop-opacity:0" />
  </linearGradient>
  <path class="st12" d="M196,314c0-6.6,5.4-12,12-12h93c6.6,0,12,5.4,12,12H196z" />
  <linearGradient id="SVGID_10_" gradientUnits="userSpaceOnUse" x1="340.841" y1="157.9925" x2="726.8409" y2="106.9925"
    gradientTransform="matrix(-1 0 0 1 784 44)">
    <stop offset="0" style="stop-color:#6A5C8B" />
    <stop offset="1" style="stop-color:#7C74A0;stop-opacity:0" />
  </linearGradient>
  <path class="st13"
    d="M382,272H126c-3.3,0-6-2.7-6-6V88c0-3.3,2.7-6,6-6h256c3.3,0,6,2.7,6,6v178C388,269.3,385.3,272,382,272z" />
  <path class="st0"
    d="M131,90h245.9c1.1,0,2,0.9,2,2v162.6c0,1.1-0.9,2-2,2H131c-1.1,0-2-0.9-2-2V92C129,90.9,129.9,90,131,90z" />
  <radialGradient id="SVGID_11_" cx="3.7686" cy="407.403" r="1"
    gradientTransform="matrix(112.5254 -29.0749 -36.9041 -142.8263 14752.0205 58554.0469)"
    gradientUnits="userSpaceOnUse">
    <stop offset="0" style="stop-color:#E6B6EA;stop-opacity:0.61" />
    <stop offset="1" style="stop-color:#E6B6EA;stop-opacity:0" />
  </radialGradient>
  <path class="st14"
    d="M131,90h245.9c1.1,0,2,0.9,2,2v162.6c0,1.1-0.9,2-2,2H131c-1.1,0-2-0.9-2-2V92C129,90.9,129.9,90,131,90z" />
  <radialGradient id="SVGID_12_" cx="4.6742" cy="408.3536" r="1"
    gradientTransform="matrix(-68.9912 85.6904 120.2417 96.8092 -48414.0391 -39807.2188)"
    gradientUnits="userSpaceOnUse">
    <stop offset="0" style="stop-color:#386FCE;stop-opacity:0.46" />
    <stop offset="0.7604" style="stop-color:#386FCE;stop-opacity:7.000000e-02" />
    <stop offset="1" style="stop-color:#386FCE;stop-opacity:0" />
  </radialGradient>
  <path class="st15" d="M376.9,256.6H131c-1.1,0-2-0.9-2-2V92c0-1.1,0.9-2,2-2h245.9c1.1,0,2,0.9,2,2v162.6
	C378.9,255.7,378,256.6,376.9,256.6z" />
  <path class="st16" d="M381,251.5H134c-0.8,0-1.5-0.7-1.5-1.5V87c0-0.8,0.7-1.5,1.5-1.5h247c0.8,0,1.5,0.7,1.5,1.5v163
	C382.5,250.8,381.8,251.5,381,251.5z" />
  <linearGradient id="SVGID_13_" gradientUnits="userSpaceOnUse" x1="276.8319" y1="205.4924" x2="233.0879" y2="95.8274"
    gradientTransform="matrix(1 0 0 -1 0 316)">
    <stop offset="0" style="stop-color:#686DD5;stop-opacity:0.47" />
    <stop offset="1" style="stop-color:#8589E3;stop-opacity:0" />
  </linearGradient>
  <rect x="162" y="124" class="st17" width="183" height="90" />
  <linearGradient id="SVGID_14_" gradientUnits="userSpaceOnUse" x1="242.3418" y1="66.7842" x2="265.1108" y2="37.6363"
    gradientTransform="matrix(1 0 0 -1 0 316)">
    <stop offset="0" style="stop-color:#6A5C8B" />
    <stop offset="1" style="stop-color:#7C74A0;stop-opacity:0" />
  </linearGradient>
  <path class="st18" d="M234.5,262h38c0.8,0,1.5,0.7,1.5,1.5l0,0c0,0.8-0.7,1.5-1.5,1.5h-38c-0.8,0-1.5-0.7-1.5-1.5l0,0
	C233,262.7,233.7,262,234.5,262z" />
  <linearGradient id="SVGID_15_" gradientUnits="userSpaceOnUse" x1="327.8461" y1="-4.4137" x2="231.0441" y2="49.2903"
    gradientTransform="matrix(1 0 0 -1 0 316)">
    <stop offset="0" style="stop-color:#6A5C8B" />
    <stop offset="1" style="stop-color:#7C74A0;stop-opacity:0" />
  </linearGradient>
  <path class="st19" d="M221,272v16l68-8v-8H221z" />
  <rect x="218.1" y="171" class="st20" width="114.9" height="4.3" />
  <rect x="218.1" y="180.6" class="st21" width="51.7" height="4.3" />
  <rect x="218.1" y="190.3" class="st21" width="17.2" height="4.3" />
  <rect x="315.8" y="199.9" class="st21" width="17.2" height="4.3" />
  <rect x="239.9" y="190.3" class="st21" width="44.8" height="4.3" />
  <rect x="266.4" y="199.9" class="st22" width="44.8" height="4.3" />
  <rect x="289.3" y="190.3" class="st21" width="43.7" height="4.3" />
  <rect x="218.1" y="199.9" class="st21" width="43.7" height="4.3" />
  <circle class="st23" cx="182.5" cy="78.5" r="27.5" />
  <g>

    <linearGradient id="SVGID_16_" gradientUnits="userSpaceOnUse" x1="187.0118" y1="262.6422" x2="150.4714"
      y2="278.4165" gradientTransform="matrix(1 0 0 1 0 -186)">
      <stop offset="0" style="stop-color:#D2DCF7" />
      <stop offset="0.474" style="stop-color:#FFFFFF" />
    </linearGradient>
    <path class="st24" d="M196.9,64.2L196.9,64.2c-0.9-0.9-2.2-1.4-3.6-1.2l0,0c-2.8,0.3-5.6-0.8-7.4-3.1l0,0c-0.8-1-2.1-1.6-3.4-1.6
		c-1.3,0-2.6,0.6-3.4,1.6l0,0c-1.8,2.2-4.5,3.4-7.4,3.1l0,0c-1.3-0.2-2.6,0.3-3.6,1.2l0,0c-0.9,0.9-1.4,2.2-1.2,3.6 M196.9,64.2
		c0.9,0.9,1.4,2.2,1.2,3.6c-0.3,2.8,0.8,5.6,3.1,7.4c1,0.8,1.6,2.1,1.6,3.4s-0.6,2.6-1.6,3.4c-2.2,1.8-3.4,4.5-3.1,7.4
		c0.2,1.3-0.3,2.6-1.2,3.6l0,0c-0.9,0.9-2.2,1.4-3.6,1.2l0,0c-2.8-0.3-5.6,0.8-7.4,3.1l0,0c-0.8,1-2.1,1.6-3.4,1.6
		c-1.3,0-2.6-0.6-3.4-1.6l0,0c-1.8-2.2-4.5-3.4-7.4-3.1l0,0c-1.3,0.2-2.6-0.3-3.6-1.2l0,0 M168.2,92.9c-0.9-0.9-1.4-2.2-1.2-3.6
		 M167,89.3c0.3-2.8-0.8-5.6-3.1-7.4c-1-0.8-1.6-2.1-1.6-3.4s0.6-2.6,1.6-3.4 M163.9,75.1c2.2-1.8,3.4-4.5,3.1-7.4" />

    <linearGradient id="SVGID_17_" gradientUnits="userSpaceOnUse" x1="186.334" y1="262.8906" x2="157.4141" y2="275.3752"
      gradientTransform="matrix(1 0 0 1 0 -186)">
      <stop offset="0" style="stop-color:#D2DCF7" />
      <stop offset="0.474" style="stop-color:#FFFFFF" />
    </linearGradient>
    <path class="st25"
      d="M193.9,67.2L193.9,67.2c-0.7-0.7-1.7-1.1-2.7-0.9l0,0c-2.3,0.3-4.6-0.7-6.1-2.5l0,0c-0.6-0.8-1.6-1.2-2.6-1.2
		s-1.9,0.5-2.6,1.2l0,0c-1.5,1.8-3.7,2.8-6.1,2.5l0,0c-1-0.1-2,0.2-2.7,0.9l0,0c-0.7,0.7-1.1,1.7-0.9,2.7c0.3,2.3-0.7,4.6-2.5,6.1
		c-0.8,0.6-1.2,1.6-1.2,2.6s0.5,1.9,1.2,2.6 M193.9,67.2c0.7,0.7,1.1,1.7,0.9,2.7 M171.2,89.9L171.2,89.9c0.7,0.7,1.7,1.1,2.7,0.9
		l0,0c2.3-0.3,4.6,0.7,6.1,2.5l0,0c0.6,0.8,1.6,1.2,2.6,1.2s1.9-0.5,2.6-1.2l0,0c1.5-1.8,3.7-2.8,6.1-2.5l0,0c1,0.1,2-0.2,2.7-0.9
		l0,0c0.7-0.7,1.1-1.7,0.9-2.7 M171.2,89.9c-0.4-0.4-0.6-0.8-0.8-1.2c-0.2-0.5-0.2-1-0.2-1.5 M194.8,69.9c-0.3,2.3,0.7,4.6,2.5,6.1
		 M197.4,76c0.8,0.6,1.2,1.6,1.2,2.6s-0.5,1.9-1.2,2.6 M197.4,81.1c-1.8,1.5-2.8,3.7-2.5,6.1 M170.3,87.2c0.3-2.3-0.7-4.6-2.5-6.1" />

    <linearGradient id="SVGID_18_" gradientUnits="userSpaceOnUse" x1="185.0794" y1="263.5038" x2="165.4292" y2="271.987"
      gradientTransform="matrix(1 0 0 1 0 -186)">
      <stop offset="0" style="stop-color:#D2DCF7" />
      <stop offset="0.474" style="stop-color:#FFFFFF" />
    </linearGradient>
    <path class="st26" d="M190.5,70.7L190.5,70.7c-0.4-0.4-1.1-0.7-1.7-0.6l0,0c-1.8,0.2-3.5-0.5-4.6-1.9l0,0c-0.4-0.5-1-0.8-1.6-0.8
		s-1.2,0.3-1.6,0.8l0,0c-1.1,1.4-2.8,2.1-4.6,1.9l0,0c-0.6-0.1-1.2,0.1-1.7,0.6l0,0c-0.4,0.4-0.7,1.1-0.6,1.7 M190.5,70.7
		c0.4,0.4,0.7,1.1,0.6,1.7 M174.7,86.5L174.7,86.5c0.4,0.4,1.1,0.7,1.7,0.6l0,0c1.8-0.2,3.5,0.5,4.6,1.9l0,0c0.4,0.5,1,0.8,1.6,0.8
		s1.2-0.3,1.6-0.8l0,0c1.1-1.4,2.8-2.1,4.6-1.9l0,0c0.6,0.1,1.2-0.1,1.7-0.6l0,0c0.4-0.4,0.7-1.1,0.6-1.7 M174.7,86.5
		c-0.2-0.2-0.4-0.5-0.5-0.9c-0.1-0.3-0.1-0.5-0.1-0.8 M191,72.3c-0.2,1.8,0.5,3.5,1.9,4.6 M192.9,76.9c0.5,0.4,0.8,1,0.8,1.6
		s-0.3,1.2-0.8,1.6 M172.2,80.2c-0.5-0.4-0.8-1-0.8-1.6s0.3-1.2,0.8-1.6 M172.2,76.9c1.4-1.1,2.1-2.8,1.9-4.6 M174.1,84.8
		c0.2-1.8-0.5-3.5-1.9-4.6 M192.9,80.2c-1.4,1.1-2.1,2.8-1.9,4.6" />
  </g>
  <defs>
    <filter id="Adobe_OpacityMaskFilter_1_" filterUnits="userSpaceOnUse" x="130.3" y="63.6" width="84.5" height="86.8">
      <feColorMatrix type="matrix" values="1 0 0 0 0  0 1 0 0 0  0 0 1 0 0  0 0 0 1 0" />
    </filter>
  </defs>
  <mask maskUnits="userSpaceOnUse" x="130.3" y="63.6" width="84.5" height="86.8" id="mask1_598:22118_1_">
    <circle class="st27" cx="182.5" cy="78.5" r="30.5" />
  </mask>
  <g class="st28">
    <path class="st29" d="M137.8,117.8c-0.4-0.1-0.6-0.4-0.7-0.6c-0.6-1.2,0.7-2.2,1.6-2.9c0.3-0.2,0.6-0.5,0.8-0.6l-0.1-0.9
		c-0.8,0.1-2.1,0.8-3.4,1.3c-2.4,1.1-4.7,2.2-5.5,0.9c-0.9-1.7,1.5-3.5,2.6-4.2c-0.6-1.1-0.2-2.3,0-2.8c-0.2-0.3-0.4-1-0.2-1.9
		c0.4-1.2,1.4-2.2,3.2-3c1.8-0.8,4.9-0.9,8.5-1c6.5-0.1,14.6-0.3,20-4.6c0.7-0.5,1.6-1.5,2.8-2.6c4.4-4.4,11.8-11.9,20.8-12.1l0.4,0
		l1.2,9.1l-0.1,0.1c-0.6,0.6-14.1,15.5-21.6,19.7c-5,2.8-10.3,2.4-14.1,2.2c-1.9-0.1-3.5-0.2-4.2,0.1c-1.4,0.7-2.5,0.7-3.5,0.8
		c-0.8,0.1-1.4,0.1-1.9,0.4C144.3,115.5,139.7,118.3,137.8,117.8C137.9,117.9,137.8,117.8,137.8,117.8z M140.2,112.1l0.2,1.9l0,0.1
		c-0.1,0.3-0.6,0.6-1,1c-0.9,0.7-1.6,1.3-1.4,1.9c0,0,0,0.1,0.2,0.1c1.1,0.3,4.3-1.3,5.8-2.3c0.7-0.4,1.5-0.5,2.3-0.6
		c0.9-0.1,2-0.1,3.1-0.7c1-0.5,2.5-0.4,4.7-0.2c3.8,0.3,8.9,0.6,13.6-2.1c7-3.9,19.8-17.8,21.2-19.4l-1-8
		c-8.5,0.4-15.6,7.5-19.8,11.8c-1.2,1.2-2.1,2.1-2.8,2.7c-5.6,4.5-13.9,4.7-20.5,4.8c-3.5,0.1-6.6,0.2-8.2,0.9
		c-1.5,0.7-2.5,1.5-2.7,2.4c-0.2,0.8,0.2,1.5,0.2,1.5l0.2,0.2l-0.1,0.2c0,0-0.8,1.5,0,2.4l0.3,0.4l-0.4,0.3
		c-0.9,0.5-3.3,2.2-2.7,3.3c0.4,0.7,2.8-0.5,4.4-1.2c1.6-0.8,3.2-1.5,4.1-1.4L140.2,112.1z" />
    <path class="st29" d="M203.1,150c-0.4-0.1-0.8-0.3-1-0.8c-0.7-1-0.4-3.2-0.1-5.2l-0.1,0c-0.3,0.8-1.3,3-2.7,3.5
		c-0.5,0.1-1,0-1.4-0.3c-0.2-0.1-0.4-0.5-0.4-1.7c0.1-2,1.1-7.4,5.1-9.9c0.2-12-0.5-20.5-2.3-25.4c-3.4-9.2-12.3-27-12.3-27.1
		l-0.3-0.6l0.7,0c14.5-0.2,24.6,15.9,26,31.7c1.8,20.2,0.9,32-2.7,35.2c-0.9,0.7-1.9,1-3,0.8c-0.4,0.1-2,0.4-3.2-0.4
		C204.4,150,203.7,150.2,203.1,150z M202.8,143l-0.1,0.9c-0.2,1.7-0.6,4.1,0,4.9c0.7,1,2.1,0.2,2.1,0.2l0.3-0.1l0.2,0.2
		c1.1,1,2.8,0.4,2.8,0.4l0.1,0l0.1,0c0.9,0.2,1.7,0,2.4-0.6c2.3-2,4.6-9.7,2.4-34.4c-1.3-15.2-10.8-30.6-24.5-30.9
		c1.6,3.2,9,18.3,12.1,26.6c1.8,5,2.6,13.7,2.4,25.9l0,0.2l-0.2,0.1c-4.3,2.5-5.2,9.4-4.8,10.4c0.3,0.1,0.4,0.2,0.7,0.1
		c1-0.3,2-2.5,2.2-3.2l0.1-0.2L202.8,143z" />

    <linearGradient id="SVGID_19_" gradientUnits="userSpaceOnUse" x1="193.8231" y1="232.5754" x2="181.2401"
      y2="190.5361" gradientTransform="matrix(1 0 0 -1 0 316)">
      <stop offset="0" style="stop-color:#5F5FFF" />
      <stop offset="1" style="stop-color:#C2DBFF" />
    </linearGradient>
    <path class="st30" d="M204.1,105.5c1.6,10.3,1.1,20.4,1.1,21.2l0,0.5l-37.1-5.6l0.1-0.5l0,0c0.1-0.3,1.4-4.3,4.1-16.2
		c0,0,0,0-0.1-0.1c-0.9-1.1-1.8-2.2-2.7-3.4v0c-1.2-1.6-2.5-3.2-3.9-4.7l-0.3-0.3l0.3-0.3c0.2-0.2,0.4-0.4,0.6-0.7l0,0
		c0.2-0.2,0.5-0.5,0.8-0.8l0.1-0.1c3.6-3.6,9-9.1,15.7-11.1c1.6-0.6,3.2-0.8,4.9-0.9l0,0c0,0,0,0,0,0c0.4,0,0.8,0,1.2,0
		c9.2,0.4,17.6,7.8,22,19.5l0.1,0.4l-0.3,0.2l0,0c-0.5,0.2-0.9,0.4-1.5,0.6C207.7,104.1,205.9,104.8,204.1,105.5z" />
    <path class="st29" d="M173,103.6c-0.2-0.1-0.3-0.3-0.3-0.5l2.4-9.2c0.1-0.2,0.3-0.4,0.5-0.3c0.2,0.1,0.4,0.3,0.3,0.5l-2.4,9.2
		C173.5,103.5,173.3,103.6,173,103.6C173.1,103.6,173,103.6,173,103.6z" />
    <path class="st29" d="M197.9,105c-0.1,0-0.3-0.1-0.3-0.3c-1.7-4.6-2.4-6.8-2.4-6.8c-0.1-0.2,0-0.5,0.3-0.5c0.2-0.1,0.5,0,0.5,0.3
		c0,0,0.7,2.2,2.4,6.8c0.1,0.2,0,0.5-0.2,0.6C198.1,104.9,198,105,197.9,105z" />
    <path class="st0" d="M192.4,76c0.7-1.8-0.5-3.7-3-3.6c-0.4,0-0.7,0.1-1.1,0.2c0,0,0,0,0-0.1c-1.5-4.2-5.7-6.6-9.5-5.3
		c-3.8,1.3-5,5.6-4.2,10c0.7,4,4.3,7.5,9.5,5.3c1.7-0.8,3.1-2.1,3.9-3.8C190.1,79,191.8,77.6,192.4,76z" />
    <path class="st29" d="M178.4,83.2c-0.2-0.1-0.3-0.1-0.4-0.2c-2-1.1-3.3-3.2-3.8-5.6c-0.9-5.1,0.9-9.2,4.5-10.4
		c3.9-1.4,8.3,1,9.9,5.2c0.3-0.1,0.6-0.1,0.8-0.1c1.3-0.1,2.4,0.4,3.1,1.3c0.6,0.8,0.7,1.8,0.3,2.8c-0.6,1.5-2.3,3.1-4.6,3
		c-0.9,1.7-2.3,3-4,3.8C181.7,84.2,179.7,83.8,178.4,83.2z M183.7,68c-1.5-0.7-3.1-0.8-4.7-0.3c-3.9,1.4-4.6,5.9-4,9.5
		c0.4,2.3,1.6,4.1,3.4,5c1.6,0.9,3.5,0.9,5.5,0c1.6-0.7,2.9-2,3.7-3.6l0.1-0.3l0.3,0c1.9,0.2,3.4-1.1,4-2.5c0.3-0.7,0.2-1.4-0.2-2
		c-0.5-0.7-1.4-1-2.4-1c-0.3,0-0.6,0.1-1.1,0.2l-0.4,0.1l-0.1-0.4C187.2,70.6,185.6,68.9,183.7,68z" />
    <path class="st29" d="M180.5,75.9c0.2-0.2,0.3-0.6,0-0.8c-0.2-0.2-0.6-0.3-0.8,0c-0.2,0.2-0.3,0.6,0,0.8
		C179.9,76.1,180.2,76.1,180.5,75.9z" />
    <path class="st29" d="M177,79.1c-0.2-1.2-0.3-2.5-0.2-3.7c0-0.4,0.6-0.3,0.5,0c-0.1,1.2,0,2.4,0.2,3.6
		C177.7,79.3,177.1,79.4,177,79.1z" />
    <path class="st29" d="M176.3,71.3c1.8,0.1,8.3-1.8,8.7,1.9c0.1,1-0.2,1.6,0.8,1.8c1,0,1.3-1.1,1.3-1.1c1-0.6,1.6-1.4,2.4-1.4
		c3.2-2.1,0.3-7.8-3.2-6.8c0,0-5-3.9-8.2-1.1c-3.4-0.1-5.5,1.6-5.8,4C171.7,72.6,176.3,71.3,176.3,71.3z" />
    <path class="st29" d="M187.5,76c0.5-1.2,1.7-2,3.1-1.8c0.4,0,0.3,0.6,0,0.5c-1-0.2-2.1,0.4-2.5,1.4C187.9,76.5,187.4,76.3,187.5,76
		z" />
  </g>
  <linearGradient id="SVGID_20_" gradientUnits="userSpaceOnUse" x1="139.0747" y1="241.5677" x2="227.6887" y2="233.2672"
    gradientTransform="matrix(1 0 0 -1 0 316)">
    <stop offset="0" style="stop-color:#D1D5F9" />
    <stop offset="1" style="stop-color:#7EA0F7;stop-opacity:0" />
  </linearGradient>
  <circle class="st31" cx="182.5" cy="78.5" r="29" />
  <circle class="st0" cx="174.5" cy="75.8" r="1.9" />
  <path class="st29"
    d="M175,76.5c0.2-0.2,0.2-0.6,0-0.8s-0.6-0.3-0.8,0c-0.2,0.2-0.2,0.6,0,0.8C174.4,76.7,174.8,76.7,175,76.5z" />
  <path class="st29" d="M178.8,75.5c0,0.2-0.1,0.3-0.2,0.3c-0.2,0-0.3-0.1-0.3-0.2L178.8,75.5z M176.9,75.7c0,0.2-0.1,0.3-0.2,0.3
	c-0.2,0-0.3-0.1-0.3-0.2L176.9,75.7z M182.2,75.2c-0.2,0.1-0.3,0-0.4-0.2c-0.1-0.2,0-0.3,0.2-0.4L182.2,75.2z M186.7,73.4
	c0.2,0,0.3,0.1,0.3,0.3s-0.1,0.3-0.3,0.3V73.4z M178.8,75.4c0.2,1,1,1.6,1.8,1.5l0.1,0.6c-1.2,0.2-2.3-0.7-2.5-2L178.8,75.4z
	 M180.6,76.9c0.8-0.1,1.4-1,1.2-2l0.6-0.1c0.2,1.3-0.5,2.5-1.7,2.7L180.6,76.9z M181.8,74.9c-0.2-1-1-1.6-1.8-1.5l-0.1-0.6
	c1.2-0.2,2.3,0.7,2.5,2L181.8,74.9z M180,73.4c-0.8,0.1-1.4,1-1.2,2l-0.6,0.1c-0.2-1.3,0.5-2.5,1.7-2.7L180,73.4z M173.2,76
	c0.2,1,1,1.6,1.8,1.5l0.1,0.6c-1.2,0.2-2.3-0.7-2.5-2L173.2,76z M175.1,77.5c0.8-0.1,1.4-1,1.2-2l0.6-0.1c0.2,1.3-0.5,2.5-1.7,2.7
	L175.1,77.5z M176.3,75.5c-0.2-1-1-1.6-1.8-1.5l-0.1-0.6c1.2-0.2,2.3,0.7,2.5,2L176.3,75.5z M174.5,74c-0.8,0.1-1.4,1-1.2,2
	l-0.6,0.1c-0.2-1.3,0.5-2.5,1.7-2.7L174.5,74z M178.2,75.6c0-0.1-0.1-0.1-0.2-0.2c-0.1-0.1-0.3-0.1-0.5-0.1c-0.2,0-0.4,0.1-0.5,0.2
	c-0.1,0-0.1,0.1-0.1,0.1c0,0,0,0,0,0l-0.6,0.1c-0.1-0.3,0.2-0.6,0.4-0.7c0.2-0.1,0.5-0.2,0.8-0.3c0.3,0,0.6,0,0.8,0.1
	c0.3,0.1,0.5,0.3,0.6,0.6L178.2,75.6z M182.1,74.9c-0.1-0.3-0.1-0.3-0.1-0.3s0,0,0,0c0,0,0,0,0,0c0,0,0,0,0,0c0,0,0,0,0,0
	c0,0,0,0,0,0c0,0,0.1,0,0.1,0c0.1,0,0.2-0.1,0.4-0.1c0.3-0.1,0.7-0.3,1.2-0.4c1-0.3,2.1-0.6,3-0.6V74c-0.7,0-1.8,0.3-2.8,0.6
	c-0.5,0.2-0.9,0.3-1.2,0.4c-0.2,0.1-0.3,0.1-0.4,0.1c0,0-0.1,0-0.1,0c0,0,0,0,0,0c0,0,0,0,0,0c0,0,0,0,0,0s0,0,0,0c0,0,0,0,0,0
	S182.2,75.2,182.1,74.9z" />
  <circle class="st23" cx="256.5" cy="78.5" r="27.5" />
  <g>

    <linearGradient id="SVGID_21_" gradientUnits="userSpaceOnUse" x1="261.0574" y1="262.5033" x2="224.517" y2="278.2775"
      gradientTransform="matrix(1 0 0 1 0 -186)">
      <stop offset="0" style="stop-color:#D2DCF7" />
      <stop offset="0.474" style="stop-color:#FFFFFF" />
    </linearGradient>
    <path class="st32" d="M271,64L271,64c-0.9-0.9-2.2-1.4-3.6-1.2l0,0c-2.8,0.3-5.6-0.8-7.4-3.1l0,0c-0.8-1-2.1-1.6-3.4-1.6
		c-1.3,0-2.6,0.6-3.4,1.6l0,0c-1.8,2.2-4.5,3.4-7.4,3.1l0,0c-1.3-0.2-2.6,0.3-3.6,1.2l0,0c-0.9,0.9-1.4,2.2-1.2,3.6 M271,64
		c0.9,0.9,1.4,2.2,1.2,3.6c-0.3,2.8,0.8,5.6,3.1,7.4c1,0.8,1.6,2.1,1.6,3.4s-0.6,2.6-1.6,3.4c-2.2,1.8-3.4,4.5-3.1,7.4
		c0.2,1.3-0.3,2.6-1.2,3.6l0,0c-0.9,0.9-2.2,1.4-3.6,1.2l0,0c-2.8-0.3-5.6,0.8-7.4,3.1l0,0c-0.8,1-2.1,1.6-3.4,1.6
		c-1.3,0-2.6-0.6-3.4-1.6l0,0c-1.8-2.2-4.5-3.4-7.4-3.1l0,0c-1.3,0.2-2.6-0.3-3.6-1.2l0,0 M242.3,92.7c-0.9-0.9-1.4-2.2-1.2-3.6
		 M241.1,89.1c0.3-2.8-0.8-5.6-3.1-7.4c-1-0.8-1.6-2.1-1.6-3.4s0.6-2.6,1.6-3.4 M238,74.9c2.2-1.8,3.4-4.5,3.1-7.4" />

    <linearGradient id="SVGID_22_" gradientUnits="userSpaceOnUse" x1="260.3796" y1="262.7517" x2="231.4597"
      y2="275.2363" gradientTransform="matrix(1 0 0 1 0 -186)">
      <stop offset="0" style="stop-color:#D2DCF7" />
      <stop offset="0.474" style="stop-color:#FFFFFF" />
    </linearGradient>
    <path class="st33" d="M268,67L268,67c-0.7-0.7-1.7-1.1-2.7-0.9l0,0c-2.3,0.3-4.6-0.7-6.1-2.5l0,0c-0.6-0.8-1.6-1.2-2.6-1.2
		c-1,0-1.9,0.5-2.6,1.2l0,0c-1.5,1.8-3.7,2.8-6.1,2.5l0,0c-1-0.1-2,0.2-2.7,0.9l0,0c-0.7,0.7-1.1,1.7-0.9,2.7
		c0.3,2.3-0.7,4.6-2.5,6.1c-0.8,0.6-1.2,1.6-1.2,2.6s0.5,1.9,1.2,2.6 M268,67c0.7,0.7,1.1,1.7,0.9,2.7 M245.3,89.7L245.3,89.7
		c0.7,0.7,1.7,1.1,2.7,0.9l0,0c2.3-0.3,4.6,0.7,6.1,2.5l0,0c0.6,0.8,1.6,1.2,2.6,1.2s1.9-0.5,2.6-1.2l0,0c1.5-1.8,3.7-2.8,6.1-2.5
		l0,0c1,0.1,2-0.2,2.7-0.9l0,0c0.7-0.7,1.1-1.7,0.9-2.7 M245.3,89.7c-0.4-0.4-0.6-0.8-0.8-1.2c-0.2-0.5-0.2-1-0.2-1.5 M268.9,69.7
		c-0.3,2.3,0.7,4.6,2.5,6.1 M271.5,75.8c0.8,0.6,1.2,1.6,1.2,2.6s-0.5,1.9-1.2,2.6 M271.5,80.9c-1.8,1.5-2.8,3.7-2.5,6.1 M244.4,87
		c0.3-2.3-0.7-4.6-2.5-6.1" />

    <linearGradient id="SVGID_23_" gradientUnits="userSpaceOnUse" x1="259.125" y1="263.3648" x2="239.4748" y2="271.8481"
      gradientTransform="matrix(1 0 0 1 0 -186)">
      <stop offset="0" style="stop-color:#D2DCF7" />
      <stop offset="0.474" style="stop-color:#FFFFFF" />
    </linearGradient>
    <path class="st34" d="M264.6,70.5L264.6,70.5c-0.4-0.4-1.1-0.7-1.7-0.6l0,0c-1.8,0.2-3.5-0.5-4.6-1.9l0,0c-0.4-0.5-1-0.8-1.6-0.8
		s-1.2,0.3-1.6,0.8l0,0c-1.1,1.4-2.8,2.1-4.6,1.9l0,0c-0.6-0.1-1.2,0.1-1.7,0.6l0,0c-0.4,0.4-0.7,1.1-0.6,1.7 M264.6,70.5
		c0.4,0.4,0.7,1.1,0.6,1.7 M248.8,86.3L248.8,86.3c0.4,0.4,1.1,0.7,1.7,0.6l0,0c1.8-0.2,3.5,0.5,4.6,1.9l0,0c0.4,0.5,1,0.8,1.6,0.8
		s1.2-0.3,1.6-0.8l0,0c1.1-1.4,2.8-2.1,4.6-1.9l0,0c0.6,0.1,1.2-0.1,1.7-0.6l0,0c0.4-0.4,0.7-1.1,0.6-1.7 M248.8,86.3
		c-0.2-0.2-0.4-0.5-0.5-0.9c-0.1-0.3-0.1-0.5-0.1-0.8 M265.1,72.1c-0.2,1.8,0.5,3.5,1.9,4.6 M267,76.7c0.5,0.4,0.8,1,0.8,1.6
		s-0.3,1.2-0.8,1.6 M246.3,80c-0.5-0.4-0.8-1-0.8-1.6s0.3-1.2,0.8-1.6 M246.3,76.7c1.4-1.1,2.1-2.8,1.9-4.6 M248.2,84.6
		c0.2-1.8-0.5-3.5-1.9-4.6 M267,80c-1.4,1.1-2.1,2.8-1.9,4.6" />
  </g>
  <defs>
    <filter id="Adobe_OpacityMaskFilter_2_" filterUnits="userSpaceOnUse" x="231.9" y="64.3" width="68.5" height="70.1">
      <feColorMatrix type="matrix" values="1 0 0 0 0  0 1 0 0 0  0 0 1 0 0  0 0 0 1 0" />
    </filter>
  </defs>
  <mask maskUnits="userSpaceOnUse" x="231.9" y="64.3" width="68.5" height="70.1" id="mask2_598:22118_1_">
    <circle class="st35" cx="256.5" cy="78.5" r="30.5" />
  </mask>
  <g class="st36">

    <linearGradient id="SVGID_24_" gradientUnits="userSpaceOnUse" x1="266.1476" y1="235.2017" x2="266.1476" y2="181.558"
      gradientTransform="matrix(1 0 0 -1 0 316)">
      <stop offset="0" style="stop-color:#8589E3" />
      <stop offset="1" style="stop-color:#8589E3;stop-opacity:0" />
    </linearGradient>
    <path class="st37" d="M254.1,84l0.7-1.9l10.1-1.3l-0.4,3.5c2.1,1,4.4,2.4,6.6,3.9v0l0,0c4.2,2.8,8.2,5.4,11.1,4.2
		c3.7-1.4,7.5-5.3,10.4-8.3c0.7-0.7,1.3-1.4,1.9-1.9c2,1.7,3.6,5.6,4.9,8.8v0v0c0.3,0.8,0.6,1.6,0.9,2.3c0,0,0,0-0.1,0.1
		c-0.9,1.5-11.6,19-22.1,16.7c-2.6-0.6-4.8-1.7-6.8-3c2,12.1,3.2,26.8,3.2,26.8l-35.9,0.5c0,0,0.2-3.1,0.6-7.5
		c-5.1-3.3-10.2-10.6-5.4-23.9C237.8,92.4,245.5,86.1,254.1,84z" />
    <path class="st29" d="M270.9,103.9c-0.2,0-0.4-0.1-0.4-0.3c0-0.1-0.7-3.3-2.2-8.5c-0.1-0.2,0.1-0.4,0.3-0.5
		c0.2-0.1,0.4,0.1,0.5,0.3c1.6,5.2,2.2,8.5,2.2,8.5C271.4,103.6,271.2,103.8,270.9,103.9L270.9,103.9z" />
    <path class="st29" d="M268.6,118.4c-0.1,0-0.2,0-0.2-0.1c-0.1-0.1-5.5-3.3-17.6-5.1c-1.7-0.2-2.9-1.1-3.6-2.5
		c-1.4-2.8-0.7-7.4,2-12.4c0.1-0.2,0.3-0.3,0.6-0.2c0.2,0.1,0.3,0.3,0.2,0.6c-2.5,4.7-3.2,9.2-2,11.7c0.6,1.2,1.6,1.9,3,2.1
		c12.3,1.8,17.8,5,18,5.2c0.2,0.1,0.3,0.4,0.1,0.6C268.8,118.3,268.7,118.4,268.6,118.4z" />
    <path class="st0" d="M266.4,74.8c-0.1-4.5-3.4-8-7.4-7.9c-4,0.1-7.2,3.8-7.1,8.2c0,0,0,0,0,0.1c-0.4,0-0.8,0.1-1.1,0.2
		c-2.3,0.7-2.9,3-1.5,4.4c1.2,1.2,3.2,2,5.1,1c1.4,1.3,3.2,2.1,5,2.3C265,83.4,266.5,79.3,266.4,74.8z" />
    <path class="st29" d="M250.7,81.2c-0.7-0.3-1.3-0.7-1.7-1.2c-0.7-0.8-1-1.7-0.7-2.7c0.3-1.1,1.2-1.9,2.5-2.3
		c0.3-0.1,0.5-0.1,0.9-0.2c0.1-4.6,3.4-8.3,7.5-8.3c4.2-0.1,7.7,3.7,7.8,8.3c0.1,3.2-0.7,5.6-2.2,7.1c-1.3,1.2-3.1,1.8-5.3,1.6
		c-1.8-0.1-3.6-0.9-5.1-2.2C253,81.8,251.7,81.7,250.7,81.2z M261.6,67.8c-0.8-0.4-1.7-0.5-2.6-0.5c-3.8,0.1-6.8,3.6-6.7,7.8l0,0.4
		l-0.4,0.1c-0.4,0-0.8,0.1-1,0.2c-1,0.3-1.7,0.9-1.8,1.8c-0.2,0.7,0,1.4,0.5,1.9c1,1.1,2.9,1.8,4.6,1l0.2-0.1l0.2,0.2
		c1.3,1.3,2.9,2.1,4.7,2.1c2,0.1,3.6-0.3,4.7-1.4c1.3-1.3,2-3.4,2-6.4C265.9,71.6,264.1,68.9,261.6,67.8z" />
    <path class="st29" d="M260.5,75.5c0.3,0.1,0.6,0,0.7-0.3c0.1-0.3,0-0.6-0.3-0.7c-0.3-0.1-0.6,0-0.7,0.3
		C260.1,75,260.2,75.4,260.5,75.5z" />
    <path class="st29" d="M264.8,77.2c-0.2-1.2-0.5-2.4-1.1-3.6c-0.2-0.3-0.7-0.1-0.5,0.2c0.5,1.1,0.9,2.3,1.1,3.4
		C264.3,77.7,264.8,77.6,264.8,77.2z" />
    <path class="st29" d="M262.8,69.6c-1.7,0.7-8.4,1.1-7.5,4.8c0.2,0.9,0.7,1.5-0.2,1.9c-0.9,0.3-1.2-0.7-1.2-0.7
		c-1.1-0.2-2.4-0.3-3.2,0c-1.7-3.5-0.4-6.5,1.2-6.9c0,0,11.6-7.2,13.8-3.1C267.5,69.3,262.8,69.6,262.8,69.6z" />
    <path class="st29" d="M253.9,77.9c-0.9-1-2.3-1.2-3.5-0.6c-0.3,0.2-0.1,0.7,0.2,0.5c0.9-0.5,2.1-0.4,2.8,0.5
		C253.7,78.6,254.1,78.2,253.9,77.9z" />
  </g>
  <linearGradient id="SVGID_25_" gradientUnits="userSpaceOnUse" x1="213.0747" y1="241.5677" x2="301.6887" y2="233.2672"
    gradientTransform="matrix(1 0 0 -1 0 316)">
    <stop offset="0" style="stop-color:#D1D5F9" />
    <stop offset="1" style="stop-color:#7EA0F7;stop-opacity:0" />
  </linearGradient>
  <circle class="st38" cx="256.5" cy="78.5" r="29" />
  <path class="st39" d="M250.4,81.9c0,1.1,0.7,1.9,1.5,1.9c0.8,0,1.5-0.9,1.5-1.9c0-0.9-0.5-1.6-1.1-1.9" />
  <path class="st29" d="M259.5,89.2c0.4,0,0.8-0.3,0.8-0.8c0-0.4-0.3-0.8-0.8-0.8c-0.4,0-0.8,0.3-0.8,0.8
	C258.8,88.8,259.1,89.2,259.5,89.2z" />
  <path class="st29" d="M259.5,92.6c0.4,0,0.8-0.3,0.8-0.8c0-0.4-0.3-0.8-0.8-0.8c-0.4,0-0.8,0.3-0.8,0.8
	C258.8,92.3,259.1,92.6,259.5,92.6z" />
  <path class="st29" d="M259.5,96c0.4,0,0.8-0.3,0.8-0.8c0-0.4-0.3-0.8-0.8-0.8c-0.4,0-0.8,0.3-0.8,0.8C258.8,95.7,259.1,96,259.5,96z
	" />
  <circle class="st23" cx="328.5" cy="78.5" r="27.5" />
  <g>

    <linearGradient id="SVGID_26_" gradientUnits="userSpaceOnUse" x1="332.8696" y1="262.5549" x2="296.3292"
      y2="278.3292" gradientTransform="matrix(1 0 0 1 0 -186)">
      <stop offset="0" style="stop-color:#D2DCF7" />
      <stop offset="0.474" style="stop-color:#FFFFFF" />
    </linearGradient>
    <path class="st40" d="M342.8,64.1L342.8,64.1c-0.9-0.9-2.2-1.4-3.6-1.2l0,0c-2.8,0.3-5.6-0.8-7.4-3.1l0,0c-0.8-1-2.1-1.6-3.4-1.6
		c-1.3,0-2.6,0.6-3.4,1.6l0,0c-1.8,2.2-4.5,3.4-7.4,3.1l0,0c-1.3-0.2-2.6,0.3-3.6,1.2l0,0c-0.9,0.9-1.4,2.2-1.2,3.6 M342.8,64.1
		c0.9,0.9,1.4,2.2,1.2,3.6c-0.3,2.8,0.8,5.6,3.1,7.4c1,0.8,1.6,2.1,1.6,3.4s-0.6,2.6-1.6,3.4c-2.2,1.8-3.4,4.5-3.1,7.4
		c0.2,1.3-0.3,2.6-1.2,3.6l0,0c-0.9,0.9-2.2,1.4-3.6,1.2l0,0c-2.8-0.3-5.6,0.8-7.4,3.1l0,0c-0.8,1-2.1,1.6-3.4,1.6
		c-1.3,0-2.6-0.6-3.4-1.6l0,0c-1.8-2.2-4.5-3.4-7.4-3.1l0,0c-1.3,0.2-2.6-0.3-3.6-1.2l0,0 M314.1,92.8c-0.9-0.9-1.4-2.2-1.2-3.6
		 M312.9,89.2c0.3-2.8-0.8-5.6-3.1-7.4c-1-0.8-1.6-2.1-1.6-3.4s0.6-2.6,1.6-3.4 M309.8,75c2.2-1.8,3.4-4.5,3.1-7.4" />

    <linearGradient id="SVGID_27_" gradientUnits="userSpaceOnUse" x1="332.1918" y1="262.8033" x2="303.2719"
      y2="275.2879" gradientTransform="matrix(1 0 0 1 0 -186)">
      <stop offset="0" style="stop-color:#D2DCF7" />
      <stop offset="0.474" style="stop-color:#FFFFFF" />
    </linearGradient>
    <path class="st41"
      d="M339.8,67.1L339.8,67.1c-0.7-0.7-1.7-1.1-2.7-0.9l0,0c-2.3,0.3-4.6-0.7-6.1-2.5l0,0c-0.6-0.8-1.6-1.2-2.6-1.2
		s-1.9,0.5-2.6,1.2l0,0c-1.5,1.8-3.7,2.8-6.1,2.5l0,0c-1-0.1-2,0.2-2.7,0.9l0,0c-0.7,0.7-1.1,1.7-0.9,2.7c0.3,2.3-0.7,4.6-2.5,6.1
		c-0.8,0.6-1.2,1.6-1.2,2.6s0.5,1.9,1.2,2.6 M339.8,67.1c0.7,0.7,1.1,1.7,0.9,2.7 M317.1,89.8L317.1,89.8c0.7,0.7,1.7,1.1,2.7,0.9
		l0,0c2.3-0.3,4.6,0.7,6.1,2.5l0,0c0.6,0.8,1.6,1.2,2.6,1.2s1.9-0.5,2.6-1.2l0,0c1.5-1.8,3.7-2.8,6.1-2.5l0,0c1,0.1,2-0.2,2.7-0.9
		l0,0c0.7-0.7,1.1-1.7,0.9-2.7 M317.1,89.8c-0.4-0.4-0.6-0.8-0.8-1.2c-0.2-0.5-0.2-1-0.2-1.5 M340.7,69.8c-0.3,2.3,0.7,4.6,2.5,6.1
		 M343.3,75.9c0.8,0.6,1.2,1.6,1.2,2.6s-0.5,1.9-1.2,2.6 M343.3,81c-1.8,1.5-2.8,3.7-2.5,6.1 M316.2,87.1c0.3-2.3-0.7-4.6-2.5-6.1" />

    <linearGradient id="SVGID_28_" gradientUnits="userSpaceOnUse" x1="330.9372" y1="263.4165" x2="311.287" y2="271.8997"
      gradientTransform="matrix(1 0 0 1 0 -186)">
      <stop offset="0" style="stop-color:#D2DCF7" />
      <stop offset="0.474" style="stop-color:#FFFFFF" />
    </linearGradient>
    <path class="st42" d="M336.4,70.6L336.4,70.6c-0.4-0.4-1.1-0.7-1.7-0.6l0,0c-1.8,0.2-3.5-0.5-4.6-1.9l0,0c-0.4-0.5-1-0.8-1.6-0.8
		s-1.2,0.3-1.6,0.8l0,0c-1.1,1.4-2.8,2.1-4.6,1.9l0,0c-0.6-0.1-1.2,0.1-1.7,0.6l0,0c-0.4,0.4-0.7,1.1-0.6,1.7 M336.4,70.6
		c0.4,0.4,0.7,1.1,0.6,1.7 M320.6,86.4L320.6,86.4c0.4,0.4,1.1,0.7,1.7,0.6l0,0c1.8-0.2,3.5,0.5,4.6,1.9l0,0c0.4,0.5,1,0.8,1.6,0.8
		s1.2-0.3,1.6-0.8l0,0c1.1-1.4,2.8-2.1,4.6-1.9l0,0c0.6,0.1,1.2-0.1,1.7-0.6l0,0c0.4-0.4,0.7-1.1,0.6-1.7 M320.6,86.4
		c-0.2-0.2-0.4-0.5-0.5-0.9c-0.1-0.3-0.1-0.5-0.1-0.8 M336.9,72.2c-0.2,1.8,0.5,3.5,1.9,4.6 M338.8,76.8c0.5,0.4,0.8,1,0.8,1.6
		s-0.3,1.2-0.8,1.6 M318.1,80.1c-0.5-0.4-0.8-1-0.8-1.6s0.3-1.2,0.8-1.6 M318.1,76.8c1.4-1.1,2.1-2.8,1.9-4.6 M320,84.7
		c0.2-1.8-0.5-3.5-1.9-4.6 M338.8,80.1c-1.4,1.1-2.1,2.8-1.9,4.6" />
  </g>
  <defs>
    <filter id="Adobe_OpacityMaskFilter_3_" filterUnits="userSpaceOnUse" x="308" y="63.5" width="45.7" height="64.7">
      <feColorMatrix type="matrix" values="1 0 0 0 0  0 1 0 0 0  0 0 1 0 0  0 0 0 1 0" />
    </filter>
  </defs>
  <mask maskUnits="userSpaceOnUse" x="308" y="63.5" width="45.7" height="64.7" id="mask3_598:22118_1_">
    <circle class="st43" cx="328.5" cy="78.5" r="30.5" />
  </mask>
  <g class="st44">
    <path class="st29" d="M332.4,76.7c-6.5-5.4-13.3-6.3-16.3,0.8c0,0-7.6,0.3-4.3,6.3c0,0-5.2,4.8,3.3,8.7c8.4,4,16.6-8,16.6-8
		L332.4,76.7z" />

    <linearGradient id="SVGID_29_" gradientUnits="userSpaceOnUse" x1="325.4488" y1="231.5294" x2="338.0328"
      y2="189.4897" gradientTransform="matrix(1 0 0 -1 0 316)">
      <stop offset="0" style="stop-color:#F19696" />
      <stop offset="1" style="stop-color:#FF8F8F;stop-opacity:0" />
    </linearGradient>
    <path class="st45" d="M315.1,106.5c-1.6,10.3-1.1,20.4-1.1,21.2l0,0.5l37.1-5.6l-0.1-0.5l0,0c-0.1-0.3-1.4-4.3-4.1-16.2
		c0,0,0,0,0.1-0.1c0.9-1.1,1.8-2.2,2.7-3.4h0c1.2-1.6,2.5-3.2,3.9-4.7l0.3-0.3l-0.3-0.3c-0.2-0.2-0.4-0.4-0.6-0.7
		c-0.2-0.2-0.5-0.5-0.8-0.8l-0.1-0.1c-3.6-3.6-9-9.1-15.7-11.1c-1.6-0.6-3.2-0.8-4.9-0.9l0,0c0,0,0,0,0,0c-0.4,0-0.8,0-1.2,0
		c-9.2,0.4-17.6,7.8-22,19.5l-0.1,0.4l0.3,0.2l0,0c0.5,0.2,0.9,0.4,1.5,0.6C311.5,105.1,313.4,105.9,315.1,106.5z" />
    <path class="st29" d="M346.2,104.6c0.2-0.1,0.3-0.3,0.3-0.5l-2.4-9.2c-0.1-0.2-0.3-0.4-0.5-0.3c-0.2,0.1-0.4,0.3-0.3,0.5l2.4,9.2
		C345.8,104.6,346,104.7,346.2,104.6C346.2,104.6,346.2,104.6,346.2,104.6z" />
    <path class="st29" d="M321.4,106c0.1,0,0.3-0.1,0.3-0.3c1.7-4.6,2.4-6.8,2.4-6.8c0.1-0.2,0-0.5-0.3-0.5c-0.2-0.1-0.5,0-0.5,0.3
		c0,0-0.7,2.2-2.4,6.8c-0.1,0.2,0,0.5,0.2,0.6C321.2,106,321.3,106,321.4,106z" />
    <path class="st0" d="M321.5,77.7c-1-1.7,0-3.7,2.4-4c0.4,0,0.7,0,1.2,0c0,0,0,0,0-0.1c0.8-4.4,4.6-7.4,8.5-6.7
		c3.9,0.7,5.8,4.7,5.7,9.2c-0.1,4-3.1,8.1-8.5,6.7c-1.8-0.5-3.4-1.6-4.5-3.2C324.3,80.3,322.4,79.2,321.5,77.7z" />
    <path class="st29"
      d="M336.5,82.6c0.1-0.1,0.2-0.2,0.4-0.2c1.8-1.4,2.8-3.6,2.9-6.1c0.1-5.2-2.3-8.9-6.1-9.6
		c-4.1-0.7-8,2.3-8.9,6.7c-0.3,0-0.6,0-0.8,0c-1.3,0.1-2.3,0.8-2.8,1.8c-0.4,0.9-0.4,1.9,0.2,2.8c0.9,1.4,2.8,2.7,5,2.3
		c1.1,1.5,2.7,2.6,4.5,3.1C333.4,84,335.3,83.4,336.5,82.6z M328.9,68.4c1.4-0.9,3-1.3,4.6-1c4.1,0.7,5.4,5.2,5.4,8.8
		c0,2.3-1,4.3-2.6,5.5c-1.5,1.1-3.3,1.4-5.4,0.8c-1.7-0.4-3.2-1.5-4.2-3l-0.2-0.2l-0.3,0.1c-1.9,0.5-3.6-0.6-4.3-1.8
		c-0.4-0.6-0.4-1.4-0.1-2c0.4-0.8,1.2-1.2,2.2-1.4c0.3,0,0.6,0,1.1,0l0.4,0.1l0.1-0.4C325.9,71.5,327.2,69.5,328.9,68.4z" />
    <path class="st29" d="M333.3,75.7c-0.3-0.2-0.3-0.5-0.2-0.8c0.2-0.3,0.5-0.3,0.8-0.2c0.3,0.2,0.3,0.5,0.2,0.8
		C333.9,75.8,333.6,75.9,333.3,75.7z" />
    <path class="st29" d="M337.2,78.3c0.1-1.2-0.1-2.5-0.4-3.7c-0.1-0.3-0.6-0.3-0.5,0.1c0.3,1.1,0.4,2.3,0.4,3.5
		C336.6,78.6,337.2,78.6,337.2,78.3z" />
    <path class="st29" d="M336.8,70.5c-1.7,0.4-8.5-0.5-8.3,3.2c0,1,0.4,1.5-0.5,1.9c-1,0.2-1.4-0.9-1.4-0.9c-1.1-0.4-1.8-1.1-2.6-1
		c-3.4-1.6-1.5-7.7,2.2-7.2c0,0,4.3-4.6,7.9-2.4c3.4-0.7,5.7,0.7,6.4,3C341.5,71,336.8,70.5,336.8,70.5z" />
    <path class="st29" d="M326.4,76.8c-0.7-1.1-2-1.7-3.3-1.3c-0.3,0.1-0.2,0.7,0.1,0.5c1-0.3,2.1,0.1,2.6,1
		C326.1,77.4,326.6,77.2,326.4,76.8z" />
  </g>
  <linearGradient id="SVGID_30_" gradientUnits="userSpaceOnUse" x1="285.0747" y1="241.5677" x2="373.6887" y2="233.2672"
    gradientTransform="matrix(1 0 0 -1 0 316)">
    <stop offset="0" style="stop-color:#D1D5F9" />
    <stop offset="1" style="stop-color:#7EA0F7;stop-opacity:0" />
  </linearGradient>
  <circle class="st46" cx="328.5" cy="78.5" r="29" />
  <path class="st39" d="M336.2,82.3c0,1-1.6,1.5-3.4,1.5s-3.4-0.5-3.4-1.5c-3.1,2.2-1.5,3.7,0.2,3.8c1.7,0.1,3.5-1.5,3.5-1.5
	s1.2,1.7,3.4,1.5c2.3-0.2,2.7-2.1-0.2-3.7" />
  <path class="st29" d="M354.2,111.8l-1.9-3.5l-4.1,2.5c-0.1,0.1-0.3,0.2-0.5,0.2c0.7,1.4,1.9,3.6,1.9,3.6c0.1,0.3,0.5,0.3,0.7,0
	l0.9-1.6c0.1-0.3,0.6-0.6,0.9-0.6l1.7-0.1C354.2,112.3,354.4,112.1,354.2,111.8z" />
  <path class="st29" d="M341,108.3l-1.9,3.5c-0.1,0.3-0.1,0.6,0.4,0.6l1.7,0.1c0.4,0,0.8,0.3,0.9,0.6l0.9,1.6c0.1,0.3,0.5,0.3,0.7,0
	c0,0,1.2-2.2,1.9-3.6c-0.2-0.1-0.4-0.2-0.5-0.2L341,108.3z" />
  <linearGradient id="SVGID_31_" gradientUnits="userSpaceOnUse" x1="347.9485" y1="213.6567" x2="338.3425" y2="208.7624"
    gradientTransform="matrix(1 0 0 -1 0 316)">
    <stop offset="0" style="stop-color:#DDF0FF" />
    <stop offset="0.8839" style="stop-color:#FFFFFF" />
  </linearGradient>
  <path class="st47" d="M352,107.6c0.8-0.5,1.4-1.4,1.4-2.3v-4.5c0-1-0.5-1.9-1.4-2.3l-4-2.2c-0.5-0.3-0.9-0.3-1.4-0.3
	c-0.5,0-1,0.1-1.4,0.3l-4,2.2c-0.8,0.5-1.4,1.4-1.4,2.3v4.5c0,0.9,0.6,1.9,1.4,2.3l4,2.2c0.4,0.3,0.9,0.3,1.4,0.3
	c0.5,0,1-0.1,1.4-0.3L352,107.6z" />
  <path class="st29" d="M352,107.6c0.8-0.5,1.4-1.4,1.4-2.3v-4.5c0-1-0.5-1.9-1.4-2.3l-4-2.2c-0.5-0.3-0.9-0.3-1.4-0.3
	c-0.5,0-1,0.1-1.4,0.3l-4,2.2c-0.8,0.5-1.4,1.4-1.4,2.3v4.5c0,0.9,0.6,1.9,1.4,2.3l4,2.2c0.4,0.3,0.9,0.3,1.4,0.3
	c0.5,0,1-0.1,1.4-0.3L352,107.6z M346.6,108.2c-0.4,0-0.7,0-1-0.2l-2.9-1.6c-0.6-0.3-1-1-1-1.7v-3.3c0-0.7,0.4-1.3,1-1.7l2.9-1.6
	c0.3-0.1,0.7-0.2,1-0.2c0.4,0,0.7,0,1,0.2l2.9,1.6c0.7,0.3,1,0.9,1,1.7v3.3c0,0.7-0.4,1.3-1,1.7l-2.9,1.6
	C347.3,108.1,347,108.2,346.6,108.2z" />
  <path class="st48" d="M344.9,101.3c0.2,0.2,0.2,0.4,0,0.6l-0.9,0.9l0.9,1c0.2,0.2,0.1,0.4,0,0.6s-0.4,0.1-0.6,0l-1.2-1.2
	c-0.1-0.2-0.1-0.4,0-0.6l1.2-1.2C344.5,101.2,344.8,101.2,344.9,101.3z" />
  <path class="st48" d="M348.3,101.3c0.2-0.2,0.4-0.2,0.6,0l1.2,1.2c0.2,0.2,0.2,0.4,0,0.6l-1.2,1.2c-0.2,0.2-0.4,0.2-0.6,0
	c-0.2-0.2-0.2-0.4,0-0.6l0.9-1l-0.9-0.9C348.2,101.7,348.2,101.5,348.3,101.3z" />
  <path class="st48" d="M347.5,101.2c0.2,0.1,0.3,0.3,0.2,0.5l-1,2.6c-0.1,0.2-0.3,0.3-0.5,0.2c-0.2-0.1-0.3-0.3-0.2-0.5l1-2.6
	C347,101.2,347.2,101.1,347.5,101.2z" />
  <path class="st29" d="M281.4,111.8l-1.9-3.5l-4.1,2.5c-0.1,0.1-0.3,0.2-0.5,0.2c0.7,1.4,1.9,3.6,1.9,3.6c0.1,0.3,0.5,0.3,0.7,0
	l0.9-1.6c0.1-0.3,0.6-0.6,0.9-0.6l1.7-0.1C281.4,112.3,281.6,112.1,281.4,111.8z" />
  <path class="st29" d="M268.2,108.3l-1.9,3.5c-0.1,0.3-0.1,0.6,0.4,0.6l1.7,0.1c0.4,0,0.8,0.3,0.9,0.6l0.9,1.6c0.1,0.3,0.5,0.3,0.7,0
	c0,0,1.2-2.2,1.9-3.6c-0.2-0.1-0.4-0.2-0.5-0.2L268.2,108.3z" />
  <linearGradient id="SVGID_32_" gradientUnits="userSpaceOnUse" x1="275.2007" y1="213.6563" x2="265.5948" y2="208.762"
    gradientTransform="matrix(1 0 0 -1 0 316)">
    <stop offset="0" style="stop-color:#DDF0FF" />
    <stop offset="0.8839" style="stop-color:#FFFFFF" />
  </linearGradient>
  <path class="st49" d="M279.3,107.6c0.8-0.5,1.4-1.4,1.4-2.3v-4.5c0-1-0.5-1.9-1.4-2.3l-4-2.2c-0.5-0.3-0.9-0.3-1.4-0.3
	c-0.5,0-1,0.1-1.4,0.3l-4,2.2c-0.8,0.5-1.4,1.4-1.4,2.3v4.5c0,0.9,0.6,1.9,1.4,2.3l4,2.2c0.4,0.3,0.9,0.3,1.4,0.3
	c0.5,0,1-0.1,1.4-0.3L279.3,107.6z" />
  <path class="st29" d="M279.3,107.6c0.8-0.5,1.4-1.4,1.4-2.3v-4.5c0-1-0.5-1.9-1.4-2.3l-4-2.2c-0.5-0.3-0.9-0.3-1.4-0.3
	c-0.5,0-1,0.1-1.4,0.3l-4,2.2c-0.8,0.5-1.4,1.4-1.4,2.3v4.5c0,0.9,0.6,1.9,1.4,2.3l4,2.2c0.4,0.3,0.9,0.3,1.4,0.3
	c0.5,0,1-0.1,1.4-0.3L279.3,107.6z M273.9,108.2c-0.4,0-0.7,0-1-0.2l-2.9-1.6c-0.6-0.3-1-1-1-1.7v-3.3c0-0.7,0.4-1.3,1-1.7l2.9-1.6
	c0.3-0.1,0.7-0.2,1-0.2c0.4,0,0.7,0,1,0.2l2.9,1.6c0.7,0.3,1,0.9,1,1.7v3.3c0,0.7-0.4,1.3-1,1.7l-2.9,1.6
	C274.6,108.1,274.2,108.2,273.9,108.2z" />
  <path class="st48" d="M272.2,101.3c0.2,0.2,0.2,0.4,0,0.6l-0.9,0.9l0.9,1c0.2,0.2,0.1,0.4,0,0.6c-0.2,0.2-0.4,0.1-0.6,0l-1.2-1.2
	c-0.1-0.2-0.1-0.4,0-0.6l1.2-1.2C271.7,101.2,272,101.2,272.2,101.3z" />
  <path class="st48" d="M275.6,101.3c0.2-0.2,0.4-0.2,0.6,0l1.2,1.2c0.2,0.2,0.2,0.4,0,0.6l-1.2,1.2c-0.2,0.2-0.4,0.2-0.6,0
	c-0.2-0.2-0.2-0.4,0-0.6l0.9-1l-0.9-0.9C275.4,101.7,275.4,101.5,275.6,101.3z" />
  <path class="st48" d="M274.7,101.2c0.2,0.1,0.3,0.3,0.2,0.5l-1,2.6c-0.1,0.2-0.3,0.3-0.5,0.2c-0.2-0.1-0.3-0.3-0.2-0.5l1-2.6
	C274.3,101.2,274.5,101.1,274.7,101.2z" />
  <path class="st29" d="M208.2,111.8l-1.9-3.5l-4.1,2.5c-0.1,0.1-0.3,0.2-0.5,0.2c0.7,1.4,1.9,3.6,1.9,3.6c0.1,0.3,0.5,0.3,0.7,0
	l0.9-1.6c0.1-0.3,0.6-0.6,0.9-0.6l1.7-0.1C208.2,112.3,208.4,112.1,208.2,111.8z" />
  <path class="st29" d="M194.9,108.3l-1.9,3.5c-0.1,0.3-0.1,0.6,0.4,0.6l1.7,0.1c0.4,0,0.8,0.3,0.9,0.6l0.9,1.6c0.1,0.3,0.5,0.3,0.7,0
	c0,0,1.2-2.2,1.9-3.6c-0.2-0.1-0.4-0.2-0.5-0.2L194.9,108.3z" />
  <linearGradient id="SVGID_33_" gradientUnits="userSpaceOnUse" x1="201.9485" y1="213.6567" x2="192.3425" y2="208.7624"
    gradientTransform="matrix(1 0 0 -1 0 316)">
    <stop offset="0" style="stop-color:#DDF0FF" />
    <stop offset="0.8839" style="stop-color:#FFFFFF" />
  </linearGradient>
  <path class="st50" d="M206,107.6c0.8-0.5,1.4-1.4,1.4-2.3v-4.5c0-1-0.5-1.9-1.4-2.3l-4-2.2c-0.5-0.3-0.9-0.3-1.4-0.3
	c-0.5,0-1,0.1-1.4,0.3l-4,2.2c-0.8,0.5-1.4,1.4-1.4,2.3v4.5c0,0.9,0.6,1.9,1.4,2.3l4,2.2c0.4,0.3,0.9,0.3,1.4,0.3
	c0.5,0,1-0.1,1.4-0.3L206,107.6z" />
  <path class="st29" d="M206,107.6c0.8-0.5,1.4-1.4,1.4-2.3v-4.5c0-1-0.5-1.9-1.4-2.3l-4-2.2c-0.5-0.3-0.9-0.3-1.4-0.3
	c-0.5,0-1,0.1-1.4,0.3l-4,2.2c-0.8,0.5-1.4,1.4-1.4,2.3v4.5c0,0.9,0.6,1.9,1.4,2.3l4,2.2c0.4,0.3,0.9,0.3,1.4,0.3
	c0.5,0,1-0.1,1.4-0.3L206,107.6z M200.6,108.2c-0.4,0-0.7,0-1-0.2l-2.9-1.6c-0.6-0.3-1-1-1-1.7v-3.3c0-0.7,0.4-1.3,1-1.7l2.9-1.6
	c0.3-0.1,0.7-0.2,1-0.2c0.4,0,0.7,0,1,0.2l2.9,1.6c0.7,0.3,1,0.9,1,1.7v3.3c0,0.7-0.4,1.3-1,1.7l-2.9,1.6
	C201.3,108.1,201,108.2,200.6,108.2z" />
  <path class="st48" d="M198.9,101.3c0.2,0.2,0.2,0.4,0,0.6l-0.9,0.9l0.9,1c0.2,0.2,0.1,0.4,0,0.6c-0.2,0.2-0.4,0.1-0.6,0l-1.2-1.2
	c-0.2-0.2-0.1-0.4,0-0.6l1.2-1.2C198.5,101.2,198.8,101.2,198.9,101.3z" />
  <path class="st48" d="M202.3,101.3c0.2-0.2,0.4-0.2,0.6,0l1.2,1.2c0.2,0.2,0.2,0.4,0,0.6l-1.2,1.2c-0.2,0.2-0.4,0.2-0.6,0
	c-0.2-0.2-0.2-0.4,0-0.6l0.9-1l-0.9-0.9C202.2,101.7,202.2,101.5,202.3,101.3z" />
  <path class="st48" d="M201.5,101.2c0.2,0.1,0.3,0.3,0.2,0.5l-1,2.6c-0.1,0.2-0.3,0.3-0.5,0.2c-0.2-0.1-0.3-0.3-0.2-0.5l1-2.6
	C201,101.2,201.2,101.1,201.5,101.2z" />
  <path class="st0" d="M374.5,129.8c-1.5-0.6-3.1-1.7-4.3-3.2c-1.2-1.5-2.2-3.5-2.8-5.6l-0.7-2.5c-0.1-0.3-0.4-0.5-0.7-0.5
	c-0.3,0-0.6,0.2-0.7,0.5l-0.7,2.5c-0.6,2.2-1.6,4.1-2.8,5.6c-1.2,1.5-2.6,2.6-4.1,3.2c-0.3,0.1-0.5,0.4-0.5,0.7
	c0,0.3,0.2,0.6,0.5,0.7l0.2,0.1c3,1.3,5.4,4.4,6.7,8.6l0.8,2.6c0.1,0.3,0.4,0.5,0.7,0.5c0.3,0,0.6-0.2,0.7-0.5l0.8-2.6
	c1.3-4.2,3.9-7.3,6.9-8.6l0.2-0.1c0.3-0.1,0.5-0.4,0.5-0.7C375,130.2,374.8,129.9,374.5,129.8z" />
  <g class="st1">
    <defs>
      <filter id="Adobe_OpacityMaskFilter_4_" filterUnits="userSpaceOnUse" x="399.6" y="-91" width="180" height="180">
        <feColorMatrix type="matrix" values="1 0 0 0 0  0 1 0 0 0  0 0 1 0 0  0 0 0 1 0" />
      </filter>
    </defs>
    <mask maskUnits="userSpaceOnUse" x="399.6" y="-91" width="180" height="180" id="mask4_598:22118_1_">
      <rect x="372" y="2" class="st51" width="135" height="121" />
    </mask>
    <g class="st52">

      <linearGradient id="SVGID_34_" gradientUnits="userSpaceOnUse" x1="602.6035" y1="335.5468" x2="389.6462"
        y2="300.577" gradientTransform="matrix(1 0 0 -1 0 316)">
        <stop offset="0.526" style="stop-color:#BFAAFA" />
        <stop offset="1" style="stop-color:#FFFFFF" />
      </linearGradient>
      <path class="st53" d="M551.8-63.2L551.8-63.2c4.5,4.5,6.6,10.6,5.9,16.9c-1.3,11.2,3.2,22.1,12.1,29.2c5,3.9,7.8,9.8,7.8,16.1
			c0,6.3-2.8,12.2-7.8,16.1c-8.9,7-13.4,17.9-12.1,29.2c0.7,6.3-1.4,12.5-5.9,16.9v0c-4.5,4.5-10.6,6.6-16.9,5.9
			c-11.2-1.3-22.1,3.2-29.2,12.1v0c-3.9,5-9.8,7.8-16.1,7.8c-6.3,0-12.2-2.8-16.1-7.8v0c-7-8.9-17.9-13.4-29.2-12.1l0,0
			c-6.3,0.7-12.4-1.4-16.9-5.9l0,0c-4.5-4.5-6.6-10.6-5.9-16.9c1.3-11.2-3.2-22.1-12.1-29.2c-5-3.9-7.8-9.8-7.8-16.1
			c0-6.3,2.8-12.2,7.8-16.1c8.9-7,13.4-17.9,12.1-29.2c-0.7-6.3,1.4-12.5,5.9-16.9v0c4.5-4.5,10.6-6.6,16.9-5.9l0,0
			c11.2,1.3,22.1-3.2,29.2-12.1l0,0c3.9-5,9.8-7.8,16.1-7.8c6.3,0,12.2,2.8,16.1,7.8v0c7,8.9,17.9,13.4,29.2,12.1h0
			C541.2-69.8,547.3-67.7,551.8-63.2z" />

      <linearGradient id="SVGID_35_" gradientUnits="userSpaceOnUse" x1="579.9393" y1="331.8253" x2="410.0454"
        y2="303.9269" gradientTransform="matrix(1 0 0 -1 0 316)">
        <stop offset="0.526" style="stop-color:#BFAAFA" />
        <stop offset="1" style="stop-color:#FFFFFF" />
      </linearGradient>
      <path class="st54" d="M435.5,35.3c1-9.1-2.6-18-9.8-23.7c-3.9-3.1-6.1-7.7-6.1-12.6c0-4.9,2.2-9.5,6.1-12.6
			c7.2-5.7,10.9-14.6,9.8-23.7c-0.6-4.9,1.1-9.7,4.6-13.2v0c3.5-3.5,8.3-5.2,13.2-4.6l0,0c9.1,1,18-2.6,23.7-9.8v0
			c3.1-3.9,7.7-6.1,12.6-6.1c4.9,0,9.5,2.2,12.6,6.1v0c5.7,7.2,14.6,10.9,23.7,9.8l0,0c4.9-0.6,9.7,1.1,13.2,4.6v0
			c3.5,3.5,5.2,8.3,4.6,13.2c-1.1,9.1,2.6,18,9.8,23.7c3.9,3.1,6.1,7.7,6.1,12.6c0,4.9-2.2,9.5-6.1,12.6
			c-7.2,5.7-10.9,14.6-9.8,23.7c0.6,4.9-1.1,9.7-4.6,13.2v0c-3.5,3.5-8.3,5.2-13.2,4.6v0c-9.1-1-18,2.6-23.7,9.8l0,0
			c-3.1,3.9-7.7,6.1-12.6,6.1c-4.9,0-9.5-2.2-12.6-6.1v0c-5.7-7.2-14.6-10.9-23.7-9.8l0,0c-4.9,0.6-9.7-1.1-13.2-4.6v0
			C436.6,45,434.9,40.2,435.5,35.3z M435.5,35.3l-2-0.2 M435.5,35.3l-2-0.2" />

      <linearGradient id="SVGID_36_" gradientUnits="userSpaceOnUse" x1="554.3184" y1="327.6182" x2="431.2634"
        y2="307.4112" gradientTransform="matrix(1 0 0 -1 0 316)">
        <stop offset="0.526" style="stop-color:#BFAAFA" />
        <stop offset="1" style="stop-color:#FFFFFF" />
      </linearGradient>
      <path class="st55" d="M524.5-35.9L524.5-35.9c-2.4-2.4-5.6-3.5-9-3.1v0c-6.7,0.8-13.2-1.9-17.4-7.2l0,0c-2.1-2.6-5.2-4.1-8.6-4.1
			s-6.5,1.5-8.6,4.1v0c-4.2,5.3-10.7,8-17.4,7.2l0,0c-3.3-0.4-6.6,0.8-9,3.1v0c-2.4,2.4-3.5,5.6-3.1,9 M524.5-35.9
			c2.4,2.4,3.5,5.6,3.1,9c-0.8,6.7,1.9,13.2,7.2,17.4c2.6,2.1,4.1,5.2,4.1,8.6c0,3.4-1.5,6.5-4.1,8.6c-5.3,4.2-8,10.7-7.2,17.4
			c0.4,3.3-0.8,6.6-3.1,9v0c-2.4,2.4-5.6,3.5-9,3.1l0,0c-6.7-0.8-13.2,1.9-17.4,7.2v0c-2.1,2.6-5.2,4.1-8.6,4.1s-6.5-1.5-8.6-4.1v0
			c-4.2-5.3-10.7-8-17.4-7.2l0,0c-3.3,0.4-6.6-0.8-9-3.1v0 M454.6,34c-2.4-2.4-3.5-5.6-3.1-9c0.8-6.7-1.9-13.2-7.2-17.4
			c-2.6-2.1-4.1-5.2-4.1-8.6c0-3.4,1.5-6.5,4.1-8.6 M444.3-9.5c5.3-4.2,8-10.7,7.2-17.4" />
    </g>
  </g>
</svg>