<?xml version="1.0" encoding="utf-8"?>
<!-- Generator: Adobe Illustrator 25.2.0, SVG Export Plug-In . SVG Version: 6.00 Build 0)  -->
<svg version="1.1" id="Layer_1" xmlns="http://www.w3.org/2000/svg" xmlns:xlink="http://www.w3.org/1999/xlink" x="0px"
  y="0px" viewBox="0 0 508 270" style="enable-background:new 0 0 508 270;" xml:space="preserve">
  <style type="text/css">
    .st0 {
      fill: #F8FAFF;
    }

    .st1 {
      fill: url(#SVGID_1_);
    }

    .st2 {
      fill: #C4C4C4;
      filter: url(#Adobe_OpacityMaskFilter);
    }

    .st3 {
      mask: url(#mask0_598:21075_1_);
    }

    .st4 {
      fill: url(#SVGID_2_);
    }

    .st5 {
      fill: url(#SVGID_3_);
      filter: url(#Adobe_OpacityMaskFilter_1_);
    }

    .st6 {
      mask: url(#mask1_598:21075_1_);
    }

    .st7 {
      opacity: 0.5;
    }

    .st8 {
      fill: none;
      stroke: #FFFFFF;
    }

    .st9 {
      fill: none;
      stroke: url(#SVGID_4_);
      stroke-width: 4;
    }

    .st10 {
      fill: none;
      stroke: url(#SVGID_5_);
      stroke-width: 4;
    }

    .st11 {
      fill: none;
      stroke: url(#SVGID_6_);
      stroke-width: 4;
    }

    .st12 {
      fill: #FFFFFF;
    }

    .st13 {
      fill: url(#SVGID_7_);
    }

    .st14 {
      fill: url(#SVGID_8_);
    }

    .st15 {
      fill: #151515;
    }

    .st16 {
      fill: #8589E3;
    }

    .st17 {
      fill: #F278A4;
    }

    .st18 {
      fill: none;
      stroke: url(#SVGID_9_);
      stroke-width: 9;
    }

    .st19 {
      fill: #17457C;
    }

    .st20 {
      fill: url(#SVGID_10_);
    }

    .st21 {
      fill-rule: evenodd;
      clip-rule: evenodd;
      fill: #17457C;
    }

    .st22 {
      fill: url(#SVGID_11_);
    }
  </style>
  <rect x="1" class="st0" width="507" height="221" />
  <linearGradient id="SVGID_1_" gradientUnits="userSpaceOnUse" x1="278.809" y1="192.1211" x2="99.0588" y2="-29.7393"
    gradientTransform="matrix(1 0 0 -1 0 272)">
    <stop offset="0" style="stop-color:#DDE4FF" />
    <stop offset="0.8839" style="stop-color:#FFFFFF" />
  </linearGradient>
  <rect x="1" class="st1" width="506" height="221" />
  <defs>
    <filter id="Adobe_OpacityMaskFilter" filterUnits="userSpaceOnUse" x="-59.5" y="-65.4" width="154.2" height="154.2">
      <feColorMatrix type="matrix" values="1 0 0 0 0  0 1 0 0 0  0 0 1 0 0  0 0 0 1 0" />
    </filter>
  </defs>
  <mask maskUnits="userSpaceOnUse" x="-59.5" y="-65.4" width="154.2" height="154.2" id="mask0_598:21075_1_">
    <rect y="1" class="st2" width="114" height="93" />
  </mask>
  <g class="st3">
    <g>
      <linearGradient id="SVGID_2_" gradientUnits="userSpaceOnUse" x1="-34.828" y1="25.8653" x2="90.3508" y2="-9.2081">
        <stop offset="0" style="stop-color:#F1F4FF" />
        <stop offset="1" style="stop-color:#D3D8FF" />
      </linearGradient>
      <circle class="st4" cx="25.4" cy="9" r="65" />
    </g>
    <defs>
      <filter id="Adobe_OpacityMaskFilter_1_" filterUnits="userSpaceOnUse" x="-59.5" y="-65.4" width="154.2"
        height="154.2">
        <feColorMatrix type="matrix" values="1 0 0 0 0  0 1 0 0 0  0 0 1 0 0  0 0 0 1 0" />
      </filter>
    </defs>
    <mask maskUnits="userSpaceOnUse" x="-59.5" y="-65.4" width="154.2" height="154.2" id="mask1_598:21075_1_">

      <linearGradient id="SVGID_3_" gradientUnits="userSpaceOnUse" x1="72.5262" y1="321.4768" x2="-16.9951"
        y2="211.1042" gradientTransform="matrix(1 0 0 -1 0 272)">
        <stop offset="0" style="stop-color:#F8B2D9" />
        <stop offset="1" style="stop-color:#ECD2EE" />
      </linearGradient>
      <circle class="st5" cx="24.8" cy="9.4" r="64.8" />
    </mask>
    <g class="st6">
      <g class="st7">
        <line class="st8" x1="83.1" y1="-65.4" x2="83.1" y2="88.8" />
        <line class="st8" x1="70.1" y1="-65.4" x2="70.1" y2="88.8" />
        <line class="st8" x1="57.1" y1="-65.4" x2="57.1" y2="88.8" />
        <line class="st8" x1="44.1" y1="-65.4" x2="44.1" y2="88.8" />
        <line class="st8" x1="31.1" y1="-65.4" x2="31.1" y2="88.8" />
        <line class="st8" x1="18.1" y1="-65.4" x2="18.1" y2="88.8" />
        <line class="st8" x1="5.1" y1="-65.4" x2="5.1" y2="88.8" />
        <line class="st8" x1="-59.5" y1="11.2" x2="94.7" y2="11.2" />
        <line class="st8" x1="-59.5" y1="24.2" x2="94.7" y2="24.2" />
        <line class="st8" x1="-59.5" y1="37.2" x2="94.7" y2="37.2" />
        <line class="st8" x1="-59.5" y1="50.2" x2="94.7" y2="50.2" />
      </g>
    </g>
  </g>
  <g class="st7">

    <linearGradient id="SVGID_4_" gradientUnits="userSpaceOnUse" x1="473.3618" y1="101.1549" x2="378.2372" y2="30.4903"
      gradientTransform="matrix(1 0 0 -1 0 272)">
      <stop offset="0" style="stop-color:#E3DEF8" />
      <stop offset="1" style="stop-color:#FFFFFF" />
    </linearGradient>
    <path class="st9" d="M463.7,167.3L463.7,167.3c-2.9-2.9-6.9-4.3-10.9-3.8l0,0c-7.8,0.9-15.4-2.3-20.3-8.4l0,0
		c-2.5-3.2-6.3-5-10.4-5s-7.9,1.8-10.4,5l0,0c-4.9,6.2-12.5,9.3-20.3,8.4h0c-4.1-0.5-8,0.9-10.9,3.8l0,0c-2.9,2.9-4.3,6.9-3.8,10.9
		 M463.7,167.3c2.9,2.9,4.3,6.9,3.8,10.9c-0.9,7.8,2.3,15.4,8.4,20.3c3.2,2.5,5,6.3,5,10.4s-1.8,7.9-5,10.4
		c-6.2,4.9-9.3,12.5-8.4,20.3c0.5,4.1-0.9,8.1-3.8,10.9l0,0c-2.9,2.9-6.9,4.3-10.9,3.8l0,0c-7.8-0.9-15.4,2.3-20.3,8.4l0,0
		c-2.5,3.2-6.3,5-10.4,5c-4.1,0-7.9-1.8-10.4-5l0,0c-4.9-6.2-12.5-9.3-20.3-8.4l0,0c-4.1,0.5-8-0.9-10.9-3.8l0,0 M380.3,250.7
		c-2.9-2.9-4.3-6.9-3.8-10.9c0.9-7.8-2.3-15.4-8.4-20.3c-3.2-2.5-5-6.3-5-10.4c0-4.1,1.8-7.9,5-10.4 M368,198.6
		c6.2-4.9,9.3-12.5,8.4-20.3" />

    <linearGradient id="SVGID_5_" gradientUnits="userSpaceOnUse" x1="467.2684" y1="76.8043" x2="363.4974" y2="45.1602"
      gradientTransform="matrix(1 0 0 -1 0 272)">
      <stop offset="0" style="stop-color:#E3DEF8" />
      <stop offset="0.6714" style="stop-color:#FFFFFF" />
    </linearGradient>
    <path class="st10" d="M455.1,175.9L455.1,175.9c-2.2-2.2-5.3-3.3-8.4-2.9l0,0c-6.4,0.7-12.6-1.8-16.6-6.9l0,0c-2-2.5-4.9-3.9-8-3.9
		c-3.2,0-6.1,1.4-8,3.9l0,0c-4,5-10.2,7.6-16.6,6.9h0c-3.1-0.4-6.2,0.7-8.4,2.9l0,0c-2.2,2.2-3.3,5.3-2.9,8.4 M455.1,175.9
		c2.2,2.2,3.3,5.3,2.9,8.4c-0.7,6.4,1.8,12.6,6.9,16.6c2.5,2,3.9,4.9,3.9,8s-1.4,6.1-3.9,8c-5,4-7.6,10.2-6.9,16.6
		c0.4,3.1-0.7,6.2-2.9,8.4l0,0c-2.2,2.2-5.3,3.3-8.4,2.9l0,0c-6.4-0.7-12.6,1.8-16.6,6.9h0c-2,2.5-4.9,3.9-8,3.9
		c-3.2,0-6.1-1.4-8-3.9l0,0c-4-5-10.2-7.6-16.6-6.9h0c-3.1,0.4-6.2-0.7-8.4-2.9l0,0 M388.9,242.1c-1.1-1.1-1.9-2.4-2.4-3.9
		c0,0,0,0,0,0c-0.5-1.4-0.7-3-0.5-4.6 M379.1,201c-2.5,2-3.9,4.9-3.9,8s1.4,6.1,3.9,8c5,4,7.6,10.2,6.9,16.6 M379.1,201
		c5-4,7.6-10.2,6.9-16.6" />

    <linearGradient id="SVGID_6_" gradientUnits="userSpaceOnUse" x1="448.8912" y1="88.2198" x2="404.988" y2="47.0454"
      gradientTransform="matrix(1 0 0 -1 0 272)">
      <stop offset="0" style="stop-color:#E3DEF8" />
      <stop offset="1" style="stop-color:#FFFFFF" />
    </linearGradient>
    <path class="st11" d="M445.2,185.8L445.2,185.8c-1.5-1.5-3.5-2.2-5.6-1.9l0,0c-4.8,0.5-9.4-1.4-12.4-5.1l0,0
		c-1.3-1.6-3.2-2.6-5.3-2.6s-4,0.9-5.3,2.6l0,0c-3,3.8-7.6,5.7-12.4,5.1h0c-2.1-0.2-4.1,0.5-5.5,1.9h0c-1.5,1.5-2.2,3.5-1.9,5.5
		c0.5,4.8-1.4,9.4-5.1,12.4c-1.6,1.3-2.6,3.2-2.6,5.3s0.9,4,2.6,5.3c3.8,3,5.7,7.6,5.1,12.4 M445.2,185.8c1.5,1.5,2.2,3.5,1.9,5.5
		 M398.8,232.2L398.8,232.2c1.5,1.5,3.5,2.2,5.5,1.9l0,0c4.8-0.5,9.4,1.4,12.4,5.1h0c1.3,1.6,3.2,2.6,5.3,2.6c2.1,0,4-0.9,5.3-2.6h0
		c3-3.8,7.6-5.7,12.4-5.1l0,0c2.1,0.2,4.1-0.5,5.5-1.9l0,0c1.5-1.5,2.2-3.5,1.9-5.5 M398.8,232.2c-1.5-1.5-2.2-3.5-1.9-5.5
		L398.8,232.2z M447.2,191.3c-0.5,4.8,1.4,9.4,5.1,12.4 M452.3,203.7c1.6,1.3,2.6,3.2,2.6,5.3s-0.9,4-2.6,5.3 M452.3,214.3
		c-3.8,3-5.7,7.6-5.1,12.4" />
  </g>
  <path class="st12" d="M65.5,24.8c-1.5-0.6-3.1-1.7-4.3-3.2C60,20.1,59,18.2,58.4,16l-0.7-2.5c-0.1-0.3-0.4-0.5-0.7-0.5
	c-0.3,0-0.6,0.2-0.7,0.5L55.4,16c-0.6,2.2-1.6,4.1-2.8,5.6c-1.2,1.5-2.6,2.6-4.1,3.2c-0.3,0.1-0.5,0.4-0.5,0.7
	c0,0.3,0.2,0.6,0.5,0.7l0.2,0.1c3,1.3,5.4,4.4,6.7,8.6l0.8,2.6c0.1,0.3,0.4,0.5,0.7,0.5c0.3,0,0.6-0.2,0.7-0.5l0.8-2.6
	c1.3-4.2,3.9-7.3,6.9-8.6l0.2-0.1c0.3-0.1,0.5-0.4,0.5-0.7C66,25.2,65.8,24.9,65.5,24.8z" />
  <rect x="153.9" y="49.5" class="st12" width="200.7" height="125.8" />
  <radialGradient id="SVGID_7_" cx="3.6688" cy="385.0174" r="1"
    gradientTransform="matrix(90.3604 -21.9508 -26.3863 -108.619 9991.3623 42076.0781)" gradientUnits="userSpaceOnUse">
    <stop offset="0" style="stop-color:#E6B6EA;stop-opacity:0.61" />
    <stop offset="1" style="stop-color:#E6B6EA;stop-opacity:0" />
  </radialGradient>
  <rect x="153.9" y="49.5" class="st13" width="200.7" height="125.8" />
  <radialGradient id="SVGID_8_" cx="5.0471" cy="386.5883" r="1"
    gradientTransform="matrix(-55.4019 64.6945 91.8143 78.6263 -34871.6484 -30646.0371)" gradientUnits="userSpaceOnUse">
    <stop offset="0" style="stop-color:#386FCE;stop-opacity:0.46" />
    <stop offset="0.7604" style="stop-color:#386FCE;stop-opacity:7.000000e-02" />
    <stop offset="1" style="stop-color:#386FCE;stop-opacity:0" />
  </radialGradient>
  <rect x="153.9" y="49.5" class="st14" width="200.7" height="125.8" />
  <rect x="174.4" y="68" class="st15" width="28.9" height="4.5" />
  <rect x="210.3" y="68" class="st16" width="28.9" height="4.5" />
  <rect x="264.3" y="68" class="st17" width="8.9" height="4.5" />
  <rect x="189" y="81.6" class="st15" width="9" height="4.5" />
  <rect x="189" y="95.2" class="st15" width="9" height="4.5" />
  <rect x="234" y="95.2" class="st15" width="8" height="4.5" />
  <rect x="223.8" y="109.1" class="st17" width="8.9" height="4.5" />
  <rect x="247" y="123" class="st15" width="8" height="4.5" />
  <rect x="227" y="136.6" class="st15" width="8" height="4.5" />
  <rect x="256.4" y="150.2" class="st15" width="8.9" height="4.5" />
  <rect x="213" y="136.6" class="st15" width="8" height="4.5" />
  <rect x="189" y="136.6" class="st15" width="8" height="4.5" />
  <rect x="311" y="123" class="st15" width="8" height="4.5" />
  <rect x="326" y="123" class="st15" width="8" height="4.5" />
  <rect x="302" y="136.6" class="st15" width="8" height="4.5" />
  <rect x="248" y="95.2" class="st15" width="7" height="4.5" />
  <rect x="262" y="95.2" class="st15" width="7" height="4.5" />
  <rect x="325" y="95.2" class="st15" width="9" height="4.5" />
  <rect x="202" y="81.6" class="st15" width="7" height="4.5" />
  <rect x="279.3" y="68" class="st15" width="8.9" height="4.5" />
  <rect x="295.6" y="68" class="st15" width="38.5" height="4.5" />
  <rect x="316" y="81.6" class="st15" width="18" height="4.5" />
  <rect x="293" y="81.6" class="st15" width="18" height="4.5" />
  <rect x="238" y="81.6" class="st15" width="27" height="4.5" />
  <rect x="275" y="95.2" class="st15" width="44" height="4.5" />
  <rect x="294.8" y="109.4" class="st15" width="39.3" height="4.5" />
  <rect x="247.6" y="109.1" class="st15" width="20.5" height="4.5" />
  <rect x="316" y="136.6" class="st15" width="18" height="4.5" />
  <rect x="174.4" y="150.2" class="st15" width="18.7" height="4.5" />
  <rect x="200.5" y="150.2" class="st15" width="36.4" height="4.5" />
  <rect x="284.9" y="150.1" class="st15" width="49.2" height="4.5" />
  <rect x="248" y="136.6" class="st17" width="30" height="4.5" />
  <rect x="174.4" y="109.1" class="st16" width="38.2" height="4.5" />
  <rect x="189" y="123" class="st15" width="44" height="4.5" />
  <rect x="278" y="123" class="st15" width="26" height="4.5" />
  <rect x="216" y="81.6" class="st15" width="17" height="4.5" />
  <linearGradient id="SVGID_9_" gradientUnits="userSpaceOnUse" x1="505.3345" y1="254.2836" x2="392.6786" y2="157.2026"
    gradientTransform="matrix(-1 0 0 1 745 -129)">
    <stop offset="0" style="stop-color:#DDF0FF" />
    <stop offset="0.8839" style="stop-color:#FFFFFF" />
  </linearGradient>
  <rect x="140.5" y="39.5" class="st18" width="228" height="146" />
  <path class="st19" d="M154.7,105.5l-4.8-8.8l-10.4,6.5c-0.3,0.2-0.7,0.4-1.3,0.6c1.8,3.6,4.8,9.1,4.8,9.1c0.3,0.7,1.3,0.7,1.7,0
	l2.2-4.2c0.3-0.7,1.5-1.6,2.4-1.6l4.2-0.2C154.7,106.9,155.2,106.4,154.7,105.5z" />
  <path class="st19" d="M121,96.7l-4.8,8.8c-0.3,0.7-0.2,1.4,1.1,1.4l4.2,0.2c0.9,0,2.1,0.7,2.4,1.6l2.2,4.2c0.3,0.7,1.3,0.7,1.7,0
	c0,0,3-5.5,4.8-9.1c-0.6-0.2-0.9-0.4-1.3-0.6L121,96.7z" />
  <linearGradient id="SVGID_10_" gradientUnits="userSpaceOnUse" x1="138.792" y1="190.5338" x2="114.326" y2="178.0669"
    gradientTransform="matrix(1 0 0 -1 0 272)">
    <stop offset="0" style="stop-color:#DDF0FF" />
    <stop offset="0.8839" style="stop-color:#FFFFFF" />
  </linearGradient>
  <path class="st20" d="M149.1,94.9c2.1-1.2,3.5-3.6,3.5-5.9V77.5c0-2.5-1.2-4.7-3.5-5.9l-10.2-5.7c-1.2-0.7-2.3-0.8-3.5-0.8
	c-1.2,0-2.5,0.3-3.5,0.8l-10.2,5.7c-2.1,1.2-3.5,3.6-3.5,5.9v11.5c0,2.3,1.4,4.7,3.5,5.9l10.2,5.7c1.1,0.7,2.3,0.8,3.5,0.8
	c1.2,0,2.5-0.3,3.5-0.8L149.1,94.9z" />
  <path class="st19" d="M149.1,94.9c2.1-1.2,3.5-3.6,3.5-5.9V77.5c0-2.5-1.2-4.7-3.5-5.9l-10.2-5.7c-1.2-0.7-2.3-0.8-3.5-0.8
	c-1.2,0-2.5,0.3-3.5,0.8l-10.2,5.7c-2.1,1.2-3.5,3.6-3.5,5.9v11.5c0,2.3,1.4,4.7,3.5,5.9l10.2,5.7c1.1,0.7,2.3,0.8,3.5,0.8
	c1.2,0,2.5-0.3,3.5-0.8L149.1,94.9z M135.4,96.4c-0.9,0-1.7-0.1-2.6-0.6l-7.4-4.2c-1.5-0.8-2.6-2.6-2.6-4.3V79c0-1.7,1-3.4,2.6-4.3
	l7.4-4.2c0.7-0.3,1.7-0.6,2.6-0.6c0.9,0,1.7,0.1,2.6,0.6l7.4,4.2c1.7,0.8,2.6,2.4,2.6,4.3v8.3c0,1.7-1,3.4-2.6,4.3l-7.4,4.2
	C137.2,96.2,136.3,96.4,135.4,96.4z" />
  <path class="st21" d="M131.1,78.9c0.4,0.4,0.4,1.1,0,1.5l-2.3,2.4l2.3,2.4c0.4,0.4,0.4,1.1,0,1.5c-0.4,0.4-1.1,0.4-1.5,0l-3-3.2
	c-0.4-0.4-0.4-1,0-1.4l3-3.1C130,78.5,130.6,78.5,131.1,78.9z" />
  <path class="st21" d="M139.7,78.9c0.4-0.4,1.1-0.4,1.5,0l3.1,3.1c0.4,0.4,0.4,1.1,0,1.5l-3.1,3.2c-0.4,0.4-1.1,0.4-1.5,0
	c-0.4-0.4-0.4-1.1,0-1.5l2.4-2.4l-2.3-2.3C139.3,79.9,139.3,79.3,139.7,78.9z" />
  <path class="st21" d="M137.5,78.6c0.5,0.2,0.8,0.8,0.6,1.4l-2.7,6.6c-0.2,0.5-0.8,0.8-1.4,0.6c-0.5-0.2-0.8-0.8-0.6-1.4l2.7-6.6
	C136.4,78.6,137,78.4,137.5,78.6z" />
  <linearGradient id="SVGID_11_" gradientUnits="userSpaceOnUse" x1="395.799" y1="204.808" x2="347.4299" y2="145.1729"
    gradientTransform="matrix(1 0 0 -1 0 272)">
    <stop offset="0" style="stop-color:#686DD5;stop-opacity:0.47" />
    <stop offset="1" style="stop-color:#8589E3;stop-opacity:0" />
  </linearGradient>
  <circle class="st22" cx="370" cy="99" r="35" />
  <path class="st12" d="M368,87.6v5.3l-12.4,4.2l12.4,4.1v5.4l-17.2-9.5L368,87.6z" />
  <path class="st12" d="M373,87.6l17.2,9.4l-17.2,9.5v-5.4l12.4-4.1L373,92.9V87.6z" />
  <path class="st12" d="M346.5,56.8c-1.5-0.6-3.1-1.7-4.3-3.2c-1.2-1.5-2.2-3.5-2.8-5.6l-0.7-2.5c-0.1-0.3-0.4-0.5-0.7-0.5
	c-0.3,0-0.6,0.2-0.7,0.5l-0.7,2.5c-0.6,2.2-1.6,4.1-2.8,5.6c-1.2,1.5-2.6,2.6-4.1,3.2c-0.3,0.1-0.5,0.4-0.5,0.7
	c0,0.3,0.2,0.6,0.5,0.7l0.2,0.1c3,1.3,5.4,4.4,6.7,8.6l0.8,2.6c0.1,0.3,0.4,0.5,0.7,0.5c0.3,0,0.6-0.2,0.7-0.5l0.8-2.6
	c1.3-4.2,3.9-7.3,6.9-8.6l0.2-0.1c0.3-0.1,0.5-0.4,0.5-0.7C347,57.2,346.8,56.9,346.5,56.8z" />
</svg>