<?xml version="1.0" encoding="utf-8"?>
<!-- Generator: Adobe Illustrator 25.2.0, SVG Export Plug-In . SVG Version: 6.00 Build 0)  -->
<svg version="1.1" id="Layer_1" xmlns="http://www.w3.org/2000/svg" xmlns:xlink="http://www.w3.org/1999/xlink" x="0px"
  y="0px" viewBox="0 0 490 312" style="enable-background:new 0 0 490 312;" xml:space="preserve">
  <style type="text/css">
    .st0 {
      fill: url(#SVGID_1_);
    }

    .st1 {
      fill: none;
      stroke: url(#SVGID_2_);
      stroke-width: 4;
    }

    .st2 {
      fill: none;
      stroke: url(#SVGID_3_);
      stroke-width: 4;
    }

    .st3 {
      fill: none;
      stroke: url(#SVGID_4_);
      stroke-width: 4;
    }

    .st4 {
      fill: url(#SVGID_5_);
    }

    .st5 {
      fill: url(#SVGID_6_);
    }

    .st6 {
      fill: url(#SVGID_7_);
    }

    .st7 {
      fill: #FFFFFF;
    }

    .st8 {
      fill: url(#SVGID_8_);
    }

    .st9 {
      fill: url(#SVGID_9_);
    }

    .st10 {
      fill: none;
      stroke: #FFD9D9;
    }

    .st11 {
      fill: url(#SVGID_10_);
    }

    .st12 {
      fill: url(#SVGID_11_);
    }

    .st13 {
      fill: url(#SVGID_12_);
    }

    .st14 {
      fill: #8689E3;
    }

    .st15 {
      fill: #515151;
    }

    .st16 {
      fill: #F278A4;
    }

    .st17 {
      fill: #E6EDFF;
      stroke: #FFFFFF;
      stroke-width: 6;
    }

    .st18 {
      fill: none;
      stroke: url(#SVGID_13_);
      stroke-width: 2;
    }

    .st19 {
      fill: none;
      stroke: url(#SVGID_14_);
      stroke-width: 2;
    }

    .st20 {
      fill: none;
      stroke: url(#SVGID_15_);
      stroke-width: 2;
    }

    .st21 {
      fill: #F8FAFF;
      filter: url(#Adobe_OpacityMaskFilter);
    }

    .st22 {
      mask: url(#mask0_407:11259_1_);
    }

    .st23 {
      fill: #17457C;
    }

    .st24 {
      fill-rule: evenodd;
      clip-rule: evenodd;
      fill: url(#SVGID_16_);
    }

    .st25 {
      fill: none;
      stroke: url(#SVGID_17_);
      stroke-width: 3;
    }

    .st26 {
      fill: none;
      stroke: url(#SVGID_18_);
      stroke-width: 2;
    }

    .st27 {
      fill: none;
      stroke: url(#SVGID_19_);
      stroke-width: 2;
    }

    .st28 {
      fill: none;
      stroke: url(#SVGID_20_);
      stroke-width: 2;
    }

    .st29 {
      fill: #F8FAFF;
      filter: url(#Adobe_OpacityMaskFilter_1_);
    }

    .st30 {
      mask: url(#mask1_407:11259_1_);
    }

    .st31 {
      fill-rule: evenodd;
      clip-rule: evenodd;
      fill: url(#SVGID_21_);
    }

    .st32 {
      fill: none;
      stroke: url(#SVGID_22_);
      stroke-width: 3;
    }

    .st33 {
      fill: none;
      stroke: #17457C;
      stroke-width: 0.6;
      stroke-linecap: round;
      stroke-linejoin: round;
    }

    .st34 {
      fill: none;
      stroke: url(#SVGID_23_);
      stroke-width: 2;
    }

    .st35 {
      fill: none;
      stroke: url(#SVGID_24_);
      stroke-width: 2;
    }

    .st36 {
      fill: none;
      stroke: url(#SVGID_25_);
      stroke-width: 2;
    }

    .st37 {
      fill: #F8FAFF;
      filter: url(#Adobe_OpacityMaskFilter_2_);
    }

    .st38 {
      mask: url(#mask2_407:11259_1_);
    }

    .st39 {
      fill-rule: evenodd;
      clip-rule: evenodd;
      fill: url(#SVGID_26_);
    }

    .st40 {
      fill: none;
      stroke: url(#SVGID_27_);
      stroke-width: 3;
    }

    .st41 {
      fill: url(#SVGID_28_);
    }

    .st42 {
      fill-rule: evenodd;
      clip-rule: evenodd;
      fill: #17457C;
    }

    .st43 {
      fill: url(#SVGID_29_);
    }

    .st44 {
      fill: url(#SVGID_30_);
    }

    .st45 {
      fill: #C4C4C4;
      filter: url(#Adobe_OpacityMaskFilter_3_);
    }

    .st46 {
      mask: url(#mask3_407:11259_1_);
    }

    .st47 {
      fill: none;
      stroke: url(#SVGID_31_);
      stroke-width: 4;
    }

    .st48 {
      fill: none;
      stroke: url(#SVGID_32_);
      stroke-width: 4;
    }

    .st49 {
      fill: none;
      stroke: url(#SVGID_33_);
      stroke-width: 4;
    }
  </style>
  <linearGradient id="SVGID_1_" gradientUnits="userSpaceOnUse" x1="269.9626" y1="233.3363" x2="89.1" y2="17.1619"
    gradientTransform="matrix(1 0 0 -1 0 314)">
    <stop offset="0" style="stop-color:#DDE4FF" />
    <stop offset="0.8839" style="stop-color:#FFFFFF" />
  </linearGradient>
  <rect class="st0" width="490" height="221" />
  <linearGradient id="SVGID_2_" gradientUnits="userSpaceOnUse" x1="145.425" y1="229.1176" x2="39.7369" y2="185.9471"
    gradientTransform="matrix(1 0 0 -1 0 314)">
    <stop offset="0" style="stop-color:#DBEFFF" />
    <stop offset="1" style="stop-color:#FFFFFF" />
  </linearGradient>
  <path class="st1" d="M68.4,131.8c1.1-9.9-2.9-19.6-10.7-25.8c-4.3-3.4-6.8-8.5-6.8-14c0-5.5,2.5-10.6,6.8-14
	c7.8-6.2,11.8-15.9,10.7-25.8c-0.6-5.4,1.2-10.8,5.1-14.7l0,0c3.9-3.9,9.2-5.7,14.7-5.1l0,0c9.9,1.1,19.6-2.9,25.8-10.7l0,0
	c3.4-4.3,8.5-6.8,14-6.8s10.6,2.5,14,6.8v0c6.2,7.8,15.9,11.8,25.8,10.7l0,0c5.4-0.6,10.8,1.2,14.7,5.1l0,0
	c3.9,3.9,5.7,9.2,5.1,14.7c-1.1,9.9,2.9,19.6,10.7,25.8c4.3,3.4,6.8,8.5,6.8,14c0,5.5-2.5,10.6-6.8,14c-7.8,6.2-11.8,15.9-10.7,25.8
	c0.6,5.4-1.2,10.8-5.1,14.7l0,0c-3.9,3.9-9.2,5.7-14.7,5.1c-9.9-1.1-19.6,2.9-25.8,10.7l0,0c-3.4,4.3-8.5,6.8-14,6.8
	c-5.5,0-10.6-2.5-14-6.8l0,0c-6.2-7.8-15.9-11.8-25.8-10.7h0c-5.4,0.6-10.8-1.2-14.7-5.1h0C69.7,142.6,67.8,137.2,68.4,131.8z
	 M68.4,131.8l-2-0.2" />
  <linearGradient id="SVGID_3_" gradientUnits="userSpaceOnUse" x1="141.4832" y1="227.8208" x2="32.4096" y2="180.7337"
    gradientTransform="matrix(1 0 0 -1 0 314)">
    <stop offset="0" style="stop-color:#DDF0FF" />
    <stop offset="0.7146" style="stop-color:#FFFFFF" />
  </linearGradient>
  <path class="st2" d="M171.3,48.7L171.3,48.7c-3-3-7.2-4.5-11.4-4l0,0c-8.1,0.9-15.9-2.3-21-8.7v0c-2.6-3.3-6.6-5.3-10.9-5.3
	s-8.2,1.9-10.9,5.3v0c-5.1,6.4-12.9,9.6-21,8.7l0,0c-4.2-0.5-8.4,1-11.4,4l0,0c-3,3-4.5,7.2-4,11.4 M171.3,48.7c3,3,4.5,7.2,4,11.4
	c-0.9,8.1,2.3,16,8.7,21c3.3,2.7,5.3,6.6,5.3,10.9c0,4.3-1.9,8.2-5.2,10.9c-6.4,5.1-9.6,12.9-8.7,21c0.5,4.2-1,8.4-4,11.4h0
	c-3,3-7.2,4.5-11.4,4l0,0c-8.1-0.9-15.9,2.3-21,8.7l0,0c-2.6,3.3-6.6,5.2-10.9,5.2s-8.2-1.9-10.9-5.2v0c-5.1-6.4-12.9-9.6-21-8.7h0
	c-4.2,0.5-8.4-1-11.4-4h0 M84.7,135.3c-3-3-4.5-7.2-4-11.4 M72,81.1c-3.3,2.7-5.2,6.6-5.2,10.9s1.9,8.2,5.3,10.9
	c6.4,5.1,9.6,12.9,8.7,21 M80.8,123.9l-2-0.2 M72,81.1c6.4-5.1,9.6-12.9,8.7-21" />
  <linearGradient id="SVGID_4_" gradientUnits="userSpaceOnUse" x1="136.2809" y1="226.4645" x2="74.0685" y2="192.9275"
    gradientTransform="matrix(1 0 0 -1 0 314)">
    <stop offset="0" style="stop-color:#DDF0FF" />
    <stop offset="0.8839" style="stop-color:#FFFFFF" />
  </linearGradient>
  <path class="st3" d="M158.5,61.5L158.5,61.5c-2-2-4.8-3-7.7-2.7v0c-6,0.7-11.8-1.7-15.5-6.4v0c-1.8-2.2-4.4-3.5-7.3-3.5
	c-2.9,0-5.5,1.3-7.3,3.5v0c-3.7,4.7-9.5,7.1-15.5,6.4l0,0c-2.9-0.3-5.6,0.6-7.7,2.7l0,0c-2,2-3,4.8-2.7,7.7 M158.5,61.5
	c2,2,3,4.8,2.7,7.7c-0.7,6,1.7,11.8,6.4,15.5c2.2,1.8,3.5,4.4,3.5,7.3c0,2.9-1.3,5.5-3.5,7.3c-4.7,3.7-7.1,9.5-6.4,15.5
	c0.3,2.9-0.6,5.6-2.7,7.7l0,0c-2,2-4.8,3-7.7,2.7l0,0c-6-0.7-11.8,1.7-15.5,6.4v0c-1.8,2.2-4.4,3.5-7.3,3.5c-2.9,0-5.5-1.3-7.3-3.5
	l0,0c-3.7-4.7-9.5-7.1-15.5-6.4l0,0c-2.8,0.3-5.6-0.6-7.7-2.7h0 M97.5,122.5c-2-2-3-4.8-2.7-7.7c0.7-6-1.7-11.8-6.4-15.5
	c-2.2-1.8-3.5-4.4-3.5-7.3c0-2.9,1.3-5.5,3.5-7.3 M88.4,84.7c4.7-3.7,7.1-9.5,6.4-15.5" />
  <linearGradient id="SVGID_5_" gradientUnits="userSpaceOnUse" x1="338.2248" y1="6.5829" x2="164.6208" y2="48.7809"
    gradientTransform="matrix(1 0 0 -1 0 314)">
    <stop offset="0" style="stop-color:#6A5C8B" />
    <stop offset="1" style="stop-color:#7C74A0;stop-opacity:0" />
  </linearGradient>
  <rect x="212" y="270" class="st4" width="68" height="30" />
  <linearGradient id="SVGID_6_" gradientUnits="userSpaceOnUse" x1="287.672" y1="-47.2471" x2="162.612" y2="105.1599"
    gradientTransform="matrix(1 0 0 -1 0 314)">
    <stop offset="0" style="stop-color:#6A5C8B" />
    <stop offset="1" style="stop-color:#7C74A0;stop-opacity:0" />
  </linearGradient>
  <path class="st5" d="M187,312c0-6.6,5.4-12,12-12h93c6.6,0,12,5.4,12,12H187z" />
  <linearGradient id="SVGID_7_" gradientUnits="userSpaceOnUse" x1="315.841" y1="159.9925" x2="701.8409" y2="108.9925"
    gradientTransform="matrix(-1 0 0 1 750 40)">
    <stop offset="0" style="stop-color:#6A5C8B" />
    <stop offset="1" style="stop-color:#7C74A0;stop-opacity:0" />
  </linearGradient>
  <path class="st6"
    d="M373,270H117c-3.3,0-6-2.7-6-6V86c0-3.3,2.7-6,6-6h256c3.3,0,6,2.7,6,6v178C379,267.3,376.3,270,373,270z" />
  <path class="st7"
    d="M122,88h245.9c1.1,0,2,0.9,2,2v162.6c0,1.1-0.9,2-2,2H122c-1.1,0-2-0.9-2-2V90C120,88.9,120.9,88,122,88z" />
  <radialGradient id="SVGID_8_" cx="-4.1669" cy="406.3828" r="1"
    gradientTransform="matrix(112.5254 -29.0749 -36.9041 -142.8263 15598.3193 58175.625)"
    gradientUnits="userSpaceOnUse">
    <stop offset="0" style="stop-color:#E6B6EA;stop-opacity:0.61" />
    <stop offset="1" style="stop-color:#E6B6EA;stop-opacity:0" />
  </radialGradient>
  <path class="st8"
    d="M122,88h245.9c1.1,0,2,0.9,2,2v162.6c0,1.1-0.9,2-2,2H122c-1.1,0-2-0.9-2-2V90C120,88.9,120.9,88,122,88z" />
  <radialGradient id="SVGID_9_" cx="-3.3643" cy="407.398" r="1"
    gradientTransform="matrix(-68.9912 85.6904 120.2417 96.8092 -48862.7266 -39027.8867)"
    gradientUnits="userSpaceOnUse">
    <stop offset="0" style="stop-color:#386FCE;stop-opacity:0.46" />
    <stop offset="0.7604" style="stop-color:#386FCE;stop-opacity:7.000000e-02" />
    <stop offset="1" style="stop-color:#386FCE;stop-opacity:0" />
  </radialGradient>
  <path class="st9" d="M367.9,254.6H122c-1.1,0-2-0.9-2-2V90c0-1.1,0.9-2,2-2h245.9c1.1,0,2,0.9,2,2v162.6
	C369.9,253.7,369,254.6,367.9,254.6z" />
  <path class="st10" d="M372,249.5H125c-0.8,0-1.5-0.7-1.5-1.5V85c0-0.8,0.7-1.5,1.5-1.5h247c0.8,0,1.5,0.7,1.5,1.5v163
	C373.5,248.8,372.8,249.5,372,249.5z" />
  <linearGradient id="SVGID_10_" gradientUnits="userSpaceOnUse" x1="267.8319" y1="205.4924" x2="224.0879" y2="95.8274"
    gradientTransform="matrix(1 0 0 -1 0 314)">
    <stop offset="0" style="stop-color:#686DD5;stop-opacity:0.47" />
    <stop offset="1" style="stop-color:#8589E3;stop-opacity:0" />
  </linearGradient>
  <rect x="153" y="122" class="st11" width="183" height="90" />
  <linearGradient id="SVGID_11_" gradientUnits="userSpaceOnUse" x1="233.3418" y1="66.7842" x2="256.1108" y2="37.6363"
    gradientTransform="matrix(1 0 0 -1 0 314)">
    <stop offset="0" style="stop-color:#6A5C8B" />
    <stop offset="1" style="stop-color:#7C74A0;stop-opacity:0" />
  </linearGradient>
  <path class="st12" d="M225.5,260h38c0.8,0,1.5,0.7,1.5,1.5l0,0c0,0.8-0.7,1.5-1.5,1.5h-38c-0.8,0-1.5-0.7-1.5-1.5l0,0
	C224,260.7,224.7,260,225.5,260z" />
  <linearGradient id="SVGID_12_" gradientUnits="userSpaceOnUse" x1="318.8461" y1="-4.4137" x2="222.0441" y2="49.2903"
    gradientTransform="matrix(1 0 0 -1 0 314)">
    <stop offset="0" style="stop-color:#6A5C8B" />
    <stop offset="1" style="stop-color:#7C74A0;stop-opacity:0" />
  </linearGradient>
  <path class="st13" d="M212,270v16l68-8v-8H212z" />
  <rect x="209.1" y="169" class="st14" width="114.9" height="4.3" />
  <rect x="209.1" y="178.6" class="st15" width="51.7" height="4.3" />
  <rect x="209.1" y="188.3" class="st15" width="17.2" height="4.3" />
  <rect x="306.8" y="197.9" class="st15" width="17.2" height="4.3" />
  <rect x="230.9" y="188.3" class="st15" width="44.8" height="4.3" />
  <rect x="257.4" y="197.9" class="st16" width="44.8" height="4.3" />
  <rect x="280.3" y="188.3" class="st15" width="43.7" height="4.3" />
  <rect x="209.1" y="197.9" class="st15" width="43.7" height="4.3" />
  <circle class="st17" cx="172.5" cy="75.5" r="27.5" />
  <g>

    <linearGradient id="SVGID_13_" gradientUnits="userSpaceOnUse" x1="176.8563" y1="240.4469" x2="140.3159"
      y2="224.6726" gradientTransform="matrix(1 0 0 -1 0 314)">
      <stop offset="0" style="stop-color:#D2DCF7" />
      <stop offset="0.474" style="stop-color:#FFFFFF" />
    </linearGradient>
    <path class="st18"
      d="M186.8,61.1L186.8,61.1c-0.9-0.9-2.2-1.4-3.6-1.2l0,0c-2.8,0.3-5.6-0.8-7.4-3.1v0c-0.8-1-2.1-1.6-3.4-1.6
		c-1.3,0-2.6,0.6-3.4,1.6l0,0c-1.8,2.2-4.5,3.4-7.4,3.1v0c-1.3-0.2-2.6,0.3-3.6,1.2v0c-0.9,0.9-1.4,2.2-1.2,3.6 M186.8,61.1
		c0.9,0.9,1.4,2.2,1.2,3.6c-0.3,2.8,0.8,5.6,3.1,7.4c1,0.8,1.6,2.1,1.6,3.4c0,1.3-0.6,2.6-1.6,3.4c-2.2,1.8-3.4,4.5-3.1,7.4
		c0.2,1.3-0.3,2.6-1.2,3.6v0c-0.9,0.9-2.2,1.4-3.6,1.2l0,0c-2.8-0.3-5.6,0.8-7.4,3.1v0c-0.8,1-2.1,1.6-3.4,1.6
		c-1.3,0-2.6-0.6-3.4-1.6v0c-1.8-2.2-4.5-3.4-7.4-3.1h0c-1.3,0.2-2.6-0.3-3.6-1.2l0,0 M158.1,89.8c-0.9-0.9-1.4-2.2-1.2-3.6
		 M156.9,86.2c0.3-2.8-0.8-5.6-3.1-7.4c-1-0.8-1.6-2.1-1.6-3.4c0-1.3,0.6-2.6,1.6-3.4 M153.8,72c2.2-1.8,3.4-4.5,3.1-7.4" />

    <linearGradient id="SVGID_14_" gradientUnits="userSpaceOnUse" x1="176.1946" y1="240.1612" x2="147.2747"
      y2="227.6766" gradientTransform="matrix(1 0 0 -1 0 314)">
      <stop offset="0" style="stop-color:#D2DCF7" />
      <stop offset="0.474" style="stop-color:#FFFFFF" />
    </linearGradient>
    <path class="st19" d="M183.8,64.1L183.8,64.1c-0.7-0.7-1.7-1.1-2.7-0.9v0c-2.3,0.3-4.6-0.7-6.1-2.5l0,0c-0.6-0.8-1.6-1.2-2.6-1.2
		c-1,0-1.9,0.5-2.6,1.2l0,0c-1.5,1.8-3.7,2.8-6.1,2.5l0,0c-1-0.1-2,0.2-2.7,0.9v0c-0.7,0.7-1.1,1.7-0.9,2.7c0.3,2.3-0.7,4.6-2.5,6.1
		c-0.8,0.6-1.2,1.6-1.2,2.6c0,1,0.5,1.9,1.2,2.6 M183.8,64.1c0.7,0.7,1.1,1.7,0.9,2.7 M161.1,86.8L161.1,86.8
		c0.7,0.7,1.7,1.1,2.7,0.9l0,0c2.3-0.3,4.6,0.7,6.1,2.5v0c0.6,0.8,1.6,1.2,2.6,1.2c1,0,1.9-0.5,2.6-1.2v0c1.5-1.8,3.7-2.8,6.1-2.5
		l0,0c1,0.1,2-0.2,2.7-0.9v0c0.7-0.7,1.1-1.7,0.9-2.7 M161.1,86.8c-0.4-0.4-0.6-0.8-0.8-1.2c-0.2-0.5-0.2-1-0.2-1.5 M184.7,66.8
		c-0.3,2.3,0.7,4.6,2.5,6.1 M187.3,72.9c0.8,0.6,1.2,1.6,1.2,2.6c0,1-0.5,1.9-1.2,2.6 M187.3,78c-1.8,1.5-2.8,3.7-2.5,6.1
		 M160.2,84.1c0.3-2.3-0.7-4.6-2.5-6.1" />

    <linearGradient id="SVGID_15_" gradientUnits="userSpaceOnUse" x1="174.914" y1="239.6082" x2="155.2638" y2="231.125"
      gradientTransform="matrix(1 0 0 -1 0 314)">
      <stop offset="0" style="stop-color:#D2DCF7" />
      <stop offset="0.474" style="stop-color:#FFFFFF" />
    </linearGradient>
    <path class="st20" d="M180.4,67.6L180.4,67.6c-0.4-0.4-1.1-0.7-1.7-0.6h0c-1.8,0.2-3.5-0.5-4.6-1.9v0c-0.4-0.5-1-0.8-1.6-0.8
		c-0.6,0-1.2,0.3-1.6,0.8l0,0c-1.1,1.4-2.8,2.1-4.6,1.9h0c-0.6-0.1-1.2,0.1-1.7,0.6v0c-0.4,0.4-0.7,1.1-0.6,1.7 M180.4,67.6
		c0.4,0.4,0.7,1.1,0.6,1.7 M164.6,83.4L164.6,83.4c0.4,0.4,1.1,0.7,1.7,0.6l0,0c1.8-0.2,3.5,0.5,4.6,1.9v0c0.4,0.5,1,0.8,1.6,0.8
		c0.6,0,1.2-0.3,1.6-0.8l0,0c1.1-1.4,2.8-2.1,4.6-1.9l0,0c0.6,0.1,1.2-0.1,1.7-0.6v0c0.4-0.4,0.7-1.1,0.6-1.7 M164.6,83.4
		c-0.2-0.2-0.4-0.5-0.5-0.9c-0.1-0.3-0.1-0.5-0.1-0.8 M180.9,69.2c-0.2,1.8,0.5,3.5,1.9,4.6 M182.8,73.8c0.5,0.4,0.8,1,0.8,1.6
		c0,0.6-0.3,1.2-0.8,1.6 M162.1,77.1c-0.5-0.4-0.8-1-0.8-1.6c0-0.6,0.3-1.2,0.8-1.6 M162.1,73.8c1.4-1.1,2.1-2.8,1.9-4.6 M164,81.7
		c0.2-1.8-0.5-3.5-1.9-4.6 M182.8,77.1c-1.4,1.1-2.1,2.8-1.9,4.6" />
  </g>
  <defs>
    <filter id="Adobe_OpacityMaskFilter" filterUnits="userSpaceOnUse" x="120.3" y="60.6" width="84.5" height="86.8">
      <feColorMatrix type="matrix" values="1 0 0 0 0  0 1 0 0 0  0 0 1 0 0  0 0 0 1 0" />
    </filter>
  </defs>
  <mask maskUnits="userSpaceOnUse" x="120.3" y="60.6" width="84.5" height="86.8" id="mask0_407:11259_1_">
    <circle class="st21" cx="172.5" cy="75.5" r="30.5" />
  </mask>
  <g class="st22">
    <path class="st23" d="M127.8,114.8c-0.4-0.1-0.6-0.4-0.7-0.6c-0.6-1.2,0.7-2.2,1.6-2.9c0.3-0.2,0.6-0.5,0.8-0.6l-0.1-0.9
		c-0.8,0.1-2.1,0.8-3.4,1.3c-2.4,1.1-4.7,2.2-5.5,0.9c-0.9-1.7,1.5-3.5,2.6-4.2c-0.6-1.1-0.2-2.3,0-2.8c-0.2-0.3-0.4-1-0.2-1.9
		c0.4-1.2,1.4-2.2,3.2-3c1.8-0.8,4.9-0.9,8.5-1c6.5-0.1,14.6-0.3,20-4.6c0.7-0.5,1.6-1.5,2.8-2.6c4.4-4.4,11.8-11.9,20.8-12.1l0.4,0
		l1.2,9.1l-0.1,0.1c-0.6,0.6-14.1,15.5-21.6,19.7c-5,2.8-10.3,2.4-14.1,2.2c-1.9-0.1-3.5-0.2-4.2,0.1c-1.4,0.7-2.5,0.7-3.5,0.8
		c-0.8,0.1-1.4,0.1-1.9,0.4C134.3,112.5,129.7,115.3,127.8,114.8C127.9,114.9,127.8,114.8,127.8,114.8z M130.2,109.1l0.2,1.9l0,0.1
		c-0.1,0.3-0.6,0.6-1,1c-0.9,0.7-1.6,1.3-1.4,1.9c0,0,0,0.1,0.2,0.1c1.1,0.3,4.3-1.3,5.8-2.3c0.7-0.4,1.5-0.5,2.3-0.6
		c0.9-0.1,2-0.1,3.1-0.7c1-0.5,2.5-0.4,4.7-0.2c3.8,0.3,8.9,0.6,13.6-2.1c7-3.9,19.8-17.8,21.2-19.4l-1-8
		c-8.5,0.4-15.6,7.5-19.8,11.8c-1.2,1.2-2.1,2.1-2.8,2.7c-5.6,4.5-13.9,4.7-20.5,4.8c-3.5,0.1-6.6,0.2-8.2,0.9
		c-1.5,0.7-2.5,1.5-2.7,2.4c-0.2,0.8,0.2,1.5,0.2,1.5l0.2,0.2l-0.1,0.2c0,0-0.8,1.5,0,2.4l0.3,0.4l-0.4,0.3
		c-0.9,0.5-3.3,2.2-2.7,3.3c0.4,0.7,2.8-0.5,4.4-1.2c1.6-0.8,3.2-1.5,4.1-1.4L130.2,109.1z" />
    <path class="st23" d="M193.1,147c-0.4-0.1-0.8-0.3-1-0.8c-0.7-1-0.4-3.2-0.1-5.2l-0.1,0c-0.3,0.8-1.3,3-2.7,3.5
		c-0.5,0.1-1,0-1.4-0.3c-0.2-0.1-0.4-0.5-0.4-1.7c0.1-2,1.1-7.4,5.1-9.9c0.2-12-0.5-20.5-2.3-25.4c-3.4-9.2-12.3-27-12.3-27.1
		l-0.3-0.6l0.7,0c14.5-0.2,24.6,15.9,26,31.7c1.8,20.2,0.9,32-2.7,35.2c-0.9,0.7-1.9,1-3,0.8c-0.4,0.1-2,0.4-3.2-0.4
		C194.4,147,193.7,147.2,193.1,147z M192.8,140l-0.1,0.9c-0.2,1.7-0.6,4.1,0,4.9c0.7,1,2.1,0.2,2.1,0.2l0.3-0.1l0.2,0.2
		c1.1,1,2.8,0.4,2.8,0.4l0.1,0l0.1,0c0.9,0.2,1.7,0,2.4-0.6c2.3-2,4.6-9.7,2.4-34.4c-1.3-15.2-10.8-30.6-24.5-30.9
		c1.6,3.2,9,18.3,12.1,26.6c1.8,5,2.6,13.7,2.4,25.9l0,0.2l-0.2,0.1c-4.3,2.5-5.2,9.4-4.8,10.4c0.3,0.1,0.4,0.2,0.7,0.1
		c1-0.3,2-2.5,2.2-3.2l0.1-0.2L192.8,140z" />

    <linearGradient id="SVGID_16_" gradientUnits="userSpaceOnUse" x1="183.8237" y1="233.5753" x2="171.2397"
      y2="191.5359" gradientTransform="matrix(1 0 0 -1 0 314)">
      <stop offset="0" style="stop-color:#5F5FFF" />
      <stop offset="1" style="stop-color:#C2DBFF" />
    </linearGradient>
    <path class="st24" d="M194.1,102.5c1.6,10.3,1.1,20.4,1.1,21.2l0,0.5l-37.1-5.6l0.1-0.5l0,0c0.1-0.3,1.4-4.3,4.1-16.2
		c0,0,0,0-0.1-0.1c-0.9-1.1-1.8-2.2-2.7-3.4v0c-1.2-1.6-2.5-3.2-3.9-4.7l-0.3-0.3l0.3-0.3c0.2-0.2,0.4-0.4,0.6-0.7l0,0
		c0.2-0.2,0.5-0.5,0.8-0.8l0.1-0.1c3.6-3.6,9-9.1,15.7-11.1c1.6-0.6,3.2-0.8,5-0.9l0,0h0c0.4,0,0.8,0,1.2,0
		c9.2,0.4,17.6,7.8,22,19.5l0.1,0.4l-0.3,0.2v0c-0.5,0.2-0.9,0.4-1.5,0.6C197.7,101.1,195.9,101.8,194.1,102.5z" />
    <path class="st23" d="M163,100.6c-0.2-0.1-0.3-0.3-0.3-0.5l2.4-9.2c0.1-0.2,0.3-0.4,0.5-0.3c0.2,0.1,0.4,0.3,0.3,0.5l-2.4,9.2
		C163.5,100.5,163.3,100.6,163,100.6C163.1,100.6,163,100.6,163,100.6z" />
    <path class="st23" d="M187.9,102c-0.1,0-0.3-0.1-0.3-0.3c-1.7-4.6-2.4-6.8-2.4-6.8c-0.1-0.2,0-0.5,0.3-0.5c0.2-0.1,0.5,0,0.5,0.3
		c0,0,0.7,2.2,2.4,6.8c0.1,0.2,0,0.5-0.2,0.6C188.1,101.9,188,102,187.9,102z" />
    <path class="st7" d="M182.4,73c0.7-1.8-0.5-3.7-3-3.6c-0.4,0-0.7,0.1-1.1,0.2c0,0,0,0,0-0.1c-1.5-4.2-5.7-6.6-9.5-5.3
		c-3.8,1.3-5,5.6-4.2,10c0.7,4,4.3,7.5,9.5,5.3c1.7-0.8,3.1-2.1,3.9-3.8C180.1,76,181.8,74.6,182.4,73z" />
    <path class="st23" d="M168.4,80.2c-0.2-0.1-0.3-0.1-0.4-0.2c-2-1.1-3.3-3.2-3.8-5.6c-0.9-5.1,0.9-9.2,4.5-10.4
		c3.9-1.4,8.3,1,9.9,5.2c0.3-0.1,0.6-0.1,0.8-0.1c1.3-0.1,2.4,0.4,3.1,1.3c0.6,0.8,0.7,1.8,0.3,2.8c-0.6,1.5-2.3,3.1-4.6,3
		c-0.9,1.7-2.3,3-4,3.8C171.7,81.2,169.7,80.8,168.4,80.2z M173.7,65c-1.5-0.7-3.1-0.8-4.7-0.3c-3.9,1.4-4.6,5.9-4,9.5
		c0.4,2.3,1.6,4.1,3.4,5c1.6,0.9,3.5,0.9,5.5,0c1.6-0.7,2.9-2,3.7-3.6l0.1-0.3l0.3,0c1.9,0.2,3.4-1.1,4-2.5c0.3-0.7,0.2-1.4-0.2-2
		c-0.5-0.7-1.4-1-2.4-1c-0.3,0-0.6,0.1-1.1,0.2l-0.4,0.1l-0.1-0.4C177.2,67.6,175.6,65.9,173.7,65z" />
    <path class="st23" d="M170.5,72.9c0.2-0.2,0.2-0.6,0-0.8c-0.2-0.2-0.6-0.3-0.8,0c-0.2,0.2-0.2,0.6,0,0.8
		C169.9,73.1,170.2,73.1,170.5,72.9z" />
    <path class="st23" d="M167,76.1c-0.2-1.2-0.3-2.5-0.2-3.7c0-0.4,0.6-0.3,0.5,0c-0.1,1.2,0,2.4,0.2,3.6
		C167.7,76.3,167.1,76.4,167,76.1z" />
    <path class="st23" d="M166.3,68.3c1.8,0.1,8.3-1.8,8.7,1.9c0.1,1-0.2,1.6,0.8,1.8c1,0,1.3-1.1,1.3-1.1c1-0.6,1.6-1.4,2.4-1.4
		c3.2-2.1,0.3-7.8-3.2-6.8c0,0-5-3.9-8.2-1.1c-3.4-0.1-5.5,1.6-5.8,4C161.7,69.6,166.3,68.3,166.3,68.3z" />
    <path class="st23" d="M177.5,73c0.5-1.2,1.7-2,3.1-1.8c0.4,0,0.3,0.6,0,0.5c-1-0.2-2.1,0.4-2.5,1.4C177.9,73.5,177.4,73.3,177.5,73
		z" />
  </g>
  <linearGradient id="SVGID_17_" gradientUnits="userSpaceOnUse" x1="129.0747" y1="242.5677" x2="217.6887" y2="234.2672"
    gradientTransform="matrix(1 0 0 -1 0 314)">
    <stop offset="0" style="stop-color:#D1D5F9" />
    <stop offset="1" style="stop-color:#7EA0F7;stop-opacity:0" />
  </linearGradient>
  <circle class="st25" cx="172.5" cy="75.5" r="29" />
  <circle class="st7" cx="164.5" cy="72.8" r="1.9" />
  <path class="st23" d="M165,73.5c0.2-0.2,0.3-0.6,0-0.8c-0.2-0.2-0.6-0.3-0.8,0c-0.2,0.2-0.3,0.6,0,0.8
	C164.4,73.7,164.8,73.7,165,73.5z" />
  <path class="st23" d="M168.8,72.5c0,0.2-0.1,0.3-0.2,0.3c-0.2,0-0.3-0.1-0.3-0.2L168.8,72.5z M166.9,72.7c0,0.2-0.1,0.3-0.2,0.3
	c-0.2,0-0.3-0.1-0.3-0.2L166.9,72.7z M172.2,72.2c-0.2,0.1-0.3,0-0.4-0.2c-0.1-0.2,0-0.3,0.2-0.4L172.2,72.2z M176.7,70.4
	c0.2,0,0.3,0.1,0.3,0.3s-0.1,0.3-0.3,0.3V70.4z M168.8,72.4c0.2,1,1,1.6,1.8,1.5l0.1,0.6c-1.2,0.2-2.3-0.7-2.5-2L168.8,72.4z
	 M170.6,73.9c0.8-0.1,1.4-1,1.2-2l0.6-0.1c0.2,1.3-0.5,2.5-1.7,2.7L170.6,73.9z M171.8,71.9c-0.2-1-1-1.6-1.8-1.5l-0.1-0.6
	c1.2-0.2,2.3,0.7,2.5,2L171.8,71.9z M170,70.4c-0.8,0.1-1.4,1-1.2,2l-0.6,0.1c-0.2-1.3,0.5-2.5,1.7-2.7L170,70.4z M163.2,73
	c0.2,1,1,1.6,1.8,1.5l0.1,0.6c-1.2,0.2-2.3-0.7-2.5-2L163.2,73z M165.1,74.5c0.8-0.1,1.4-1,1.2-2l0.6-0.1c0.2,1.3-0.5,2.5-1.7,2.7
	L165.1,74.5z M166.3,72.5c-0.2-1-1-1.6-1.8-1.5l-0.1-0.6c1.2-0.2,2.3,0.7,2.5,2L166.3,72.5z M164.5,71c-0.8,0.1-1.4,1-1.2,2
	l-0.6,0.1c-0.2-1.3,0.5-2.5,1.7-2.7L164.5,71z M168.2,72.6c0-0.1-0.1-0.1-0.2-0.2c-0.1-0.1-0.3-0.1-0.5-0.1c-0.2,0-0.4,0.1-0.5,0.2
	c-0.1,0-0.1,0.1-0.1,0.1c0,0,0,0,0,0l-0.6,0.1c-0.1-0.3,0.2-0.6,0.4-0.7c0.2-0.1,0.5-0.2,0.8-0.3c0.3,0,0.6,0,0.8,0.1
	c0.3,0.1,0.5,0.3,0.6,0.6L168.2,72.6z M172.1,71.9c-0.1-0.3-0.1-0.3-0.1-0.3s0,0,0,0c0,0,0,0,0,0c0,0,0,0,0,0c0,0,0,0,0,0
	c0,0,0,0,0,0c0,0,0.1,0,0.1,0c0.1,0,0.2-0.1,0.4-0.1c0.3-0.1,0.7-0.3,1.2-0.4c1-0.3,2.1-0.6,3-0.6V71c-0.7,0-1.8,0.3-2.8,0.6
	c-0.5,0.2-0.9,0.3-1.2,0.4c-0.2,0.1-0.3,0.1-0.4,0.1c0,0-0.1,0-0.1,0c0,0,0,0,0,0c0,0,0,0,0,0c0,0,0,0,0,0s0,0,0,0c0,0,0,0,0,0
	S172.2,72.2,172.1,71.9z" />
  <circle class="st17" cx="246.5" cy="75.5" r="27.5" />
  <g>

    <linearGradient id="SVGID_18_" gradientUnits="userSpaceOnUse" x1="250.6523" y1="240.6148" x2="214.1119"
      y2="224.8405" gradientTransform="matrix(1 0 0 -1 0 314)">
      <stop offset="0" style="stop-color:#D2DCF7" />
      <stop offset="0.474" style="stop-color:#FFFFFF" />
    </linearGradient>
    <path class="st26"
      d="M260.6,60.9L260.6,60.9c-0.9-0.9-2.2-1.4-3.6-1.2l0,0c-2.8,0.3-5.6-0.8-7.4-3.1v0c-0.8-1-2.1-1.6-3.4-1.6
		c-1.3,0-2.6,0.6-3.4,1.6l0,0c-1.8,2.2-4.5,3.4-7.4,3.1v0c-1.3-0.2-2.6,0.3-3.6,1.2v0c-0.9,0.9-1.4,2.2-1.2,3.6 M260.6,60.9
		c0.9,0.9,1.4,2.2,1.2,3.6c-0.3,2.8,0.8,5.6,3.1,7.4c1,0.8,1.6,2.1,1.6,3.4c0,1.3-0.6,2.6-1.6,3.4c-2.2,1.8-3.4,4.5-3.1,7.4
		c0.2,1.3-0.3,2.6-1.2,3.6v0c-0.9,0.9-2.2,1.4-3.6,1.2l0,0c-2.8-0.3-5.6,0.8-7.4,3.1v0c-0.8,1-2.1,1.6-3.4,1.6
		c-1.3,0-2.6-0.6-3.4-1.6v0c-1.8-2.2-4.5-3.4-7.4-3.1h0c-1.3,0.2-2.6-0.3-3.6-1.2l0,0 M231.9,89.6c-0.9-0.9-1.4-2.2-1.2-3.6
		 M230.6,86.1c0.3-2.8-0.8-5.6-3.1-7.4c-1-0.8-1.6-2.1-1.6-3.4c0-1.3,0.6-2.6,1.6-3.4 M227.6,71.9c2.2-1.8,3.4-4.5,3.1-7.4" />

    <linearGradient id="SVGID_19_" gradientUnits="userSpaceOnUse" x1="249.9906" y1="240.3292" x2="221.0707"
      y2="227.8445" gradientTransform="matrix(1 0 0 -1 0 314)">
      <stop offset="0" style="stop-color:#D2DCF7" />
      <stop offset="0.474" style="stop-color:#FFFFFF" />
    </linearGradient>
    <path class="st27" d="M257.6,63.9L257.6,63.9c-0.7-0.7-1.7-1.1-2.7-0.9v0c-2.3,0.3-4.6-0.7-6.1-2.5l0,0c-0.6-0.8-1.6-1.2-2.6-1.2
		c-1,0-1.9,0.5-2.6,1.2l0,0c-1.5,1.8-3.7,2.8-6.1,2.5l0,0c-1-0.1-2,0.2-2.7,0.9v0c-0.7,0.7-1.1,1.7-0.9,2.7c0.3,2.3-0.7,4.6-2.5,6.1
		c-0.8,0.6-1.2,1.6-1.2,2.6c0,1,0.5,1.9,1.2,2.6 M257.6,63.9c0.7,0.7,1.1,1.7,0.9,2.7 M234.9,86.6L234.9,86.6
		c0.7,0.7,1.7,1.1,2.7,0.9l0,0c2.3-0.3,4.6,0.7,6.1,2.5v0c0.6,0.8,1.6,1.2,2.6,1.2c1,0,1.9-0.5,2.6-1.2v0c1.5-1.8,3.7-2.8,6.1-2.5
		l0,0c1,0.1,2-0.2,2.7-0.9v0c0.7-0.7,1.1-1.7,0.9-2.7 M234.9,86.6c-0.4-0.4-0.6-0.8-0.8-1.2c-0.2-0.5-0.2-1-0.2-1.5 M258.5,66.6
		c-0.3,2.3,0.7,4.6,2.5,6.1 M261.1,72.7c0.8,0.6,1.2,1.6,1.2,2.6c0,1-0.5,1.9-1.2,2.6 M261.1,77.9c-1.8,1.5-2.8,3.7-2.5,6.1
		 M234,83.9c0.3-2.3-0.7-4.6-2.5-6.1" />

    <linearGradient id="SVGID_20_" gradientUnits="userSpaceOnUse" x1="248.71" y1="239.7762" x2="229.0597" y2="231.293"
      gradientTransform="matrix(1 0 0 -1 0 314)">
      <stop offset="0" style="stop-color:#D2DCF7" />
      <stop offset="0.474" style="stop-color:#FFFFFF" />
    </linearGradient>
    <path class="st28" d="M254.2,67.4L254.2,67.4c-0.4-0.4-1.1-0.7-1.7-0.6h0c-1.8,0.2-3.5-0.5-4.6-1.9v0c-0.4-0.5-1-0.8-1.6-0.8
		c-0.6,0-1.2,0.3-1.6,0.8l0,0c-1.1,1.4-2.8,2.1-4.6,1.9h0c-0.6-0.1-1.2,0.1-1.7,0.6v0c-0.4,0.4-0.7,1.1-0.6,1.7 M254.2,67.4
		c0.4,0.4,0.7,1.1,0.6,1.7 M238.3,83.2L238.3,83.2c0.4,0.4,1.1,0.7,1.7,0.6l0,0c1.8-0.2,3.5,0.5,4.6,1.9v0c0.4,0.5,1,0.8,1.6,0.8
		c0.6,0,1.2-0.3,1.6-0.8l0,0c1.1-1.4,2.8-2.1,4.6-1.9l0,0c0.6,0.1,1.2-0.1,1.7-0.6v0c0.4-0.4,0.7-1.1,0.6-1.7 M238.3,83.2
		c-0.2-0.2-0.4-0.5-0.5-0.9c-0.1-0.3-0.1-0.5-0.1-0.8 M254.7,69.1c-0.2,1.8,0.5,3.5,1.9,4.6 M256.6,73.7c0.5,0.4,0.8,1,0.8,1.6
		c0,0.6-0.3,1.2-0.8,1.6 M235.9,76.9c-0.5-0.4-0.8-1-0.8-1.6c0-0.6,0.3-1.2,0.8-1.6 M235.9,73.7c1.4-1.1,2.1-2.8,1.9-4.6
		 M237.8,81.5c0.2-1.8-0.5-3.5-1.9-4.6 M256.6,76.9c-1.4,1.1-2.1,2.8-1.9,4.6" />
  </g>
  <defs>
    <filter id="Adobe_OpacityMaskFilter_1_" filterUnits="userSpaceOnUse" x="221.9" y="61.3" width="68.5" height="70.1">
      <feColorMatrix type="matrix" values="1 0 0 0 0  0 1 0 0 0  0 0 1 0 0  0 0 0 1 0" />
    </filter>
  </defs>
  <mask maskUnits="userSpaceOnUse" x="221.9" y="61.3" width="68.5" height="70.1" id="mask1_407:11259_1_">
    <circle class="st29" cx="246.5" cy="75.5" r="30.5" />
  </mask>
  <g class="st30">

    <linearGradient id="SVGID_21_" gradientUnits="userSpaceOnUse" x1="256.1476" y1="236.2017" x2="256.1476" y2="182.558"
      gradientTransform="matrix(1 0 0 -1 0 314)">
      <stop offset="0" style="stop-color:#8589E3" />
      <stop offset="1" style="stop-color:#8589E3;stop-opacity:0" />
    </linearGradient>
    <path class="st31" d="M244.1,81l0.7-1.9l10.1-1.3l-0.4,3.5c2.1,1,4.4,2.4,6.6,3.9v0l0,0c4.2,2.8,8.2,5.4,11.1,4.2
		c3.7-1.4,7.5-5.3,10.4-8.3c0.7-0.7,1.3-1.4,1.9-1.9c2,1.7,3.6,5.6,4.9,8.8v0v0c0.3,0.8,0.6,1.6,0.9,2.3c0,0,0,0-0.1,0.1
		c-0.9,1.5-11.6,19-22.1,16.7c-2.6-0.6-4.8-1.7-6.8-3c2,12.1,3.2,26.8,3.2,26.8l-35.9,0.5c0,0,0.2-3.1,0.6-7.5
		c-5.1-3.3-10.2-10.6-5.4-23.9C227.8,89.4,235.5,83.1,244.1,81z" />
    <path class="st23" d="M260.9,100.9c-0.2,0-0.4-0.1-0.4-0.3c0-0.1-0.7-3.3-2.2-8.5c-0.1-0.2,0.1-0.4,0.3-0.5
		c0.2-0.1,0.4,0.1,0.5,0.3c1.6,5.2,2.2,8.5,2.2,8.5C261.4,100.6,261.2,100.8,260.9,100.9L260.9,100.9z" />
    <path class="st23" d="M258.6,115.4c-0.1,0-0.2,0-0.2-0.1c-0.1-0.1-5.5-3.3-17.6-5.1c-1.7-0.2-2.9-1.1-3.6-2.5
		c-1.4-2.8-0.7-7.4,2-12.4c0.1-0.2,0.3-0.3,0.6-0.2c0.2,0.1,0.3,0.3,0.2,0.6c-2.5,4.7-3.2,9.2-2,11.7c0.6,1.2,1.6,1.9,3,2.1
		c12.3,1.8,17.8,5,18,5.2c0.2,0.1,0.3,0.4,0.1,0.6C258.8,115.3,258.7,115.4,258.6,115.4z" />
    <path class="st7" d="M256.4,71.8c-0.1-4.5-3.4-8-7.4-7.9c-4,0.1-7.2,3.8-7.1,8.2c0,0,0,0,0,0.1c-0.4,0-0.8,0.1-1.1,0.2
		c-2.3,0.7-2.9,3-1.5,4.4c1.2,1.2,3.2,2,5.1,1c1.4,1.3,3.2,2.1,5,2.3C255,80.4,256.5,76.3,256.4,71.8z" />
    <path class="st23" d="M240.7,78.2c-0.7-0.3-1.3-0.7-1.7-1.2c-0.7-0.8-1-1.7-0.7-2.7c0.3-1.1,1.2-1.9,2.5-2.3
		c0.3-0.1,0.5-0.1,0.9-0.2c0.1-4.6,3.4-8.3,7.5-8.3c4.2-0.1,7.7,3.7,7.8,8.3c0.1,3.2-0.7,5.6-2.2,7.1c-1.3,1.2-3.1,1.8-5.3,1.6
		c-1.8-0.1-3.6-0.9-5.1-2.2C243,78.8,241.7,78.7,240.7,78.2z M251.6,64.8c-0.8-0.4-1.7-0.5-2.6-0.5c-3.8,0.1-6.8,3.6-6.7,7.8l0,0.4
		l-0.4,0.1c-0.4,0-0.8,0.1-1,0.2c-1,0.3-1.7,0.9-1.8,1.8c-0.2,0.7,0,1.4,0.5,1.9c1,1.1,2.9,1.8,4.6,1l0.2-0.1l0.2,0.2
		c1.3,1.3,2.9,2.1,4.7,2.1c2,0.1,3.6-0.3,4.7-1.4c1.3-1.3,2-3.4,2-6.4C255.9,68.6,254.1,65.9,251.6,64.8z" />
    <path class="st23" d="M250.5,72.5c0.3,0.1,0.6,0,0.7-0.3c0.1-0.3,0-0.6-0.3-0.7c-0.3-0.1-0.6,0-0.7,0.3
		C250.1,72,250.2,72.4,250.5,72.5z" />
    <path class="st23" d="M254.7,74.2c-0.2-1.2-0.5-2.4-1.1-3.6c-0.2-0.3-0.7-0.1-0.5,0.2c0.5,1.1,0.9,2.3,1.1,3.4
		C254.3,74.7,254.8,74.6,254.7,74.2z" />
    <path class="st23" d="M252.8,66.6c-1.7,0.7-8.4,1.1-7.5,4.8c0.2,0.9,0.7,1.5-0.2,1.9c-0.9,0.3-1.2-0.7-1.2-0.7
		c-1.1-0.2-2.4-0.3-3.2,0c-1.7-3.5-0.4-6.5,1.2-6.9c0,0,11.6-7.2,13.8-3.1C257.5,66.3,252.8,66.6,252.8,66.6z" />
    <path class="st23" d="M243.9,74.9c-0.9-1-2.3-1.2-3.5-0.6c-0.3,0.2-0.1,0.7,0.2,0.5c0.9-0.5,2.1-0.4,2.8,0.5
		C243.7,75.6,244.1,75.2,243.9,74.9z" />
  </g>
  <linearGradient id="SVGID_22_" gradientUnits="userSpaceOnUse" x1="203.0747" y1="242.5677" x2="291.6887" y2="234.2672"
    gradientTransform="matrix(1 0 0 -1 0 314)">
    <stop offset="0" style="stop-color:#D1D5F9" />
    <stop offset="1" style="stop-color:#7EA0F7;stop-opacity:0" />
  </linearGradient>
  <circle class="st32" cx="246.5" cy="75.5" r="29" />
  <path class="st33" d="M240.4,78.9c0,1.1,0.7,1.9,1.5,1.9c0.8,0,1.5-0.9,1.5-1.9c0-0.9-0.5-1.6-1.1-1.9" />
  <path class="st23" d="M249.6,86.2c0.4,0,0.8-0.3,0.8-0.8c0-0.4-0.3-0.8-0.8-0.8c-0.4,0-0.8,0.3-0.8,0.8
	C248.8,85.8,249.1,86.2,249.6,86.2z" />
  <path class="st23" d="M249.6,89.6c0.4,0,0.8-0.3,0.8-0.8c0-0.4-0.3-0.8-0.8-0.8c-0.4,0-0.8,0.3-0.8,0.8
	C248.8,89.3,249.1,89.6,249.6,89.6z" />
  <path class="st23" d="M249.6,93c0.4,0,0.8-0.3,0.8-0.8c0-0.4-0.3-0.8-0.8-0.8c-0.4,0-0.8,0.3-0.8,0.8C248.8,92.7,249.1,93,249.6,93z
	" />
  <circle class="st17" cx="318.5" cy="75.5" r="27.5" />
  <g>

    <linearGradient id="SVGID_23_" gradientUnits="userSpaceOnUse" x1="322.9267" y1="240.4412" x2="286.3863"
      y2="224.6669" gradientTransform="matrix(1 0 0 -1 0 314)">
      <stop offset="0" style="stop-color:#D2DCF7" />
      <stop offset="0.474" style="stop-color:#FFFFFF" />
    </linearGradient>
    <path class="st34"
      d="M332.9,61.1L332.9,61.1c-0.9-0.9-2.2-1.4-3.6-1.2l0,0c-2.8,0.3-5.6-0.8-7.4-3.1v0c-0.8-1-2.1-1.6-3.4-1.6
		c-1.3,0-2.6,0.6-3.4,1.6l0,0c-1.8,2.2-4.5,3.4-7.4,3.1v0c-1.3-0.2-2.6,0.3-3.6,1.2v0c-0.9,0.9-1.4,2.2-1.2,3.6 M332.9,61.1
		c0.9,0.9,1.4,2.2,1.2,3.6c-0.3,2.8,0.8,5.6,3.1,7.4c1,0.8,1.6,2.1,1.6,3.4c0,1.3-0.6,2.6-1.6,3.4c-2.2,1.8-3.4,4.5-3.1,7.4
		c0.2,1.3-0.3,2.6-1.2,3.6v0c-0.9,0.9-2.2,1.4-3.6,1.2l0,0c-2.8-0.3-5.6,0.8-7.4,3.1v0c-0.8,1-2.1,1.6-3.4,1.6
		c-1.3,0-2.6-0.6-3.4-1.6v0c-1.8-2.2-4.5-3.4-7.4-3.1h0c-1.3,0.2-2.6-0.3-3.6-1.2l0,0 M304.2,89.8c-0.9-0.9-1.4-2.2-1.2-3.6
		 M302.9,86.2c0.3-2.8-0.8-5.6-3.1-7.4c-1-0.8-1.6-2.1-1.6-3.4c0-1.3,0.6-2.6,1.6-3.4 M299.9,72.1c2.2-1.8,3.4-4.5,3.1-7.4" />

    <linearGradient id="SVGID_24_" gradientUnits="userSpaceOnUse" x1="322.265" y1="240.1555" x2="293.345" y2="227.6709"
      gradientTransform="matrix(1 0 0 -1 0 314)">
      <stop offset="0" style="stop-color:#D2DCF7" />
      <stop offset="0.474" style="stop-color:#FFFFFF" />
    </linearGradient>
    <path class="st35" d="M329.9,64.1L329.9,64.1c-0.7-0.7-1.7-1.1-2.7-0.9v0c-2.3,0.3-4.6-0.7-6.1-2.5l0,0c-0.6-0.8-1.6-1.2-2.6-1.2
		s-1.9,0.5-2.6,1.2l0,0c-1.5,1.8-3.7,2.8-6.1,2.5l0,0c-1-0.1-2,0.2-2.7,0.9v0c-0.7,0.7-1.1,1.7-0.9,2.7c0.3,2.3-0.7,4.6-2.5,6.1
		c-0.8,0.6-1.2,1.6-1.2,2.6c0,1,0.5,1.9,1.2,2.6 M329.9,64.1c0.7,0.7,1.1,1.7,0.9,2.7 M307.2,86.8L307.2,86.8
		c0.7,0.7,1.7,1.1,2.7,0.9l0,0c2.3-0.3,4.6,0.7,6.1,2.5v0c0.6,0.8,1.6,1.2,2.6,1.2s1.9-0.5,2.6-1.2v0c1.5-1.8,3.7-2.8,6.1-2.5l0,0
		c1,0.1,2-0.2,2.7-0.9v0c0.7-0.7,1.1-1.7,0.9-2.7 M307.2,86.8c-0.4-0.4-0.6-0.8-0.8-1.2c-0.2-0.5-0.2-1-0.2-1.5 M330.8,66.8
		c-0.3,2.3,0.7,4.6,2.5,6.1 M333.3,72.9c0.8,0.6,1.2,1.6,1.2,2.6c0,1-0.5,1.9-1.2,2.6 M333.3,78c-1.8,1.5-2.8,3.7-2.5,6.1
		 M306.2,84.1c0.3-2.3-0.7-4.6-2.5-6.1" />

    <linearGradient id="SVGID_25_" gradientUnits="userSpaceOnUse" x1="320.9843" y1="239.6025" x2="301.3341"
      y2="231.1193" gradientTransform="matrix(1 0 0 -1 0 314)">
      <stop offset="0" style="stop-color:#D2DCF7" />
      <stop offset="0.474" style="stop-color:#FFFFFF" />
    </linearGradient>
    <path class="st36" d="M326.4,67.6L326.4,67.6c-0.4-0.4-1.1-0.7-1.7-0.6h0c-1.8,0.2-3.5-0.5-4.6-1.9v0c-0.4-0.5-1-0.8-1.6-0.8
		c-0.6,0-1.2,0.3-1.6,0.8l0,0c-1.1,1.4-2.8,2.1-4.6,1.9h0c-0.6-0.1-1.2,0.1-1.7,0.6v0c-0.4,0.4-0.7,1.1-0.6,1.7 M326.4,67.6
		c0.4,0.4,0.7,1.1,0.6,1.7 M310.6,83.4L310.6,83.4c0.4,0.4,1.1,0.7,1.7,0.6l0,0c1.8-0.2,3.5,0.5,4.6,1.9v0c0.4,0.5,1,0.8,1.6,0.8
		c0.6,0,1.2-0.3,1.6-0.8l0,0c1.1-1.4,2.8-2.1,4.6-1.9l0,0c0.6,0.1,1.2-0.1,1.7-0.6v0c0.4-0.4,0.7-1.1,0.6-1.7 M310.6,83.4
		c-0.2-0.2-0.4-0.5-0.5-0.9c-0.1-0.3-0.1-0.5-0.1-0.8 M327,69.2c-0.2,1.8,0.5,3.5,1.9,4.6 M328.9,73.8c0.5,0.4,0.8,1,0.8,1.6
		c0,0.6-0.3,1.2-0.8,1.6 M308.1,77.1c-0.5-0.4-0.8-1-0.8-1.6c0-0.6,0.3-1.2,0.8-1.6 M308.1,73.8c1.4-1.1,2.1-2.8,1.9-4.6 M310,81.7
		c0.2-1.8-0.5-3.5-1.9-4.6 M328.9,77.1c-1.4,1.1-2.1,2.8-1.9,4.6" />
  </g>
  <defs>
    <filter id="Adobe_OpacityMaskFilter_2_" filterUnits="userSpaceOnUse" x="298" y="60.5" width="45.7" height="64.7">
      <feColorMatrix type="matrix" values="1 0 0 0 0  0 1 0 0 0  0 0 1 0 0  0 0 0 1 0" />
    </filter>
  </defs>
  <mask maskUnits="userSpaceOnUse" x="298" y="60.5" width="45.7" height="64.7" id="mask2_407:11259_1_">
    <circle class="st37" cx="318.5" cy="75.5" r="30.5" />
  </mask>
  <g class="st38">
    <path class="st23" d="M322.4,73.7c-6.5-5.4-13.3-6.3-16.3,0.8c0,0-7.6,0.3-4.3,6.3c0,0-5.2,4.8,3.3,8.7c8.4,4,16.6-8,16.6-8
		L322.4,73.7z" />

    <linearGradient id="SVGID_26_" gradientUnits="userSpaceOnUse" x1="315.4488" y1="232.5294" x2="328.0328"
      y2="190.4897" gradientTransform="matrix(1 0 0 -1 0 314)">
      <stop offset="0" style="stop-color:#F19696" />
      <stop offset="1" style="stop-color:#FF8F8F;stop-opacity:0" />
    </linearGradient>
    <path class="st39" d="M305.1,103.5c-1.6,10.3-1.1,20.4-1.1,21.2l0,0.5l37.1-5.6l-0.1-0.5l0,0c-0.1-0.3-1.4-4.3-4.1-16.2
		c0,0,0,0,0.1-0.1c0.9-1.1,1.8-2.2,2.7-3.4l0,0c1.2-1.6,2.5-3.2,3.9-4.7l0.3-0.3l-0.3-0.3c-0.2-0.2-0.4-0.4-0.6-0.7
		c-0.2-0.2-0.5-0.5-0.8-0.8l-0.1-0.1c-3.6-3.6-9-9.1-15.7-11.1c-1.6-0.6-3.2-0.8-4.9-0.9l0,0c0,0,0,0,0,0c-0.4,0-0.8,0-1.2,0
		c-9.2,0.4-17.6,7.8-22,19.5l-0.1,0.4l0.3,0.2l0,0c0.5,0.2,0.9,0.4,1.5,0.6C301.5,102.1,303.4,102.9,305.1,103.5z" />
    <path class="st23" d="M336.2,101.6c0.2-0.1,0.3-0.3,0.3-0.5l-2.4-9.2c-0.1-0.2-0.3-0.4-0.5-0.3c-0.2,0.1-0.4,0.3-0.3,0.5l2.4,9.2
		C335.8,101.6,336,101.7,336.2,101.6C336.2,101.6,336.2,101.6,336.2,101.6z" />
    <path class="st23" d="M311.4,103c0.1,0,0.3-0.1,0.3-0.3c1.7-4.6,2.4-6.8,2.4-6.8c0.1-0.2,0-0.5-0.3-0.5c-0.2-0.1-0.5,0-0.5,0.3
		c0,0-0.7,2.2-2.4,6.8c-0.1,0.2,0,0.5,0.2,0.6C311.2,103,311.3,103,311.4,103z" />
    <path class="st7" d="M311.5,74.7c-1-1.7,0-3.7,2.4-4c0.4,0,0.7,0,1.2,0c0,0,0,0,0-0.1c0.8-4.4,4.6-7.4,8.5-6.7
		c3.9,0.7,5.8,4.7,5.7,9.2c-0.1,4-3.1,8.1-8.5,6.7c-1.8-0.5-3.4-1.6-4.5-3.2C314.3,77.3,312.4,76.2,311.5,74.7z" />
    <path class="st23"
      d="M326.5,79.6c0.1-0.1,0.2-0.2,0.4-0.2c1.8-1.4,2.8-3.6,2.9-6.1c0.1-5.2-2.3-8.9-6.1-9.6
		c-4.1-0.7-8,2.3-8.9,6.7c-0.3,0-0.6,0-0.8,0c-1.3,0.1-2.3,0.8-2.8,1.8c-0.4,0.9-0.4,1.9,0.2,2.8c0.9,1.4,2.8,2.7,5,2.3
		c1.1,1.5,2.7,2.6,4.5,3.1C323.4,81,325.3,80.4,326.5,79.6z M318.9,65.4c1.4-0.9,3-1.3,4.6-1c4.1,0.7,5.4,5.2,5.4,8.8
		c0,2.3-1,4.3-2.6,5.5c-1.5,1.1-3.3,1.4-5.4,0.8c-1.7-0.4-3.2-1.5-4.2-3l-0.2-0.2l-0.3,0.1c-1.9,0.5-3.6-0.6-4.3-1.8
		c-0.4-0.6-0.4-1.4-0.1-2c0.4-0.8,1.2-1.2,2.2-1.4c0.3,0,0.6,0,1.1,0l0.4,0.1l0.1-0.4C315.9,68.5,317.2,66.5,318.9,65.4z" />
    <path class="st23" d="M323.3,72.7c-0.3-0.2-0.3-0.5-0.2-0.8c0.2-0.3,0.5-0.3,0.8-0.2c0.3,0.2,0.3,0.5,0.2,0.8
		C323.9,72.8,323.6,72.9,323.3,72.7z" />
    <path class="st23" d="M327.2,75.3c0.1-1.2-0.1-2.5-0.4-3.7c-0.1-0.3-0.6-0.3-0.5,0.1c0.3,1.1,0.4,2.3,0.4,3.5
		C326.6,75.6,327.2,75.6,327.2,75.3z" />
    <path class="st23" d="M326.8,67.5c-1.7,0.4-8.5-0.5-8.3,3.2c0,1,0.4,1.5-0.5,1.9c-1,0.2-1.4-0.9-1.4-0.9c-1.1-0.4-1.8-1.1-2.6-1
		c-3.4-1.6-1.5-7.7,2.1-7.2c0,0,4.4-4.6,7.9-2.4c3.4-0.7,5.7,0.7,6.4,3C331.5,68,326.8,67.5,326.8,67.5z" />
    <path class="st23" d="M316.4,73.8c-0.7-1.1-2-1.7-3.3-1.3c-0.3,0.1-0.2,0.7,0.1,0.5c1-0.3,2.1,0.1,2.6,1
		C316.1,74.4,316.6,74.2,316.4,73.8z" />
  </g>
  <linearGradient id="SVGID_27_" gradientUnits="userSpaceOnUse" x1="275.0747" y1="242.5677" x2="363.6887" y2="234.2672"
    gradientTransform="matrix(1 0 0 -1 0 314)">
    <stop offset="0" style="stop-color:#D1D5F9" />
    <stop offset="1" style="stop-color:#7EA0F7;stop-opacity:0" />
  </linearGradient>
  <circle class="st40" cx="318.5" cy="75.5" r="29" />
  <path class="st33" d="M326.2,79.3c0,1-1.6,1.5-3.4,1.5s-3.4-0.5-3.4-1.5c-3.1,2.2-1.5,3.7,0.2,3.8c1.7,0.1,3.5-1.5,3.5-1.5
	s1.2,1.7,3.4,1.5c2.3-0.2,2.7-2.1-0.2-3.7" />
  <path class="st23" d="M345.2,109.8l-1.9-3.5l-4.1,2.5c-0.1,0.1-0.3,0.2-0.5,0.2c0.7,1.4,1.9,3.6,1.9,3.6c0.1,0.3,0.5,0.3,0.7,0
	l0.9-1.6c0.1-0.3,0.6-0.6,0.9-0.6l1.7-0.1C345.2,110.3,345.4,110.1,345.2,109.8z" />
  <path class="st23" d="M332,106.3l-1.9,3.5c-0.1,0.3-0.1,0.6,0.4,0.6l1.7,0.1c0.4,0,0.8,0.3,0.9,0.6l0.9,1.6c0.1,0.3,0.5,0.3,0.7,0
	c0,0,1.2-2.2,1.9-3.6c-0.2-0.1-0.4-0.2-0.5-0.2L332,106.3z" />
  <linearGradient id="SVGID_28_" gradientUnits="userSpaceOnUse" x1="338.9485" y1="213.6567" x2="329.3425" y2="208.7624"
    gradientTransform="matrix(1 0 0 -1 0 314)">
    <stop offset="0" style="stop-color:#DDF0FF" />
    <stop offset="0.8839" style="stop-color:#FFFFFF" />
  </linearGradient>
  <path class="st41" d="M343,105.6c0.8-0.5,1.4-1.4,1.4-2.3v-4.5c0-1-0.5-1.9-1.4-2.3l-4-2.2c-0.5-0.3-0.9-0.3-1.4-0.3
	c-0.5,0-1,0.1-1.4,0.3l-4,2.2c-0.8,0.5-1.4,1.4-1.4,2.3v4.5c0,0.9,0.6,1.9,1.4,2.3l4,2.2c0.4,0.3,0.9,0.3,1.4,0.3
	c0.5,0,1-0.1,1.4-0.3L343,105.6z" />
  <path class="st23" d="M343,105.6c0.8-0.5,1.4-1.4,1.4-2.3v-4.5c0-1-0.5-1.9-1.4-2.3l-4-2.2c-0.5-0.3-0.9-0.3-1.4-0.3
	c-0.5,0-1,0.1-1.4,0.3l-4,2.2c-0.8,0.5-1.4,1.4-1.4,2.3v4.5c0,0.9,0.6,1.9,1.4,2.3l4,2.2c0.4,0.3,0.9,0.3,1.4,0.3
	c0.5,0,1-0.1,1.4-0.3L343,105.6z M337.6,106.2c-0.4,0-0.7,0-1-0.2l-2.9-1.6c-0.6-0.3-1-1-1-1.7v-3.3c0-0.7,0.4-1.3,1-1.7l2.9-1.6
	c0.3-0.1,0.7-0.2,1-0.2c0.4,0,0.7,0,1,0.2l2.9,1.6c0.7,0.3,1,0.9,1,1.7v3.3c0,0.7-0.4,1.3-1,1.7l-2.9,1.6
	C338.3,106.1,338,106.2,337.6,106.2z" />
  <path class="st42" d="M335.9,99.3c0.2,0.2,0.2,0.4,0,0.6l-0.9,0.9l0.9,1c0.2,0.2,0.1,0.4,0,0.6c-0.2,0.2-0.4,0.1-0.6,0l-1.2-1.2
	c-0.1-0.2-0.1-0.4,0-0.6l1.2-1.2C335.5,99.2,335.8,99.2,335.9,99.3z" />
  <path class="st42" d="M339.3,99.3c0.2-0.2,0.4-0.2,0.6,0l1.2,1.2c0.2,0.2,0.2,0.4,0,0.6l-1.2,1.2c-0.2,0.2-0.4,0.2-0.6,0
	c-0.2-0.2-0.2-0.4,0-0.6l0.9-1l-0.9-0.9C339.2,99.7,339.2,99.5,339.3,99.3z" />
  <path class="st42" d="M338.5,99.2c0.2,0.1,0.3,0.3,0.2,0.5l-1,2.6c-0.1,0.2-0.3,0.3-0.5,0.2c-0.2-0.1-0.3-0.3-0.2-0.5l1-2.6
	C338,99.2,338.2,99.1,338.5,99.2z" />
  <path class="st23" d="M272.4,109.8l-1.9-3.5l-4.1,2.5c-0.1,0.1-0.3,0.2-0.5,0.2c0.7,1.4,1.9,3.6,1.9,3.6c0.1,0.3,0.5,0.3,0.7,0
	l0.9-1.6c0.1-0.3,0.6-0.6,0.9-0.6l1.7-0.1C272.4,110.3,272.6,110.1,272.4,109.8z" />
  <path class="st23" d="M259.2,106.3l-1.9,3.5c-0.1,0.3-0.1,0.6,0.4,0.6l1.7,0.1c0.4,0,0.8,0.3,0.9,0.6l0.9,1.6c0.1,0.3,0.5,0.3,0.7,0
	c0,0,1.2-2.2,1.9-3.6c-0.2-0.1-0.4-0.2-0.5-0.2L259.2,106.3z" />
  <linearGradient id="SVGID_29_" gradientUnits="userSpaceOnUse" x1="266.2015" y1="213.6567" x2="256.5956" y2="208.7624"
    gradientTransform="matrix(1 0 0 -1 0 314)">
    <stop offset="0" style="stop-color:#DDF0FF" />
    <stop offset="0.8839" style="stop-color:#FFFFFF" />
  </linearGradient>
  <path class="st43" d="M270.3,105.6c0.8-0.5,1.4-1.4,1.4-2.3v-4.5c0-1-0.5-1.9-1.4-2.3l-4-2.2c-0.5-0.3-0.9-0.3-1.4-0.3
	c-0.5,0-1,0.1-1.4,0.3l-4,2.2c-0.8,0.5-1.4,1.4-1.4,2.3v4.5c0,0.9,0.6,1.9,1.4,2.3l4,2.2c0.4,0.3,0.9,0.3,1.4,0.3
	c0.5,0,1-0.1,1.4-0.3L270.3,105.6z" />
  <path class="st23" d="M270.3,105.6c0.8-0.5,1.4-1.4,1.4-2.3v-4.5c0-1-0.5-1.9-1.4-2.3l-4-2.2c-0.5-0.3-0.9-0.3-1.4-0.3
	c-0.5,0-1,0.1-1.4,0.3l-4,2.2c-0.8,0.5-1.4,1.4-1.4,2.3v4.5c0,0.9,0.6,1.9,1.4,2.3l4,2.2c0.4,0.3,0.9,0.3,1.4,0.3
	c0.5,0,1-0.1,1.4-0.3L270.3,105.6z M264.9,106.2c-0.4,0-0.7,0-1-0.2l-2.9-1.6c-0.6-0.3-1-1-1-1.7v-3.3c0-0.7,0.4-1.3,1-1.7l2.9-1.6
	c0.3-0.1,0.7-0.2,1-0.2c0.4,0,0.7,0,1,0.2l2.9,1.6c0.7,0.3,1,0.9,1,1.7v3.3c0,0.7-0.4,1.3-1,1.7l-2.9,1.6
	C265.6,106.1,265.2,106.2,264.9,106.2z" />
  <path class="st42" d="M263.2,99.3c0.2,0.2,0.2,0.4,0,0.6l-0.9,0.9l0.9,1c0.2,0.2,0.1,0.4,0,0.6c-0.2,0.2-0.4,0.1-0.6,0l-1.2-1.2
	c-0.1-0.2-0.1-0.4,0-0.6l1.2-1.2C262.7,99.2,263,99.2,263.2,99.3z" />
  <path class="st42" d="M266.6,99.3c0.2-0.2,0.4-0.2,0.6,0l1.2,1.2c0.2,0.2,0.2,0.4,0,0.6l-1.2,1.2c-0.2,0.2-0.4,0.2-0.6,0
	c-0.2-0.2-0.2-0.4,0-0.6l0.9-1l-0.9-0.9C266.4,99.7,266.4,99.5,266.6,99.3z" />
  <path class="st42" d="M265.7,99.2c0.2,0.1,0.3,0.3,0.2,0.5l-1,2.6c-0.1,0.2-0.3,0.3-0.5,0.2c-0.2-0.1-0.3-0.3-0.2-0.5l1-2.6
	C265.3,99.2,265.5,99.1,265.7,99.2z" />
  <path class="st23" d="M199.2,109.8l-1.9-3.5l-4.1,2.5c-0.1,0.1-0.3,0.2-0.5,0.2c0.7,1.4,1.9,3.6,1.9,3.6c0.1,0.3,0.5,0.3,0.7,0
	l0.9-1.6c0.1-0.3,0.6-0.6,0.9-0.6l1.7-0.1C199.2,110.3,199.4,110.1,199.2,109.8z" />
  <path class="st23" d="M185.9,106.3l-1.9,3.5c-0.1,0.3-0.1,0.6,0.4,0.6l1.7,0.1c0.4,0,0.8,0.3,0.9,0.6l0.9,1.6c0.1,0.3,0.5,0.3,0.7,0
	c0,0,1.2-2.2,1.9-3.6c-0.2-0.1-0.4-0.2-0.5-0.2L185.9,106.3z" />
  <linearGradient id="SVGID_30_" gradientUnits="userSpaceOnUse" x1="192.9485" y1="213.6567" x2="183.3425" y2="208.7624"
    gradientTransform="matrix(1 0 0 -1 0 314)">
    <stop offset="0" style="stop-color:#DDF0FF" />
    <stop offset="0.8839" style="stop-color:#FFFFFF" />
  </linearGradient>
  <path class="st44" d="M197,105.6c0.8-0.5,1.4-1.4,1.4-2.3v-4.5c0-1-0.5-1.9-1.4-2.3l-4-2.2c-0.5-0.3-0.9-0.3-1.4-0.3
	c-0.5,0-1,0.1-1.4,0.3l-4,2.2c-0.8,0.5-1.4,1.4-1.4,2.3v4.5c0,0.9,0.6,1.9,1.4,2.3l4,2.2c0.4,0.3,0.9,0.3,1.4,0.3
	c0.5,0,1-0.1,1.4-0.3L197,105.6z" />
  <path class="st23" d="M197,105.6c0.8-0.5,1.4-1.4,1.4-2.3v-4.5c0-1-0.5-1.9-1.4-2.3l-4-2.2c-0.5-0.3-0.9-0.3-1.4-0.3
	c-0.5,0-1,0.1-1.4,0.3l-4,2.2c-0.8,0.5-1.4,1.4-1.4,2.3v4.5c0,0.9,0.6,1.9,1.4,2.3l4,2.2c0.4,0.3,0.9,0.3,1.4,0.3
	c0.5,0,1-0.1,1.4-0.3L197,105.6z M191.6,106.2c-0.4,0-0.7,0-1-0.2l-2.9-1.6c-0.6-0.3-1-1-1-1.7v-3.3c0-0.7,0.4-1.3,1-1.7l2.9-1.6
	c0.3-0.1,0.7-0.2,1-0.2c0.4,0,0.7,0,1,0.2l2.9,1.6c0.7,0.3,1,0.9,1,1.7v3.3c0,0.7-0.4,1.3-1,1.7l-2.9,1.6
	C192.3,106.1,192,106.2,191.6,106.2z" />
  <path class="st42" d="M189.9,99.3c0.2,0.2,0.2,0.4,0,0.6l-0.9,0.9l0.9,1c0.2,0.2,0.1,0.4,0,0.6c-0.2,0.2-0.4,0.1-0.6,0l-1.2-1.2
	c-0.2-0.2-0.1-0.4,0-0.6l1.2-1.2C189.5,99.2,189.8,99.2,189.9,99.3z" />
  <path class="st42" d="M193.3,99.3c0.2-0.2,0.4-0.2,0.6,0l1.2,1.2c0.2,0.2,0.2,0.4,0,0.6l-1.2,1.2c-0.2,0.2-0.4,0.2-0.6,0
	c-0.2-0.2-0.2-0.4,0-0.6l0.9-1l-0.9-0.9C193.2,99.7,193.2,99.5,193.3,99.3z" />
  <path class="st42" d="M192.5,99.2c0.2,0.1,0.3,0.3,0.2,0.5l-1,2.6c-0.1,0.2-0.3,0.3-0.5,0.2c-0.2-0.1-0.3-0.3-0.2-0.5l1-2.6
	C192,99.2,192.2,99.1,192.5,99.2z" />
  <path class="st7" d="M365.5,127.8c-1.5-0.6-3.1-1.7-4.3-3.2c-1.2-1.5-2.2-3.5-2.8-5.6l-0.7-2.5c-0.1-0.3-0.4-0.5-0.7-0.5
	c-0.3,0-0.6,0.2-0.7,0.5l-0.7,2.5c-0.6,2.2-1.6,4.1-2.8,5.6c-1.2,1.5-2.6,2.6-4.1,3.2c-0.3,0.1-0.5,0.4-0.5,0.7
	c0,0.3,0.2,0.6,0.5,0.7l0.2,0.1c3,1.3,5.4,4.4,6.7,8.6l0.8,2.6c0.1,0.3,0.4,0.5,0.7,0.5c0.3,0,0.6-0.2,0.7-0.5l0.8-2.6
	c1.3-4.2,3.9-7.3,6.9-8.6l0.2-0.1c0.3-0.1,0.5-0.4,0.5-0.7C366,128.2,365.8,127.9,365.5,127.8z" />
  <g>
    <defs>
      <filter id="Adobe_OpacityMaskFilter_3_" filterUnits="userSpaceOnUse" x="382.6" y="-86" width="180" height="180">
        <feColorMatrix type="matrix" values="1 0 0 0 0  0 1 0 0 0  0 0 1 0 0  0 0 0 1 0" />
      </filter>
    </defs>
    <mask maskUnits="userSpaceOnUse" x="382.6" y="-86" width="180" height="180" id="mask3_407:11259_1_">
      <rect x="355" y="7" class="st45" width="135" height="121" />
    </mask>
    <g class="st46">

      <linearGradient id="SVGID_31_" gradientUnits="userSpaceOnUse" x1="585.6035" y1="328.5467" x2="372.6463"
        y2="293.5769" gradientTransform="matrix(1 0 0 -1 0 314)">
        <stop offset="0" style="stop-color:#EEACD5" />
        <stop offset="0.4479" style="stop-color:#DCDDFA" />
        <stop offset="1" style="stop-color:#DCDDFA;stop-opacity:0" />
      </linearGradient>
      <path class="st47" d="M534.8-58.2L534.8-58.2c4.5,4.5,6.6,10.6,5.9,16.9c-1.3,11.2,3.2,22.1,12.1,29.2c5,3.9,7.8,9.8,7.8,16.1
			c0,6.3-2.8,12.2-7.8,16.1c-8.9,7-13.4,17.9-12.1,29.2c0.7,6.3-1.4,12.5-5.9,16.9l0,0c-4.5,4.5-10.6,6.6-16.9,5.9
			c-11.2-1.3-22.1,3.2-29.2,12.1v0c-3.9,5-9.8,7.8-16.1,7.8c-6.3,0-12.2-2.8-16.1-7.8l0,0c-7-8.9-17.9-13.4-29.2-12.1v0
			c-6.3,0.7-12.5-1.4-16.9-5.9l0,0c-4.5-4.5-6.6-10.6-5.9-16.9c1.3-11.2-3.2-22.1-12.1-29.2c-5-3.9-7.8-9.8-7.8-16.1
			c0-6.3,2.8-12.2,7.8-16.1c8.9-7,13.4-17.9,12.1-29.2c-0.7-6.3,1.4-12.5,5.9-16.9v0c4.5-4.5,10.6-6.6,16.9-5.9l0,0
			c11.2,1.3,22.1-3.2,29.2-12.1l0,0c3.9-5,9.8-7.8,16.1-7.8c6.3,0,12.2,2.8,16.1,7.8v0c7,8.9,17.9,13.4,29.2,12.1h0
			C524.2-64.8,530.3-62.7,534.8-58.2z" />

      <linearGradient id="SVGID_32_" gradientUnits="userSpaceOnUse" x1="562.9393" y1="324.8252" x2="393.0455"
        y2="296.9268" gradientTransform="matrix(1 0 0 -1 0 314)">
        <stop offset="0" style="stop-color:#EEACD5" />
        <stop offset="0.4479" style="stop-color:#DCDDFA" />
        <stop offset="1" style="stop-color:#DCDDFA;stop-opacity:0" />
      </linearGradient>
      <path class="st48" d="M418.5,40.3c1-9.1-2.6-18-9.8-23.7c-3.9-3.1-6.1-7.7-6.1-12.6c0-4.9,2.2-9.5,6.1-12.6
			c7.2-5.7,10.9-14.6,9.8-23.7c-0.6-4.9,1.1-9.7,4.6-13.2v0c3.5-3.5,8.3-5.2,13.2-4.6l0,0c9.1,1,18-2.6,23.7-9.8v0
			c3.1-3.9,7.7-6.1,12.6-6.1c4.9,0,9.5,2.2,12.6,6.1v0c5.7,7.2,14.6,10.9,23.7,9.8l0,0c4.9-0.6,9.7,1.1,13.2,4.6v0
			c3.5,3.5,5.2,8.3,4.6,13.2c-1.1,9.1,2.6,18,9.8,23.7c3.9,3.1,6.1,7.7,6.1,12.6c0,4.9-2.2,9.5-6.1,12.6
			c-7.2,5.7-10.9,14.6-9.8,23.7c0.6,4.9-1.1,9.7-4.6,13.2l0,0c-3.5,3.5-8.3,5.2-13.2,4.6l0,0c-9.1-1-18,2.6-23.7,9.8v0
			c-3.1,3.9-7.7,6.1-12.6,6.1c-4.9,0-9.5-2.2-12.6-6.1v0c-5.7-7.2-14.6-10.9-23.7-9.8v0c-4.9,0.6-9.7-1.1-13.2-4.6v0
			C419.6,50,417.9,45.2,418.5,40.3z M418.5,40.3l-2-0.2 M418.5,40.3l-2-0.2" />

      <linearGradient id="SVGID_33_" gradientUnits="userSpaceOnUse" x1="537.3194" y1="320.6183" x2="414.2634"
        y2="300.4113" gradientTransform="matrix(1 0 0 -1 0 314)">
        <stop offset="0" style="stop-color:#EEACD5" />
        <stop offset="0.4479" style="stop-color:#DCDDFA" />
        <stop offset="1" style="stop-color:#DCDDFA;stop-opacity:0" />
      </linearGradient>
      <path class="st49" d="M507.5-30.9L507.5-30.9c-2.4-2.4-5.6-3.5-9-3.1v0c-6.7,0.8-13.2-1.9-17.4-7.2v0c-2.1-2.6-5.2-4.1-8.6-4.1
			s-6.5,1.5-8.6,4.1v0c-4.2,5.3-10.7,8-17.4,7.2l0,0c-3.3-0.4-6.6,0.8-9,3.1v0c-2.4,2.4-3.5,5.6-3.1,9 M507.5-30.9
			c2.4,2.4,3.5,5.6,3.1,9c-0.8,6.7,1.9,13.2,7.2,17.4c2.6,2.1,4.1,5.2,4.1,8.6c0,3.4-1.5,6.5-4.1,8.6c-5.3,4.2-8,10.7-7.2,17.4
			c0.4,3.3-0.8,6.6-3.1,9l0,0c-2.4,2.4-5.6,3.5-9,3.1l0,0c-6.7-0.8-13.2,1.9-17.4,7.2v0c-2.1,2.6-5.2,4.1-8.6,4.1s-6.5-1.5-8.6-4.1
			v0c-4.2-5.3-10.7-8-17.4-7.2l0,0c-3.3,0.4-6.6-0.8-9-3.1v0 M437.6,39c-2.4-2.4-3.5-5.6-3.1-9c0.8-6.7-1.9-13.2-7.2-17.4
			c-2.6-2.1-4.1-5.2-4.1-8.6c0-3.4,1.5-6.5,4.1-8.6" />
    </g>
  </g>
</svg>