<?xml version="1.0" encoding="utf-8"?>
<!-- Generator: Adobe Illustrator 25.2.0, SVG Export Plug-In . SVG Version: 6.00 Build 0)  -->
<svg version="1.1" id="Layer_1" xmlns="http://www.w3.org/2000/svg" xmlns:xlink="http://www.w3.org/1999/xlink" x="0px"
  y="0px" viewBox="0 0 478 435" style="enable-background:new 0 0 478 435;" xml:space="preserve">
  <style type="text/css">
    .st0 {
      fill: url(#SVGID_1_);
    }

    .st1 {
      fill: url(#SVGID_2_);
      filter: url(#Adobe_OpacityMaskFilter);
    }

    .st2 {
      mask: url(#mask0_407:11849_2_);
    }

    .st3 {
      opacity: 0.5;
    }

    .st4 {
      fill: none;
      stroke: #FFFFFF;
    }

    .st5 {
      fill: none;
      stroke: url(#SVGID_3_);
      stroke-width: 4;
    }

    .st6 {
      fill: none;
      stroke: url(#SVGID_4_);
      stroke-width: 4;
    }

    .st7 {
      fill: none;
      stroke: url(#SVGID_5_);
      stroke-width: 4;
    }

    .st8 {
      fill: #E1E5FE;
    }

    .st9 {
      fill-rule: evenodd;
      clip-rule: evenodd;
      fill: #E1E5FE;
    }

    .st10 {
      fill: #0D5372;
      fill-opacity: 6.000000e-02;
    }

    .st11 {
      fill: #FFFFFF;
    }

    .st12 {
      fill: url(#SVGID_6_);
    }

    .st13 {
      fill: url(#SVGID_7_);
    }

    .st14 {
      fill: #FFD9D9;
    }

    .st15 {
      fill: #8689E3;
    }

    .st16 {
      fill: #515151;
    }

    .st17 {
      fill: #F278A4;
    }

    .st18 {
      fill: #F45571;
    }

    .st19 {
      fill: #0E2935;
    }

    .st20 {
      fill: url(#SVGID_8_);
    }

    .st21 {
      fill-rule: evenodd;
      clip-rule: evenodd;
      fill: #FFFFFF;
    }

    .st22 {
      fill: url(#SVGID_9_);
    }

    .st23 {
      opacity: 0.3;
      fill-rule: evenodd;
      clip-rule: evenodd;
      fill: #FFFFFF;
      enable-background: new;
    }

    .st24 {
      fill: #8589E3;
    }

    .st25 {
      fill: url(#SVGID_10_);
    }
  </style>
  <g>
    <g>
      <linearGradient id="SVGID_1_" gradientUnits="userSpaceOnUse" x1="235.0243" y1="143.4804" x2="477.5562"
        y2="143.4804">
        <stop offset="0" style="stop-color:#F8FAFF" />
        <stop offset="1" style="stop-color:#E9EFFF" />
      </linearGradient>
      <circle class="st0" cx="356.3" cy="143.5" r="121.3" />
    </g>
    <defs>
      <filter id="Adobe_OpacityMaskFilter" filterUnits="userSpaceOnUse" x="197.8" y="4.7" width="287.7" height="287.7">
        <feColorMatrix type="matrix" values="1 0 0 0 0  0 1 0 0 0  0 0 1 0 0  0 0 0 1 0" />
      </filter>
    </defs>
    <mask maskUnits="userSpaceOnUse" x="197.8" y="4.7" width="287.7" height="287.7" id="mask0_407:11849_2_">

      <linearGradient id="SVGID_2_" gradientUnits="userSpaceOnUse" x1="576.0413" y1="124.8726" x2="408.9833"
        y2="-81.0956" gradientTransform="matrix(1 0 0 -1 -131.8543 159.2596)">
        <stop offset="0" style="stop-color:#F8B2D9" />
        <stop offset="1" style="stop-color:#ECD2EE" />
      </linearGradient>
      <circle class="st1" cx="355.1" cy="144.2" r="120.9" />
    </mask>
    <g class="st2">
      <g class="st3">
        <line class="st4" x1="463.6" y1="4.7" x2="463.6" y2="292.4" />
        <line class="st4" x1="439.3" y1="4.7" x2="439.3" y2="292.4" />
        <line class="st4" x1="415" y1="4.7" x2="415" y2="292.4" />
        <line class="st4" x1="390.7" y1="4.7" x2="390.7" y2="292.4" />
        <line class="st4" x1="366.4" y1="4.7" x2="366.4" y2="292.4" />
        <line class="st4" x1="342.1" y1="4.7" x2="342.1" y2="292.4" />
        <line class="st4" x1="317.8" y1="4.7" x2="317.8" y2="292.4" />
        <line class="st4" x1="293.5" y1="4.7" x2="293.5" y2="292.4" />
        <line class="st4" x1="269.3" y1="4.7" x2="269.3" y2="292.4" />
        <line class="st4" x1="197.8" y1="26.6" x2="485.5" y2="26.6" />
        <line class="st4" x1="197.8" y1="50.9" x2="485.5" y2="50.9" />
        <line class="st4" x1="197.8" y1="75.2" x2="485.5" y2="75.2" />
        <line class="st4" x1="197.8" y1="99.5" x2="485.5" y2="99.5" />
        <line class="st4" x1="197.8" y1="123.7" x2="485.5" y2="123.7" />
        <line class="st4" x1="197.8" y1="148" x2="485.5" y2="148" />
        <line class="st4" x1="197.8" y1="172.3" x2="485.5" y2="172.3" />
        <line class="st4" x1="197.8" y1="196.6" x2="485.5" y2="196.6" />
        <line class="st4" x1="197.8" y1="220.9" x2="485.5" y2="220.9" />
      </g>
    </g>

    <linearGradient id="SVGID_3_" gradientUnits="userSpaceOnUse" x1="240.2724" y1="-178.5777" x2="88.7927" y2="-243.972"
      gradientTransform="matrix(1 0 0 -1 -131.8543 159.2596)">
      <stop offset="0" style="stop-color:#EAEDFE" />
      <stop offset="0.474" style="stop-color:#FFFFFF" />
    </linearGradient>
    <path class="st5" d="M149.7,285.2L149.7,285.2c4.4,4.4,6.5,10.4,5.8,16.6c-1.3,11.1,3.2,21.8,11.9,28.7c4.9,3.9,7.7,9.6,7.7,15.9
		c0,6.2-2.8,12-7.7,15.9c-8.7,6.9-13.2,17.7-11.9,28.7c0.7,6.2-1.4,12.2-5.8,16.6h0c-4.4,4.4-10.4,6.5-16.6,5.8
		c-11.1-1.3-21.8,3.2-28.7,11.9h0c-3.9,4.9-9.6,7.7-15.9,7.7c-6.2,0-12-2.8-15.9-7.7h0c-6.9-8.7-17.7-13.2-28.7-11.9h0
		c-6.2,0.7-12.2-1.4-16.6-5.8h0c-4.4-4.4-6.5-10.4-5.8-16.6c1.3-11.1-3.2-21.8-11.9-28.7c-4.9-3.9-7.7-9.6-7.7-15.9
		c0-6.2,2.8-12,7.7-15.9c8.7-6.9,13.2-17.7,11.9-28.7c-0.7-6.2,1.4-12.2,5.8-16.6h0c4.4-4.4,10.4-6.5,16.6-5.8h0
		c11.1,1.3,21.8-3.2,28.7-11.9h0c3.9-4.9,9.6-7.7,15.9-7.7c6.2,0,12,2.8,15.9,7.7l0,0c6.9,8.7,17.7,13.2,28.7,11.9h0
		C139.3,278.7,145.3,280.8,149.7,285.2z" />

    <linearGradient id="SVGID_4_" gradientUnits="userSpaceOnUse" x1="236.6115" y1="-180.1584" x2="116.2586"
      y2="-232.116" gradientTransform="matrix(1 0 0 -1 -131.8543 159.2596)">
      <stop offset="0" style="stop-color:#EAEDFE" />
      <stop offset="0.474" style="stop-color:#FFFFFF" />
    </linearGradient>
    <path class="st6" d="M35.4,382.1c1-9-2.6-17.7-9.7-23.3c-3.8-3-6-7.5-6-12.4c0-4.9,2.2-9.4,6-12.4c7.1-5.6,10.7-14.3,9.7-23.3
		c-0.6-4.8,1.1-9.5,4.5-13h0c3.4-3.4,8.2-5.1,13-4.5h0c9,1,17.7-2.6,23.3-9.7h0c3-3.8,7.5-6,12.4-6c4.9,0,9.4,2.2,12.4,6l0,0
		c5.6,7.1,14.3,10.7,23.3,9.7l0,0c4.8-0.6,9.5,1.1,13,4.5l0,0c3.4,3.4,5.1,8.2,4.5,13c-1,9,2.6,17.7,9.7,23.3c3.8,3,6,7.5,6,12.4
		c0,4.9-2.2,9.4-6,12.4c-7.1,5.6-10.7,14.3-9.7,23.3c0.6,4.8-1.1,9.5-4.5,13h0c-3.4,3.4-8.2,5.1-13,4.5h0c-9-1-17.7,2.6-23.3,9.7v0
		c-3,3.8-7.5,6-12.4,6c-4.9,0-9.4-2.2-12.4-6h0c-5.6-7.1-14.3-10.7-23.3-9.7h0c-4.8,0.6-9.5-1.1-13-4.5h0
		C36.4,391.7,34.8,386.9,35.4,382.1z" />

    <linearGradient id="SVGID_5_" gradientUnits="userSpaceOnUse" x1="231.0179" y1="-182.573" x2="143.9808"
      y2="-220.1466" gradientTransform="matrix(1 0 0 -1 -131.8543 159.2596)">
      <stop offset="0" style="stop-color:#EAEDFE" />
      <stop offset="0.474" style="stop-color:#FFFFFF" />
    </linearGradient>
    <path class="st7" d="M122.9,312.1L122.9,312.1c-2.3-2.3-5.5-3.4-8.8-3.1h0c-6.6,0.8-13-1.9-17.2-7.1h0c-2-2.6-5.1-4.1-8.4-4.1
		c-3.3,0-6.3,1.5-8.4,4.1l0,0c-4.1,5.2-10.6,7.9-17.2,7.1l0,0c-3.3-0.4-6.5,0.7-8.8,3.1l0,0c-2.3,2.3-3.4,5.5-3.1,8.8 M122.9,312.1
		c2.3,2.3,3.4,5.5,3.1,8.8c-0.8,6.6,1.9,13,7.1,17.2c2.6,2,4.1,5.1,4.1,8.4c0,3.3-1.5,6.3-4.1,8.4c-5.2,4.1-7.9,10.6-7.1,17.2
		c0.4,3.3-0.7,6.5-3.1,8.8l0,0c-2.3,2.3-5.5,3.4-8.8,3.1h0c-6.6-0.8-13,1.9-17.2,7.1l0,0c-2,2.6-5.1,4.1-8.4,4.1
		c-3.3,0-6.3-1.5-8.4-4.1h0c-4.1-5.2-10.6-7.9-17.2-7.1h0c-3.3,0.4-6.5-0.7-8.8-3.1h0 M54.2,380.8c-2.3-2.3-3.4-5.5-3.1-8.8
		c0.8-6.6-1.9-13-7.1-17.2c-2.6-2-4.1-5.1-4.1-8.4c0-3.3,1.5-6.3,4.1-8.4 M44,338c5.2-4.1,7.9-10.6,7.1-17.2" />
    <path class="st8" d="M156.8,84.8l-2.9-5.3l-6.3,3.9c-0.2,0.1-0.5,0.3-0.8,0.4c1.1,2.2,2.9,5.5,2.9,5.5c0.2,0.5,0.8,0.5,1,0l1.4-2.5
		c0.2-0.5,0.9-1,1.5-1l2.6-0.1C156.8,85.6,157.1,85.3,156.8,84.8z" />
    <path class="st8" d="M136.4,79.4l-2.9,5.3c-0.2,0.5-0.1,0.9,0.7,0.9l2.6,0.1c0.6,0,1.3,0.5,1.5,1l1.4,2.5c0.2,0.5,0.8,0.5,1,0
		c0,0,1.8-3.3,2.9-5.5c-0.4-0.1-0.6-0.3-0.8-0.4L136.4,79.4z" />
    <path class="st8" d="M153.5,78.3c1.3-0.7,2.1-2.2,2.1-3.6v-7c0-1.5-0.8-2.9-2.1-3.6l-6.2-3.5c-0.8-0.4-1.4-0.5-2.1-0.5
		c-0.8,0-1.5,0.2-2.1,0.5l-6.2,3.5c-1.3,0.7-2.1,2.2-2.1,3.6v7c0,1.4,0.9,2.9,2.1,3.6l6.2,3.5c0.7,0.4,1.4,0.5,2.1,0.5
		c0.8,0,1.5-0.2,2.1-0.5L153.5,78.3z M145.1,79.2c-0.6,0-1.1-0.1-1.6-0.4l-4.5-2.5c-0.9-0.5-1.6-1.6-1.6-2.6v-5
		c0-1.1,0.6-2.1,1.6-2.6l4.5-2.5c0.5-0.2,1-0.4,1.6-0.4c0.6,0,1,0.1,1.6,0.4l4.5,2.5c1,0.5,1.6,1.5,1.6,2.6v5c0,1.1-0.6,2.1-1.6,2.6
		l-4.5,2.5C146.2,79.1,145.7,79.2,145.1,79.2z" />
    <path class="st9" d="M142.5,68.6c0.2,0.2,0.3,0.6,0,0.9l-1.4,1.4l1.4,1.5c0.2,0.3,0.2,0.7,0,0.9c-0.3,0.2-0.7,0.2-0.9,0l-1.8-1.9
		c-0.2-0.2-0.2-0.6,0-0.9l1.8-1.9C141.8,68.4,142.2,68.4,142.5,68.6z" />
    <path class="st9" d="M147.8,68.6c0.2-0.2,0.6-0.2,0.9,0l1.9,1.9c0.2,0.2,0.2,0.6,0,0.9l-1.9,1.9c-0.2,0.2-0.6,0.3-0.9,0
		c-0.2-0.2-0.3-0.6,0-0.9l1.4-1.5l-1.4-1.4C147.5,69.2,147.5,68.8,147.8,68.6z" />
    <path class="st9" d="M146.4,68.4c0.3,0.1,0.5,0.5,0.3,0.8l-1.6,4c-0.1,0.3-0.5,0.5-0.8,0.3c-0.3-0.1-0.5-0.5-0.3-0.8l1.6-4
		C145.7,68.4,146.1,68.3,146.4,68.4z" />
    <path class="st8" d="M454.8,256.6l-4.7-8.5l-10,6.3c-0.3,0.2-0.7,0.4-1.3,0.6c1.8,3.4,4.7,8.7,4.7,8.7c0.3,0.7,1.3,0.7,1.6,0l2.2-4
		c0.3-0.7,1.4-1.5,2.3-1.5l4.1-0.2C454.8,257.9,455.3,257.4,454.8,256.6z" />
    <path class="st8" d="M422.3,248.1l-4.7,8.5c-0.3,0.7-0.2,1.4,1,1.4l4.1,0.2c0.9,0,2,0.7,2.3,1.5l2.2,4c0.3,0.7,1.3,0.7,1.6,0
		c0,0,2.9-5.3,4.7-8.7c-0.6-0.2-0.9-0.4-1.3-0.6L422.3,248.1z" />
    <path class="st8" d="M449.5,246.3c2-1.1,3.4-3.4,3.4-5.7v-11.1c0-2.4-1.2-4.6-3.4-5.7l-9.9-5.5c-1.2-0.6-2.2-0.8-3.4-0.8
		c-1.2,0-2.4,0.3-3.4,0.8l-9.9,5.5c-2,1.1-3.4,3.4-3.4,5.7v11.1c0,2.2,1.4,4.6,3.4,5.7l9.9,5.5c1,0.6,2.2,0.8,3.4,0.8
		c1.2,0,2.4-0.3,3.4-0.8L449.5,246.3z M436.2,247.7c-0.9,0-1.7-0.1-2.5-0.6l-7.1-4c-1.4-0.8-2.5-2.5-2.5-4.2v-8c0-1.7,1-3.3,2.5-4.2
		l7.1-4c0.7-0.3,1.6-0.6,2.5-0.6c0.9,0,1.6,0.1,2.5,0.6l7.1,4c1.6,0.8,2.5,2.3,2.5,4.2v8c0,1.7-1,3.3-2.5,4.2l-7.1,4
		C438,247.6,437.1,247.7,436.2,247.7z" />
    <path class="st9" d="M432,230.8c0.4,0.4,0.4,1,0,1.4l-2.2,2.3l2.2,2.3c0.4,0.4,0.4,1,0,1.4c-0.4,0.4-1,0.4-1.4,0l-2.9-3
		c-0.4-0.4-0.4-1,0-1.4l2.9-3C431,230.4,431.6,230.4,432,230.8z" />
    <path class="st9" d="M440.4,230.8c0.4-0.4,1-0.4,1.4,0l3,3c0.4,0.4,0.4,1,0,1.4l-3,3c-0.4,0.4-1,0.4-1.4,0c-0.4-0.4-0.4-1,0-1.4
		l2.3-2.3l-2.3-2.3C440,231.8,440,231.2,440.4,230.8z" />
    <path class="st9" d="M438.3,230.5c0.5,0.2,0.8,0.8,0.6,1.3l-2.6,6.3c-0.2,0.5-0.8,0.8-1.3,0.6c-0.5-0.2-0.8-0.8-0.6-1.3l2.6-6.3
		C437.2,230.6,437.8,230.3,438.3,230.5z" />
    <path class="st10" d="M350.7,330H95.2c-3.3,0-6-2.7-6-6V145.8c0-3.3,2.7-6,6-6h255.5c3.3,0,6,2.7,6,6V324
		C356.7,327.3,354,330,350.7,330z" />
    <path class="st11" d="M69.4,129.1h259.5c2.2,0,4,1.8,4,4v170.3c0,2.2-1.8,4-4,4H69.4c-2.2,0-4-1.8-4-4V133.1
		C65.4,130.9,67.2,129.1,69.4,129.1z" />

    <radialGradient id="SVGID_6_" cx="-2186.1003" cy="291.4834" r="1"
      gradientTransform="matrix(120.4327 -31.118 -39.4976 -152.8636 274869.5 -23162.4102)"
      gradientUnits="userSpaceOnUse">
      <stop offset="0" style="stop-color:#E6B6EA;stop-opacity:0.61" />
      <stop offset="1" style="stop-color:#E6B6EA;stop-opacity:0" />
    </radialGradient>
    <path class="st12" d="M69.4,129.1h259.5c2.2,0,4,1.8,4,4v170.3c0,2.2-1.8,4-4,4H69.4c-2.2,0-4-1.8-4-4V133.1
		C65.4,130.9,67.2,129.1,69.4,129.1z" />

    <radialGradient id="SVGID_7_" cx="-2215.5405" cy="307.5583" r="1"
      gradientTransform="matrix(-73.8402 91.713 128.6922 103.6129 -202858.625 171494.25)"
      gradientUnits="userSpaceOnUse">
      <stop offset="0" style="stop-color:#386FCE;stop-opacity:0.46" />
      <stop offset="0.7604" style="stop-color:#386FCE;stop-opacity:7.000000e-02" />
      <stop offset="1" style="stop-color:#386FCE;stop-opacity:0" />
    </radialGradient>
    <path class="st13" d="M326.9,307.4H71.4c-3.3,0-6-2.7-6-6V135.1c0-3.3,2.7-6,6-6h255.5c3.3,0,6,2.7,6,6v166.3
		C332.9,304.7,330.2,307.4,326.9,307.4z" />
    <rect x="106.1" y="181.5" class="st14" width="34.1" height="5.2" />
    <rect x="159.9" y="181.5" class="st15" width="131.2" height="10.5" />
    <rect x="159.9" y="205.1" class="st16" width="59" height="10.5" />
    <rect x="159.9" y="228.7" class="st16" width="19.7" height="10.5" />
    <rect x="271.4" y="252.3" class="st16" width="19.7" height="10.5" />
    <rect x="184.8" y="228.7" class="st16" width="51.2" height="10.5" />
    <rect x="215" y="252.3" class="st17" width="51.2" height="10.5" />
    <rect x="241.2" y="228.7" class="st16" width="49.9" height="10.5" />
    <rect x="159.9" y="252.3" class="st16" width="49.9" height="10.5" />
    <rect x="115.3" y="207.7" class="st14" width="24.9" height="5.2" />
    <rect x="115.3" y="194.6" class="st14" width="24.9" height="5.2" />
    <rect x="106.1" y="220.9" class="st14" width="34.1" height="5.2" />
    <path class="st16" d="M65.4,121.2c0-2.2,1.8-4,4-4h259.5c2.2,0,4,1.8,4,4v18.6H65.4V121.2z" />
    <circle class="st18" cx="77.9" cy="128.4" r="3.3" />
    <circle class="st11" cx="89.7" cy="128.4" r="3.3" />
    <path class="st19" d="M96.3,139.8h236.6v10.7h-230L96.3,139.8z" />
    <path class="st11" d="M299.2,99.6c-3-1.2-6.2-3.4-8.6-6.4c-2.4-3.1-4.3-6.9-5.6-11.3l-1.4-4.9c-0.2-0.6-0.8-1.1-1.4-1.1
		c-0.7,0-1.2,0.4-1.4,1.1l-1.4,4.9c-1.3,4.3-3.2,8.2-5.6,11.3c-2.4,3-5.2,5.2-8.2,6.4c-0.6,0.2-0.9,0.7-0.9,1.3
		c0,0.6,0.3,1.1,0.9,1.4l0.5,0.2c5.9,2.6,10.7,8.8,13.3,17.2l1.5,5.2c0.2,0.6,0.8,1.1,1.4,1.1c0.7,0,1.2-0.4,1.4-1.1l1.5-5.2
		c2.5-8.4,7.7-14.7,13.7-17.2l0.5-0.2c0.5-0.2,0.9-0.8,0.9-1.4C300.1,100.3,299.7,99.8,299.2,99.6z" />

    <linearGradient id="SVGID_8_" gradientUnits="userSpaceOnUse" x1="181.2995" y1="-12.0969" x2="181.2995" y2="-84.9728"
      gradientTransform="matrix(1 0 0 -1 -131.8543 159.2596)">
      <stop offset="0" style="stop-color:#F278A4;stop-opacity:0.84" />
      <stop offset="1" style="stop-color:#E6B6EA;stop-opacity:0.26" />
    </linearGradient>
    <path class="st20" d="M19,171.4h60.9c3.3,0,6,2.7,6,6v60.9c0,3.3-2.7,6-6,6H19c-3.3,0-6-2.7-6-6v-60.9C13,174,15.7,171.4,19,171.4z
		" />
    <path class="st11" d="M69.6,224.2l-5-9.2l-10.9,6.8c-0.3,0.2-0.8,0.4-1.4,0.6c1.9,3.7,5,9.5,5,9.5c0.3,0.8,1.4,0.8,1.7,0l2.3-4.3
		c0.3-0.8,1.6-1.6,2.5-1.6l4.4-0.2C69.6,225.7,70.1,225.1,69.6,224.2z" />
    <path class="st11" d="M34.3,215l-5,9.2c-0.3,0.8-0.2,1.5,1.1,1.5l4.4,0.2c1,0,2.2,0.8,2.5,1.6l2.3,4.3c0.3,0.8,1.4,0.8,1.7,0
		c0,0,3.1-5.7,5-9.5c-0.6-0.2-1-0.4-1.4-0.6L34.3,215z" />
    <path class="st11" d="M63.7,213.1c2.2-1.2,3.6-3.7,3.6-6.2v-12.1c0-2.6-1.3-5-3.6-6.2l-10.7-6c-1.3-0.7-2.4-0.9-3.6-0.9
		c-1.3,0-2.6,0.3-3.6,0.9l-10.7,6c-2.2,1.2-3.6,3.7-3.6,6.2v12c0,2.4,1.5,5,3.6,6.2l10.7,6c1.1,0.7,2.4,0.9,3.6,0.9
		c1.3,0,2.6-0.3,3.6-0.9L63.7,213.1z M49.4,214.7c-1,0-1.8-0.1-2.7-0.6l-7.7-4.3c-1.6-0.9-2.7-2.7-2.7-4.5v-8.7c0-1.8,1-3.6,2.7-4.5
		l7.7-4.3c0.8-0.3,1.7-0.6,2.7-0.6c1,0,1.7,0.1,2.7,0.6l7.7,4.3c1.7,0.9,2.7,2.5,2.7,4.5v8.7c0,1.8-1,3.6-2.7,4.5l-7.7,4.3
		C51.3,214.5,50.4,214.7,49.4,214.7z" />
    <path class="st21" d="M44.9,196.3c0.4,0.4,0.4,1.1,0,1.5l-2.4,2.5l2.4,2.5c0.4,0.4,0.4,1.1,0,1.5c-0.4,0.4-1.1,0.4-1.5,0l-3.1-3.3
		c-0.4-0.4-0.4-1.1,0-1.5l3.1-3.2C43.7,195.9,44.4,195.9,44.9,196.3z" />
    <path class="st21" d="M53.9,196.3c0.4-0.4,1.1-0.4,1.5,0l3.2,3.2c0.4,0.4,0.4,1.1,0,1.5l-3.2,3.3c-0.4,0.4-1.1,0.4-1.5,0
		c-0.4-0.4-0.4-1.1,0-1.5l2.5-2.5l-2.5-2.5C53.5,197.5,53.5,196.8,53.9,196.3z" />
    <path class="st21" d="M51.6,196c0.6,0.2,0.8,0.9,0.6,1.4l-2.8,6.9c-0.2,0.6-0.9,0.8-1.4,0.6c-0.6-0.2-0.8-0.9-0.6-1.4l2.8-6.9
		C50.4,196.1,51.1,195.8,51.6,196z" />

    <linearGradient id="SVGID_9_" gradientUnits="userSpaceOnUse" x1="459.6238" y1="129.8709" x2="556.9548" y2="120.7539"
      gradientTransform="matrix(1 0 0 -1 -131.8543 159.2596)">
      <stop offset="0" style="stop-color:#2E3ECA;stop-opacity:0.53" />
      <stop offset="1" style="stop-color:#A4B6F8;stop-opacity:0.65" />
    </linearGradient>
    <circle class="st22" cx="375.5" cy="33.9" r="33.5" />
    <path class="st23" d="M405,35l-1.1,0c0-0.4,0-0.7,0-1.1s0-0.8,0-1.1l1.1,0c0,0.4,0,0.8,0,1.2C405.1,34.2,405.1,34.6,405,35z
		 M404.9,30.4l-1.1,0.1c-0.1-0.7-0.2-1.5-0.4-2.2l1.1-0.2C404.6,28.8,404.8,29.6,404.9,30.4z M403.9,25.8l-1.1,0.3
		c-0.2-0.7-0.4-1.4-0.7-2.1l1-0.4C403.5,24.3,403.7,25,403.9,25.8z M402.3,21.4l-1,0.5c-0.3-0.7-0.7-1.3-1-2l1-0.6
		C401.6,20,402,20.7,402.3,21.4z M400,17.4l-0.9,0.6c-0.4-0.6-0.9-1.2-1.3-1.8l0.9-0.7C399.1,16.1,399.6,16.7,400,17.4z M397.1,13.7
		l-0.8,0.8c-0.5-0.5-1-1.1-1.6-1.6l0.8-0.8C396,12.6,396.5,13.2,397.1,13.7z M393.6,10.6l-0.7,0.9c-0.6-0.5-1.2-0.9-1.8-1.3l0.6-0.9
		C392.4,9.6,393,10.1,393.6,10.6z M389.7,8l-0.5,1c-0.7-0.4-1.3-0.7-2-1l0.5-1C388.4,7.3,389.1,7.6,389.7,8z M385.5,6.1l-0.4,1
		c-0.7-0.3-1.4-0.5-2.1-0.7l0.3-1.1C384,5.6,384.8,5.8,385.5,6.1z M381,4.8l-0.2,1.1c-0.7-0.1-1.5-0.3-2.2-0.3l0.1-1.1
		C379.5,4.6,380.2,4.7,381,4.8z M376.4,4.3l0,1.1c-0.4,0-0.7,0-1.1,0c-0.4,0-0.8,0-1.1,0l0-1.1c0.4,0,0.8,0,1.2,0
		C375.6,4.3,376,4.3,376.4,4.3z M371.7,4.5l0.1,1.1c-0.7,0.1-1.5,0.2-2.2,0.3l-0.2-1.1C370.1,4.7,370.9,4.6,371.7,4.5z M367.1,5.4
		l0.3,1.1c-0.7,0.2-1.4,0.4-2.1,0.7l-0.4-1C365.6,5.8,366.4,5.6,367.1,5.4z M362.7,7l0.5,1c-0.7,0.3-1.4,0.6-2,1l-0.5-1
		C361.3,7.6,362,7.3,362.7,7z M358.6,9.2c-0.7,0.4-1.3,0.9-1.9,1.4l0.7,0.9c0.6-0.5,1.2-0.9,1.8-1.3L358.6,9.2z M355,12.1l0.8,0.8
		c-0.6,0.5-1.1,1-1.6,1.6l-0.8-0.8C353.8,13.2,354.4,12.6,355,12.1z M351.8,15.5l0.9,0.7c-0.5,0.6-0.9,1.2-1.3,1.8l-0.9-0.6
		C350.8,16.7,351.3,16.1,351.8,15.5z M349.1,19.3c-0.4,0.7-0.7,1.4-1.1,2.1l1,0.5c0.3-0.7,0.7-1.3,1-2L349.1,19.3z M347.2,23.6
		l1,0.4c-0.3,0.7-0.5,1.4-0.7,2.1l-1.1-0.3C346.7,25,346.9,24.3,347.2,23.6z M345.9,28.1l1.1,0.2c-0.1,0.7-0.3,1.5-0.4,2.2l-1.1-0.1
		C345.6,29.6,345.7,28.8,345.9,28.1z M345.3,32.7c0,0.4,0,0.8,0,1.2c0,0.4,0,0.8,0,1.2l1.1,0c0-0.4,0-0.7,0-1.1s0-0.8,0-1.1
		L345.3,32.7z M345.5,37.4l1.1-0.1c0.1,0.7,0.2,1.5,0.4,2.2l-1.1,0.2C345.7,38.9,345.6,38.1,345.5,37.4z M346.4,41.9l1.1-0.3
		c0.2,0.7,0.4,1.4,0.7,2.1l-1,0.4C346.9,43.4,346.7,42.7,346.4,41.9z M348.1,46.3l1-0.5c0.3,0.7,0.7,1.3,1,2l-1,0.6
		C348.8,47.7,348.4,47,348.1,46.3z M350.4,50.4l0.9-0.6c0.4,0.6,0.9,1.2,1.3,1.8l-0.9,0.7C351.3,51.6,350.8,51,350.4,50.4z
		 M353.3,54l0.8-0.8c0.5,0.5,1,1.1,1.6,1.6l-0.8,0.8C354.4,55.1,353.8,54.6,353.3,54z M356.7,57.1l0.7-0.9c0.6,0.5,1.2,0.9,1.8,1.3
		l-0.6,0.9C358,58.1,357.4,57.6,356.7,57.1z M360.6,59.7l0.5-1c0.7,0.4,1.3,0.7,2,1l-0.5,1C362,60.4,361.3,60.1,360.6,59.7z
		 M364.9,61.6l0.4-1c0.7,0.3,1.4,0.5,2.1,0.7l-0.3,1.1C366.4,62.1,365.6,61.9,364.9,61.6z M369.4,62.9l0.2-1.1
		c0.7,0.1,1.5,0.3,2.2,0.3l-0.1,1.1C370.9,63.2,370.1,63,369.4,62.9z M374,63.4l0-1.1c0.4,0,0.8,0,1.1,0c0.4,0,0.8,0,1.1,0l0,1.1
		c-0.4,0-0.8,0-1.2,0C374.8,63.4,374.4,63.4,374,63.4z M378.7,63.2l-0.1-1.1c0.7-0.1,1.5-0.2,2.2-0.3l0.2,1.1
		C380.2,63,379.5,63.2,378.7,63.2z M383.3,62.4l-0.3-1.1c0.7-0.2,1.4-0.4,2.1-0.7l0.4,1C384.8,61.9,384,62.1,383.3,62.4z
		 M387.6,60.8l-0.5-1c0.7-0.3,1.4-0.6,2-1l0.5,1C389.1,60.1,388.4,60.4,387.6,60.8z M391.7,58.5l-0.6-0.9c0.6-0.4,1.2-0.9,1.8-1.3
		l0.7,0.9C393,57.6,392.4,58.1,391.7,58.5z M395.4,55.6l-0.8-0.8c0.6-0.5,1.1-1,1.6-1.6l0.8,0.8C396.5,54.6,396,55.1,395.4,55.6z
		 M398.6,52.2l-0.9-0.7c0.5-0.6,0.9-1.2,1.3-1.8l0.9,0.6C399.6,51,399.1,51.6,398.6,52.2z M401.2,48.4l-1-0.6c0.4-0.6,0.7-1.3,1-2
		l1,0.5C402,47,401.6,47.7,401.2,48.4z M403.2,44.1l-1-0.4c0.3-0.7,0.5-1.4,0.7-2.1l1.1,0.3C403.7,42.7,403.5,43.4,403.2,44.1z
		 M404.5,39.7l-1.1-0.2c0.1-0.7,0.3-1.5,0.4-2.2l1.1,0.1C404.8,38.1,404.6,38.9,404.5,39.7z" />
    <path class="st11" d="M375.3,50.6c-9.3,0-16.9-7.6-16.9-17h4.7c0,2.4,0.7,4.8,2.1,6.8c1.3,2,3.3,3.6,5.5,4.5
		c2.2,0.9,4.7,1.2,7.1,0.7c2.4-0.5,4.6-1.6,6.3-3.4c1.7-1.7,2.9-3.9,3.4-6.3c0.5-2.4,0.2-4.9-0.7-7.1c-0.9-2.2-2.5-4.2-4.5-5.5
		c-2-1.3-4.4-2.1-6.8-2.1v-4.7c9.3,0,16.9,7.6,16.9,17S384.7,50.6,375.3,50.6z" />
    <path class="st24" d="M375.4,45.9c-3.3,0-6.4-1.3-8.7-3.6c-2.3-2.3-3.6-5.4-3.6-8.7c0-3.3,1.3-6.4,3.6-8.7c2.3-2.3,5.4-3.6,8.7-3.6
		V26c-2,0-4,0.8-5.4,2.2c-1.4,1.4-2.2,3.4-2.2,5.4s0.8,4,2.2,5.4c1.4,1.4,3.4,2.2,5.4,2.2V45.9z" />
    <path class="st24" d="M375.2,55.1v-4.7c9.3,0,16.8-7.5,16.8-16.8s-7.5-16.8-16.8-16.8c-9.3,0-16.8,7.5-16.8,16.8h-4.7
		c0-11.9,9.6-21.5,21.5-21.5c11.8,0,21.5,9.6,21.5,21.5C396.7,45.5,387,55.1,375.2,55.1z" />

    <linearGradient id="SVGID_10_" gradientUnits="userSpaceOnUse" x1="381.4986" y1="-169.4289" x2="568.8716"
      y2="-187.1169" gradientTransform="matrix(1 0 0 -1 -131.8543 159.2596)">
      <stop offset="0" style="stop-color:#2E3ECA;stop-opacity:0.53" />
      <stop offset="1" style="stop-color:#A4B6F8;stop-opacity:0.65" />
    </linearGradient>
    <ellipse class="st25" cx="341.5" cy="337.4" rx="64.5" ry="64" />
    <path class="st23" d="M398.4,339.6l-2.1-0.1c0-0.7,0-1.4,0-2.1s0-1.4,0-2.1l2.1-0.1c0,0.7,0,1.5,0,2.2S398.4,338.8,398.4,339.6z
		 M398,330.7l-2.1,0.3c-0.2-1.4-0.4-2.8-0.7-4.2l2.1-0.4C397.6,327.7,397.9,329.2,398,330.7z M396.3,321.9l-2.1,0.6
		c-0.4-1.4-0.8-2.7-1.4-4.1l2-0.7C395.4,319.1,395.9,320.5,396.3,321.9z M393.1,313.6l-1.9,0.9c-0.6-1.3-1.3-2.6-2-3.8l1.9-1.1
		C391.8,310.9,392.5,312.2,393.1,313.6z M388.7,305.8l-1.8,1.2c-0.8-1.2-1.7-2.3-2.6-3.5l1.7-1.3C387,303.4,387.8,304.6,388.7,305.8
		z M383.1,298.9l-1.6,1.5c-1-1-2-2-3.1-3l1.4-1.6C381,296.8,382,297.8,383.1,298.9z M376.4,292.9l-1.3,1.7c-1.1-0.9-2.3-1.7-3.5-2.5
		l1.2-1.8C374,291.1,375.3,292,376.4,292.9z M368.9,288l-1,1.9c-1.3-0.7-2.5-1.3-3.9-1.9l0.9-1.9C366.3,286.6,367.6,287.2,368.9,288
		z M360.8,284.3l-0.7,2c-1.3-0.5-2.7-0.9-4.1-1.3l0.6-2.1C357.9,283.3,359.4,283.8,360.8,284.3z M352.1,281.9l-0.4,2.1
		c-1.4-0.3-2.8-0.5-4.3-0.7l0.2-2.1C349.2,281.4,350.6,281.6,352.1,281.9z M343.2,280.9l-0.1,2.1c-0.7,0-1.4,0-2.2,0
		c-0.7,0-1.5,0-2.2,0l-0.1-2.1c0.7,0,1.5,0,2.3,0C341.7,280.8,342.4,280.8,343.2,280.9z M334.2,281.2l0.2,2.1
		c-1.4,0.2-2.9,0.4-4.3,0.7l-0.4-2.1C331.2,281.6,332.7,281.4,334.2,281.2z M325.4,282.9l0.6,2.1c-1.4,0.4-2.8,0.8-4.1,1.3l-0.7-2
		C322.5,283.8,323.9,283.3,325.4,282.9z M316.9,286l0.9,1.9c-1.3,0.6-2.6,1.2-3.9,1.9l-1-1.9C314.2,287.2,315.6,286.6,316.9,286z
		 M309.1,290.3c-1.3,0.8-2.5,1.7-3.7,2.6l1.3,1.7c1.1-0.9,2.3-1.7,3.5-2.5L309.1,290.3z M302,295.8l1.4,1.6c-1.1,1-2.1,2-3.1,3
		l-1.6-1.5C299.8,297.8,300.9,296.8,302,295.8z M295.8,302.3l1.7,1.3c-0.9,1.1-1.8,2.3-2.6,3.5l-1.8-1.2
		C294,304.6,294.9,303.4,295.8,302.3z M290.8,309.6c-0.7,1.3-1.4,2.6-2.1,4l1.9,0.9c0.6-1.3,1.3-2.6,2-3.8L290.8,309.6z M287,317.7
		l2,0.7c-0.5,1.3-1,2.7-1.4,4.1l-2.1-0.6C286,320.5,286.5,319.1,287,317.7z M284.5,326.3l2.1,0.4c-0.3,1.4-0.5,2.8-0.7,4.2l-2.1-0.3
		C284,329.2,284.2,327.7,284.5,326.3z M283.5,335.1c0,0.7,0,1.5,0,2.2s0,1.5,0,2.2l2.1-0.1c0-0.7,0-1.4,0-2.1s0-1.4,0-2.1
		L283.5,335.1z M283.8,344l2.1-0.3c0.2,1.4,0.4,2.8,0.7,4.2l-2.1,0.4C284.2,347,284,345.5,283.8,344z M285.6,352.8l2.1-0.6
		c0.4,1.4,0.8,2.7,1.4,4.1l-2,0.7C286.5,355.6,286,354.2,285.6,352.8z M288.7,361.1l1.9-0.9c0.6,1.3,1.3,2.6,2,3.8l-1.9,1.1
		C290.1,363.8,289.4,362.5,288.7,361.1z M293.2,368.9l1.8-1.2c0.8,1.2,1.7,2.3,2.6,3.5l-1.7,1.3C294.9,371.3,294,370.1,293.2,368.9z
		 M298.8,375.8l1.6-1.5c1,1,2,2.1,3.1,3L302,379C300.9,378,299.8,376.9,298.8,375.8z M305.4,381.8l1.3-1.7c1.1,0.9,2.3,1.7,3.5,2.5
		l-1.2,1.8C307.8,383.6,306.6,382.7,305.4,381.8z M312.9,386.7l1-1.9c1.3,0.7,2.5,1.3,3.9,1.9l-0.9,1.9
		C315.6,388.1,314.2,387.5,312.9,386.7z M321.1,390.4l0.7-2c1.4,0.5,2.7,0.9,4.1,1.3l-0.6,2.1C323.9,391.4,322.5,390.9,321.1,390.4z
		 M329.8,392.8l0.4-2.1c1.4,0.3,2.8,0.5,4.3,0.7l-0.2,2.1C332.7,393.3,331.2,393.1,329.8,392.8z M338.7,393.8l0.1-2.1
		c0.7,0,1.4,0,2.2,0c0.7,0,1.4,0,2.2,0l0.1,2.1c-0.7,0-1.5,0-2.2,0C340.2,393.9,339.4,393.9,338.7,393.8z M347.7,393.5l-0.2-2.1
		c1.4-0.2,2.9-0.4,4.3-0.7l0.4,2.1C350.6,393.1,349.2,393.3,347.7,393.5z M356.5,391.8l-0.6-2.1c1.4-0.4,2.8-0.8,4.1-1.3l0.7,2
		C359.4,390.9,357.9,391.4,356.5,391.8z M364.9,388.8l-0.9-1.9c1.3-0.6,2.6-1.2,3.9-1.9l1,1.9C367.6,387.5,366.3,388.1,364.9,388.8z
		 M372.8,384.4l-1.2-1.8c1.2-0.8,2.4-1.6,3.5-2.5l1.3,1.7C375.3,382.7,374,383.6,372.8,384.4z M379.9,379l-1.4-1.6
		c1.1-1,2.1-2,3.1-3l1.6,1.5C382,376.9,381,378,379.9,379z M386,372.5l-1.7-1.3c0.9-1.1,1.8-2.3,2.6-3.5l1.8,1.2
		C387.8,370.1,387,371.3,386,372.5z M391.1,365.1l-1.9-1.1c0.7-1.2,1.4-2.5,2-3.8l1.9,0.9C392.5,362.5,391.8,363.8,391.1,365.1z
		 M394.9,357l-2-0.7c0.5-1.3,1-2.7,1.4-4.1l2.1,0.6C395.9,354.2,395.4,355.6,394.9,357z M397.3,348.4l-2.1-0.4
		c0.3-1.4,0.5-2.8,0.7-4.2l2.1,0.3C397.9,345.5,397.6,347,397.3,348.4z" />
    <path class="st11" d="M376.2,308.9l-70.2,3.6v-7.1h70.2V308.9z" />
    <path class="st11" d="M376.2,314.3l-70.2,3.2v-6.8l70.2,0.3V314.3z" />
    <path class="st11" d="M376.2,319.7l-70.2,2.9v-6.5l70.2,0.6V319.7z" />
    <path class="st11" d="M376.2,325.1l-70.2,2.6v-6.2l70.2,1V325.1z" />
    <path class="st11" d="M376.2,330.5l-70.2,2.3v-5.8l70.2,1.3V330.5z" />
    <path class="st11" d="M376.2,335.9l-70.2,1.9v-5.5l70.2,1.6V335.9z" />
    <path class="st11" d="M376.2,341.3l-70.2,1.6v-5.2l70.2,1.9V341.3z" />
    <path class="st11" d="M376.2,346.7L306,348v-4.9l70.2,2.3V346.7z" />
    <path class="st11" d="M376.2,352.1l-70.2,1v-4.5l70.2,2.6V352.1z" />
    <path class="st11" d="M376.2,357.5l-70.2,0.6v-4.2l70.2,2.9V357.5z" />
    <path class="st11" d="M376.2,362.9l-70.2,0.3v-3.9l70.2,3.2V362.9z" />
    <path class="st11" d="M376.2,368.3H306v-3.6L376.2,368.3z" />
  </g>
</svg>