<?xml version="1.0" encoding="utf-8"?>
<!-- Generator: Adobe Illustrator 25.2.0, SVG Export Plug-In . SVG Version: 6.00 Build 0)  -->
<svg version="1.1" id="Layer_1" xmlns="http://www.w3.org/2000/svg" xmlns:xlink="http://www.w3.org/1999/xlink" x="0px"
  y="0px" viewBox="0 0 485 449" style="enable-background:new 0 0 485 449;" xml:space="preserve">
  <style type="text/css">
    .st0 {
      fill: #F8FAFF;
    }

    .st1 {
      fill: none;
      stroke: url(#SVGID_1_);
      stroke-width: 5;
    }

    .st2 {
      fill: none;
      stroke: url(#SVGID_2_);
      stroke-width: 5;
    }

    .st3 {
      fill: none;
      stroke: url(#SVGID_3_);
      stroke-width: 5;
    }

    .st4 {
      clip-path: url(#SVGID_5_);
      fill: #C4C4C4;
      filter: url(#Adobe_OpacityMaskFilter);
    }

    .st5 {
      clip-path: url(#SVGID_5_);
      mask: url(#mask0_414:30616_1_);
    }

    .st6 {
      fill: url(#SVGID_6_);
    }

    .st7 {
      fill: url(#SVGID_7_);
      filter: url(#Adobe_OpacityMaskFilter_1_);
    }

    .st8 {
      mask: url(#mask1_414:30616_1_);
    }

    .st9 {
      opacity: 0.5;
    }

    .st10 {
      fill: none;
      stroke: #FFFFFF;
    }

    .st11 {
      fill: url(#SVGID_8_);
    }

    .st12 {
      fill: url(#SVGID_9_);
    }

    .st13 {
      fill: url(#SVGID_10_);
    }

    .st14 {
      fill: #FFFFFF;
    }

    .st15 {
      fill: url(#SVGID_11_);
    }

    .st16 {
      fill: url(#SVGID_12_);
    }

    .st17 {
      fill: url(#SVGID_13_);
    }

    .st18 {
      fill: url(#SVGID_14_);
    }

    .st19 {
      opacity: 0.3;
      fill-rule: evenodd;
      clip-rule: evenodd;
      fill: #FFFFFF;
      enable-background: new;
    }

    .st20 {
      fill: url(#SVGID_15_);
    }

    .st21 {
      fill: #8589E3;
    }

    .st22 {
      fill: url(#SVGID_16_);
    }

    .st23 {
      fill: #F278A4;
    }

    .st24 {
      opacity: 0.5;
      fill: #FFFFFF;
      enable-background: new;
    }

    .st25 {
      fill-rule: evenodd;
      clip-rule: evenodd;
      fill: #0D5372;
      fill-opacity: 6.000000e-02;
    }

    .st26 {
      fill-rule: evenodd;
      clip-rule: evenodd;
      fill: #FEFEFE;
    }

    .st27 {
      fill: #FEFEFE;
    }

    .st28 {
      fill-rule: evenodd;
      clip-rule: evenodd;
      fill: #FCCDD3;
    }

    .st29 {
      fill-rule: evenodd;
      clip-rule: evenodd;
      fill: #6534FF;
    }

    .st30 {
      fill: #D1DCFA;
    }

    .st31 {
      fill-rule: evenodd;
      clip-rule: evenodd;
      fill: #D1DCFA;
    }
  </style>
  <path class="st0" d="M52,15h387c16.6,0,30,13.4,30,30v374c0,16.6-13.4,30-30,30H52c-16.6,0-30-13.4-30-30V45C22,28.4,35.4,15,52,15z
	" />
  <g>

    <linearGradient id="SVGID_1_" gradientUnits="userSpaceOnUse" x1="243.2955" y1="184.6881" x2="122.3365" y2="65.9971"
      gradientTransform="matrix(1 0 0 -1 0 450)">
      <stop offset="0" style="stop-color:#EBF1FF;stop-opacity:0.67" />
      <stop offset="0.8839" style="stop-color:#FFFFFF" />
      <stop offset="1" style="stop-color:#FFFFFF" />
    </linearGradient>
    <path class="st1" d="M248.2,259.4L248.2,259.4c4.3,4.3,6.4,10.2,5.7,16.3c-1.3,11.3,3.2,22.2,12.1,29.3c4.8,3.8,7.5,9.5,7.5,15.5
		c0,6.1-2.7,11.8-7.5,15.5c-8.9,7.1-13.4,18-12.1,29.3c0.7,6.1-1.4,12-5.7,16.3h0c-4.3,4.3-10.2,6.4-16.3,5.7h0
		c-11.3-1.3-22.2,3.2-29.3,12.1h0c-3.8,4.8-9.4,7.5-15.5,7.5c-6.1,0-11.8-2.7-15.5-7.5v0c-7.1-8.9-18-13.4-29.3-12.1h0
		c-6.1,0.7-12-1.4-16.3-5.7l0,0c-4.3-4.3-6.4-10.2-5.7-16.3c1.3-11.3-3.2-22.2-12.1-29.3c-4.8-3.8-7.5-9.4-7.5-15.5
		s2.7-11.8,7.5-15.5c8.9-7.1,13.4-18,12.1-29.3c-0.7-6.1,1.4-12,5.7-16.3v0c4.3-4.3,10.2-6.4,16.3-5.7h0
		c11.3,1.3,22.2-3.2,29.3-12.1v0c3.8-4.8,9.4-7.5,15.5-7.5s11.8,2.7,15.5,7.5l0,0c7.1,8.9,18,13.4,29.3,12.1l0,0
		C237.9,253,243.9,255.1,248.2,259.4z" />

    <linearGradient id="SVGID_2_" gradientUnits="userSpaceOnUse" x1="235.9378" y1="154.8877" x2="136.8277" y2="103.399"
      gradientTransform="matrix(1 0 0 -1 0 450)">
      <stop offset="0" style="stop-color:#E8EEFF;stop-opacity:0.52" />
      <stop offset="0.8839" style="stop-color:#FFFFFF" />
    </linearGradient>
    <path class="st2" d="M235.6,272L235.6,272c-3.3-3.3-7.9-4.9-12.6-4.4h0c-9.2,1.1-18.1-2.6-23.9-9.9v0c-2.9-3.7-7.3-5.8-12-5.8
		c-4.7,0-9.1,2.1-12,5.8l0,0c-5.8,7.2-14.7,10.9-23.9,9.9h0c-4.7-0.5-9.3,1.1-12.6,4.4h0c-3.3,3.3-4.9,7.9-4.4,12.6 M235.6,272
		c3.3,3.3,4.9,7.9,4.4,12.6c-1.1,9.2,2.6,18.1,9.9,23.9c3.7,2.9,5.8,7.3,5.8,12s-2.1,9.1-5.8,12c-7.2,5.8-11,14.7-9.9,23.9
		c0.5,4.7-1.1,9.3-4.4,12.6l0,0c-3.3,3.3-7.9,4.9-12.6,4.4l0,0c-9.2-1.1-18.1,2.6-23.9,9.9l0,0c-2.9,3.7-7.3,5.8-12,5.8
		c-4.7,0-9.1-2.1-12-5.8l0,0c-5.8-7.2-14.7-11-23.9-9.9h0c-4.7,0.5-9.3-1.1-12.6-4.4l0,0 M138.5,369.1c-1.8-1.8-3.1-4-3.9-6.4
		c0-0.1-0.1-0.3-0.1-0.4c-0.5-1.8-0.6-3.8-0.4-5.8 M124.2,308.5c-3.7,2.9-5.8,7.3-5.8,12s2.1,9.1,5.8,12L124.2,308.5z M124.2,308.5
		c7.2-5.8,11-14.7,9.9-23.9L124.2,308.5z M134.1,356.4c1.1-9.2-2.6-18.1-9.9-23.9" />

    <linearGradient id="SVGID_3_" gradientUnits="userSpaceOnUse" x1="223.2261" y1="147.1883" x2="158.0461" y2="115.2998"
      gradientTransform="matrix(1 0 0 -1 0 450)">
      <stop offset="0" style="stop-color:#E6EDFE;stop-opacity:0.35" />
      <stop offset="1" style="stop-color:#FFFFFF" />
    </linearGradient>
    <path class="st3" d="M221.2,286.3L221.2,286.3c-2.2-2.2-5.3-3.3-8.4-2.9h0c-6.8,0.8-13.4-2-17.7-7.3v0c-2-2.5-4.9-3.9-8-3.9
		c-3.2,0-6.1,1.4-8,3.9h0c-4.3,5.4-10.9,8.1-17.7,7.3h0c-3.1-0.4-6.2,0.7-8.4,2.9v0c-2.2,2.2-3.3,5.3-2.9,8.4 M221.2,286.3
		c2.2,2.2,3.3,5.3,2.9,8.4 M221.2,286.3l2.9,8.4 M152.9,354.7L152.9,354.7c2.2,2.2,5.3,3.3,8.4,2.9h0c6.8-0.8,13.4,2,17.7,7.3h0
		c2,2.5,4.9,3.9,8,3.9c3.2,0,6.1-1.4,8-3.9l0,0c4.3-5.4,10.9-8.1,17.7-7.3v0c3.1,0.4,6.2-0.7,8.4-2.9l0,0c2.2-2.2,3.3-5.3,2.9-8.4
		c-0.8-6.8,2-13.4,7.3-17.7 M152.9,354.7c-2.2-2.2-3.3-5.3-2.9-8.4 M224.2,294.8c-0.8,6.8,2,13.4,7.3,17.7 M224.2,294.8l7.3,17.7
		 M231.5,312.5c2.5,2,3.9,4.9,3.9,8c0,3.2-1.4,6.1-3.9,8L231.5,312.5z M142.6,312.5c-2.5,2-3.9,4.9-3.9,8c0,3.2,1.4,6.1,3.9,8
		c5.4,4.3,8.1,10.9,7.3,17.7 M142.6,312.5c5.4-4.3,8.1-10.9,7.3-17.7L142.6,312.5z" />
  </g>
  <g>
    <defs>
      <path id="SVGID_4_" d="M52,15h387c16.6,0,30,13.4,30,30v374c0,16.6-13.4,30-30,30H52c-16.6,0-30-13.4-30-30V45
			C22,28.4,35.4,15,52,15z" />
    </defs>
    <clipPath id="SVGID_5_">
      <use xlink:href="#SVGID_4_" style="overflow:visible;" />
    </clipPath>
    <defs>
      <filter id="Adobe_OpacityMaskFilter" filterUnits="userSpaceOnUse" x="187.4" y="-73.2" width="265.3"
        height="265.3">
        <feColorMatrix type="matrix" values="1 0 0 0 0  0 1 0 0 0  0 0 1 0 0  0 0 0 1 0" />
      </filter>
    </defs>
    <mask maskUnits="userSpaceOnUse" x="187.4" y="-73.2" width="265.3" height="265.3" id="mask0_414:30616_1_">
      <rect x="179" class="st4" width="306" height="172" />
    </mask>
    <g class="st5">
      <g>
        <linearGradient id="SVGID_6_" gradientUnits="userSpaceOnUse" x1="246.4635" y1="129.1777" x2="416.5822"
          y2="-16.0117">
          <stop offset="0" style="stop-color:#F8FAFF" />
          <stop offset="1" style="stop-color:#EAF0FF" />
        </linearGradient>
        <circle class="st6" cx="333.6" cy="54.8" r="111.8" />
      </g>
      <defs>
        <filter id="Adobe_OpacityMaskFilter_1_" filterUnits="userSpaceOnUse" x="187.4" y="-73.2" width="265.3"
          height="265.3">
          <feColorMatrix type="matrix" values="1 0 0 0 0  0 1 0 0 0  0 0 1 0 0  0 0 0 1 0" />
        </filter>
      </defs>
      <mask maskUnits="userSpaceOnUse" x="187.4" y="-73.2" width="265.3" height="265.3" id="mask1_414:30616_1_">

        <linearGradient id="SVGID_7_" gradientUnits="userSpaceOnUse" x1="414.6366" y1="495.7745" x2="260.5876"
          y2="305.8436" gradientTransform="matrix(1 0 0 -1 0 450)">
          <stop offset="0" style="stop-color:#F8B2D9" />
          <stop offset="1" style="stop-color:#ECD2EE" />
        </linearGradient>
        <circle class="st7" cx="332.5" cy="55.5" r="111.5" />
      </mask>
      <g class="st8">
        <g class="st9">
          <line class="st10" x1="432.5" y1="-73.2" x2="432.5" y2="192.1" />
          <line class="st10" x1="410.1" y1="-73.2" x2="410.1" y2="192.1" />
          <line class="st10" x1="387.7" y1="-73.2" x2="387.7" y2="192.1" />
          <line class="st10" x1="365.4" y1="-73.2" x2="365.4" y2="192.1" />
          <line class="st10" x1="343" y1="-73.2" x2="343" y2="192.1" />
          <line class="st10" x1="320.6" y1="-73.2" x2="320.6" y2="192.1" />
          <line class="st10" x1="298.2" y1="-73.2" x2="298.2" y2="192.1" />
          <line class="st10" x1="275.8" y1="-73.2" x2="275.8" y2="192.1" />
          <line class="st10" x1="253.4" y1="-73.2" x2="253.4" y2="192.1" />
          <line class="st10" x1="187.4" y1="14.2" x2="452.7" y2="14.2" />
          <line class="st10" x1="187.4" y1="36.6" x2="452.7" y2="36.6" />
          <line class="st10" x1="187.4" y1="59" x2="452.7" y2="59" />
          <line class="st10" x1="187.4" y1="81.4" x2="452.7" y2="81.4" />
          <line class="st10" x1="187.4" y1="103.8" x2="452.7" y2="103.8" />
          <line class="st10" x1="187.4" y1="126.2" x2="452.7" y2="126.2" />
        </g>
      </g>
    </g>
  </g>
  <linearGradient id="SVGID_8_" gradientUnits="userSpaceOnUse" x1="-38.3139" y1="375.5837" x2="169.9059" y2="364.9457"
    gradientTransform="matrix(0.9575 -0.2883 0.2883 0.9575 -61.9438 -111.697)">
    <stop offset="0" style="stop-color:#6A5C8B" />
    <stop offset="1" style="stop-color:#7C74A0;stop-opacity:0" />
  </linearGradient>
  <path class="st11" d="M84.9,367.3L202.1,332c5.3-1.6,8.3-7.2,6.7-12.5L139.3,88.6c-1.6-5.3-7.2-8.3-12.5-6.7L9.6,117.2
	c-5.3,1.6-8.3,7.2-6.7,12.5l69.5,230.9C74,365.9,79.6,368.9,84.9,367.3z" />
  <linearGradient id="SVGID_9_" gradientUnits="userSpaceOnUse" x1="-36.0386" y1="374.833" x2="156.6374" y2="365.727"
    gradientTransform="matrix(0.9575 -0.2883 0.2883 0.9575 -51.7133 -114.7771)">
    <stop offset="0" style="stop-color:#6A5C8B" />
    <stop offset="1" style="stop-color:#7C74A0;stop-opacity:0" />
  </linearGradient>
  <path class="st12" d="M95.1,364.2l107-32.2c5.3-1.6,8.3-7.2,6.7-12.5L139.3,88.6c-1.6-5.3-7.2-8.3-12.5-6.7l-107,32.2
	c-5.3,1.6-8.3,7.2-6.7,12.5l69.5,230.9C84.2,362.8,89.8,365.8,95.1,364.2z" />
  <linearGradient id="SVGID_10_" gradientUnits="userSpaceOnUse" x1="4.5951" y1="464.2198" x2="31.6252" y2="429.617"
    gradientTransform="matrix(-0.9575 0.2883 -0.2883 -0.9575 221.5732 528.5126)">
    <stop offset="0" style="stop-color:#6A5C8B" />
    <stop offset="1" style="stop-color:#7C74A0;stop-opacity:0" />
  </linearGradient>
  <path class="st13" d="M96.6,97.2l-43.2,13c-0.9,0.3-1.5,1.3-1.2,2.2l0,0c0.3,0.9,1.3,1.5,2.2,1.2l43.2-13c0.9-0.3,1.5-1.3,1.2-2.2
	l0,0C98.6,97.4,97.6,96.9,96.6,97.2z" />
  <path class="st14" d="M123.1,98.4L31.7,126c-5.3,1.6-8.3,7.2-6.7,12.5l62.2,206.5c1.6,5.3,7.2,8.3,12.5,6.7l91.4-27.5
	c5.3-1.6,8.3-7.2,6.7-12.5l-62.2-206.5C134,99.8,128.4,96.8,123.1,98.4z" />
  <linearGradient id="SVGID_11_" gradientUnits="userSpaceOnUse" x1="44.086" y1="436.3319" x2="5.0763" y2="411.4261"
    gradientTransform="matrix(-0.6466 0.7628 -0.7619 -0.6477 454.0567 566.5504)">
    <stop offset="0" style="stop-color:#9BE3B4" />
    <stop offset="1" style="stop-color:#9BE3B4;stop-opacity:0" />
  </linearGradient>
  <path class="st15" d="M93.5,290.6L93.5,290.6c-5.6,6.6-4.8,16.6,1.8,22.2l22.4,19c6.6,5.6,16.6,4.8,22.2-1.8l0,0
	c5.6-6.6,4.8-16.6-1.8-22.2l-22.4-19C109.1,283.1,99.1,283.9,93.5,290.6z" />
  <linearGradient id="SVGID_12_" gradientUnits="userSpaceOnUse" x1="134.3949" y1="240.1911" x2="181.5559" y2="232.9141"
    gradientTransform="matrix(1 0 0 -1 0 450)">
    <stop offset="0" style="stop-color:#FDEEC4" />
    <stop offset="0.8839" style="stop-color:#FFFFFF" />
  </linearGradient>
  <path class="st16" d="M133.9,186.2l-13.2,8.4l-5.7,14.6l3.9,15.1l12.1,9.9l15.6,0.9l13.2-8.4l5.7-14.6l-3.9-15.1l-12.1-9.9
	L133.9,186.2z" />
  <linearGradient id="SVGID_13_" gradientUnits="userSpaceOnUse" x1="46.3245" y1="310.725" x2="89.0749" y2="249.449"
    gradientTransform="matrix(1 0 0 -1 0 450)">
    <stop offset="0" style="stop-color:#9BE3B4" />
    <stop offset="1" style="stop-color:#9BE3B4;stop-opacity:0" />
  </linearGradient>
  <path class="st17" d="M76.6,134.5l-33.1,48.8l58.8,4.3L76.6,134.5z" />
  <linearGradient id="SVGID_14_" gradientUnits="userSpaceOnUse" x1="102.2945" y1="295.7016" x2="237.3945" y2="283.0466"
    gradientTransform="matrix(1 0 0 -1 0 450)">
    <stop offset="0" style="stop-color:#2E3ECA;stop-opacity:0.53" />
    <stop offset="1" style="stop-color:#A4B6F8;stop-opacity:0.65" />
  </linearGradient>
  <circle class="st18" cx="168.5" cy="160.5" r="46.5" />
  <path class="st19" d="M209.5,162.1l-1.5-0.1c0-0.5,0-1,0-1.6s0-1,0-1.6l1.5-0.1c0,0.5,0,1.1,0,1.6S209.6,161.6,209.5,162.1z
	 M209.3,155.6l-1.5,0.2c-0.1-1-0.3-2.1-0.5-3.1l1.5-0.3C209,153.5,209.2,154.6,209.3,155.6z M208,149.3l-1.5,0.4c-0.3-1-0.6-2-1-3
	l1.5-0.5C207.4,147.2,207.7,148.3,208,149.3z M205.7,143.2l-1.4,0.7c-0.4-0.9-0.9-1.9-1.4-2.8l1.3-0.8
	C204.8,141.3,205.3,142.3,205.7,143.2z M202.5,137.6l-1.3,0.9c-0.6-0.9-1.2-1.7-1.9-2.5l1.2-1C201.3,135.8,201.9,136.7,202.5,137.6z
	 M198.5,132.5l-1.1,1.1c-0.7-0.8-1.5-1.5-2.2-2.2l1-1.1C197,131,197.8,131.8,198.5,132.5z M193.7,128.2l-1,1.2
	c-0.8-0.6-1.7-1.2-2.5-1.8l0.9-1.3C192,126.9,192.9,127.5,193.7,128.2z M188.3,124.6l-0.8,1.4c-0.9-0.5-1.8-1-2.8-1.4l0.6-1.4
	C186.4,123.6,187.4,124.1,188.3,124.6z M182.4,121.9l-0.5,1.5c-1-0.4-2-0.7-3-0.9l0.4-1.5C180.4,121.2,181.4,121.6,182.4,121.9z
	 M176.2,120.2l-0.3,1.5c-1-0.2-2-0.4-3.1-0.5l0.2-1.5C174,119.8,175.1,120,176.2,120.2z M169.7,119.5l-0.1,1.5c-0.5,0-1,0-1.6,0
	c-0.5,0-1,0-1.6,0l-0.1-1.5c0.5,0,1.1,0,1.6,0C168.7,119.4,169.2,119.4,169.7,119.5z M163.3,119.7l0.2,1.5c-1,0.1-2.1,0.3-3.1,0.5
	l-0.3-1.5C161.1,120,162.2,119.8,163.3,119.7z M156.9,120.9l0.4,1.5c-1,0.3-2,0.6-3,0.9l-0.5-1.5
	C154.8,121.6,155.9,121.2,156.9,120.9z M150.8,123.2l0.6,1.4c-0.9,0.4-1.9,0.9-2.8,1.4l-0.8-1.4
	C148.9,124.1,149.8,123.6,150.8,123.2z M145.1,126.3c-0.9,0.6-1.8,1.2-2.6,1.9l1,1.2c0.8-0.6,1.7-1.2,2.5-1.8L145.1,126.3z
	 M140,130.3l1,1.1c-0.8,0.7-1.5,1.4-2.2,2.2l-1.1-1.1C138.5,131.8,139.2,131,140,130.3z M135.6,135l1.2,1c-0.6,0.8-1.3,1.6-1.9,2.5
	l-1.3-0.9C134.3,136.7,134.9,135.8,135.6,135z M132,140.4c-0.5,0.9-1,1.9-1.5,2.9l1.4,0.7c0.4-0.9,0.9-1.9,1.4-2.8L132,140.4z
	 M129.2,146.2l1.5,0.5c-0.4,1-0.7,2-1,3l-1.5-0.4C128.5,148.3,128.8,147.2,129.2,146.2z M127.4,152.4l1.5,0.3c-0.2,1-0.4,2-0.5,3.1
	l-1.5-0.2C127.1,154.6,127.2,153.5,127.4,152.4z M126.7,158.9c0,0.5,0,1.1,0,1.6s0,1.1,0,1.6l1.5-0.1c0-0.5,0-1,0-1.6s0-1,0-1.6
	L126.7,158.9z M126.9,165.4l1.5-0.2c0.1,1,0.3,2.1,0.5,3.1l-1.5,0.3C127.2,167.5,127.1,166.4,126.9,165.4z M128.2,171.7l1.5-0.4
	c0.3,1,0.6,2,1,3l-1.5,0.5C128.8,173.8,128.5,172.7,128.2,171.7z M130.5,177.8l1.4-0.7c0.4,0.9,0.9,1.9,1.4,2.8l-1.3,0.8
	C131.4,179.7,130.9,178.7,130.5,177.8z M133.7,183.4l1.3-0.9c0.6,0.9,1.2,1.7,1.9,2.5l-1.2,1C134.9,185.2,134.3,184.3,133.7,183.4z
	 M137.7,188.5l1.1-1.1c0.7,0.8,1.5,1.5,2.2,2.2l-1,1.1C139.2,190,138.5,189.2,137.7,188.5z M142.5,192.8l1-1.2
	c0.8,0.6,1.7,1.2,2.5,1.8l-0.9,1.3C144.2,194.1,143.4,193.5,142.5,192.8z M147.9,196.4l0.8-1.4c0.9,0.5,1.8,1,2.8,1.4l-0.6,1.4
	C149.8,197.4,148.9,196.9,147.9,196.4z M153.8,199.1l0.5-1.5c1,0.4,2,0.7,3,1l-0.4,1.5C155.9,199.8,154.8,199.4,153.8,199.1z
	 M160.1,200.8l0.3-1.5c1,0.2,2,0.4,3.1,0.5l-0.2,1.5C162.2,201.2,161.1,201,160.1,200.8z M166.5,201.5l0.1-1.5c0.5,0,1,0,1.6,0
	c0.5,0,1,0,1.6,0l0.1,1.5c-0.5,0-1.1,0-1.6,0C167.6,201.6,167,201.6,166.5,201.5z M173,201.3l-0.2-1.5c1-0.1,2.1-0.3,3.1-0.5
	l0.3,1.5C175.1,201,174,201.2,173,201.3z M179.3,200.1l-0.4-1.5c1-0.3,2-0.6,3-1l0.5,1.5C181.4,199.4,180.4,199.8,179.3,200.1z
	 M185.4,197.8l-0.6-1.4c0.9-0.4,1.9-0.9,2.8-1.4l0.8,1.4C187.4,196.9,186.4,197.4,185.4,197.8z M191.1,194.7l-0.9-1.3
	c0.9-0.6,1.7-1.2,2.5-1.8l1,1.2C192.9,193.5,192,194.1,191.1,194.7z M196.2,190.7l-1-1.1c0.8-0.7,1.5-1.4,2.2-2.2l1.1,1.1
	C197.8,189.2,197,190,196.2,190.7z M200.6,186l-1.2-1c0.6-0.8,1.3-1.6,1.9-2.5l1.3,0.9C201.9,184.3,201.3,185.2,200.6,186z
	 M204.3,180.6l-1.3-0.8c0.5-0.9,1-1.8,1.4-2.8l1.4,0.7C205.3,178.7,204.8,179.7,204.3,180.6z M207,174.8l-1.5-0.5c0.4-1,0.7-2,1-3
	l1.5,0.4C207.7,172.7,207.4,173.8,207,174.8z M208.8,168.6l-1.5-0.3c0.2-1,0.4-2,0.5-3.1l1.5,0.2C209.2,166.4,209,167.5,208.8,168.6
	z" />
  <path class="st14" d="M193.5,139.8l-50.6,2.6v-5.2h50.6V139.8z" />
  <path class="st14" d="M193.5,143.8l-50.6,2.4v-4.9l50.6,0.2V143.8z" />
  <path class="st14" d="M193.5,147.7l-50.6,2.1v-4.7l50.6,0.5V147.7z" />
  <path class="st14" d="M193.5,151.6l-50.6,1.9V149l50.6,0.7V151.6z" />
  <path class="st14" d="M193.5,155.5l-50.6,1.6v-4.2l50.6,0.9V155.5z" />
  <path class="st14" d="M193.5,159.4l-50.6,1.4v-4l50.6,1.2V159.4z" />
  <path class="st14" d="M193.5,163.4l-50.6,1.2v-3.8l50.6,1.4V163.4z" />
  <path class="st14" d="M193.5,167.3l-50.6,0.9v-3.5l50.6,1.6V167.3z" />
  <path class="st14" d="M193.5,171.2l-50.6,0.7v-3.3l50.6,1.9V171.2z" />
  <path class="st14" d="M193.5,175.1l-50.6,0.5v-3.1l50.6,2.1V175.1z" />
  <path class="st14" d="M193.5,179.1l-50.6,0.2v-2.8l50.6,2.4V179.1z" />
  <path class="st14" d="M193.5,183h-50.6v-2.6L193.5,183z" />
  <linearGradient id="SVGID_15_" gradientUnits="userSpaceOnUse" x1="210.4664" y1="295.7015" x2="345.5674" y2="283.0465"
    gradientTransform="matrix(1 0 0 -1 0 450)">
    <stop offset="0" style="stop-color:#2E3ECA;stop-opacity:0.53" />
    <stop offset="1" style="stop-color:#A4B6F8;stop-opacity:0.65" />
  </linearGradient>
  <circle class="st20" cx="276.7" cy="160.5" r="46.5" />
  <path class="st19" d="M317.7,162.1l-1.5-0.1c0-0.5,0-1,0-1.6s0-1,0-1.6l1.5-0.1c0,0.5,0,1.1,0,1.6S317.7,161.6,317.7,162.1z
	 M317.5,155.6l-1.5,0.2c-0.1-1-0.3-2.1-0.5-3.1l1.5-0.3C317.2,153.5,317.3,154.6,317.5,155.6z M316.2,149.3l-1.5,0.4
	c-0.3-1-0.6-2-1-3l1.5-0.5C315.5,147.2,315.9,148.3,316.2,149.3z M313.9,143.2l-1.4,0.7c-0.4-0.9-0.9-1.9-1.4-2.8l1.3-0.8
	C313,141.3,313.5,142.3,313.9,143.2z M310.7,137.6l-1.3,0.9c-0.6-0.9-1.2-1.7-1.9-2.5l1.2-1C309.5,135.8,310.1,136.7,310.7,137.6z
	 M306.7,132.5l-1.1,1.1c-0.7-0.8-1.5-1.5-2.2-2.2l1-1.1C305.2,131,305.9,131.8,306.7,132.5z M301.9,128.2l-1,1.2
	c-0.8-0.6-1.7-1.2-2.5-1.8l0.9-1.3C300.2,126.9,301,127.5,301.9,128.2z M296.5,124.6l-0.8,1.4c-0.9-0.5-1.8-1-2.8-1.4l0.6-1.4
	C294.6,123.6,295.5,124.1,296.5,124.6z M290.6,121.9l-0.5,1.5c-1-0.4-2-0.7-3-0.9l0.4-1.5C288.5,121.2,289.6,121.6,290.6,121.9z
	 M284.3,120.2l-0.3,1.5c-1-0.2-2-0.4-3.1-0.5l0.2-1.5C282.2,119.8,283.3,120,284.3,120.2z M277.9,119.5l-0.1,1.5c-0.5,0-1,0-1.6,0
	c-0.5,0-1,0-1.6,0l-0.1-1.5c0.5,0,1.1,0,1.6,0C276.8,119.4,277.4,119.4,277.9,119.5z M271.4,119.7l0.2,1.5c-1,0.1-2.1,0.3-3.1,0.5
	l-0.3-1.5C269.3,120,270.4,119.8,271.4,119.7z M265.1,120.9l0.4,1.5c-1,0.3-2,0.6-3,0.9l-0.5-1.5C263,121.6,264,121.2,265.1,120.9z
	 M259,123.2l0.6,1.4c-1,0.4-1.9,0.9-2.8,1.4l-0.8-1.4C257,124.1,258,123.6,259,123.2z M253.3,126.3c-0.9,0.6-1.8,1.2-2.6,1.9l1,1.2
	c0.8-0.6,1.7-1.2,2.5-1.8L253.3,126.3z M248.2,130.3l1,1.1c-0.8,0.7-1.5,1.4-2.2,2.2l-1.1-1.1C246.6,131.8,247.4,131,248.2,130.3z
	 M243.8,135l1.2,1c-0.6,0.8-1.3,1.6-1.9,2.5l-1.3-0.9C242.5,136.7,243.1,135.8,243.8,135z M240.1,140.4c-0.5,0.9-1,1.9-1.5,2.9
	l1.4,0.7c0.4-0.9,0.9-1.9,1.4-2.8L240.1,140.4z M237.4,146.2l1.5,0.5c-0.4,1-0.7,2-1,3l-1.5-0.4C236.7,148.3,237,147.2,237.4,146.2z
	 M235.6,152.4l1.5,0.3c-0.2,1-0.4,2-0.5,3.1l-1.5-0.2C235.2,154.6,235.4,153.5,235.6,152.4z M234.9,158.9c0,0.5,0,1.1,0,1.6
	s0,1.1,0,1.6l1.5-0.1c0-0.5,0-1,0-1.6s0-1,0-1.6L234.9,158.9z M235.1,165.4l1.5-0.2c0.1,1,0.3,2.1,0.5,3.1l-1.5,0.3
	C235.4,167.5,235.2,166.4,235.1,165.4z M236.4,171.7l1.5-0.4c0.3,1,0.6,2,1,3l-1.5,0.5C237,173.8,236.7,172.7,236.4,171.7z
	 M238.7,177.8l1.4-0.7c0.4,0.9,0.9,1.9,1.4,2.8l-1.3,0.8C239.6,179.7,239.1,178.7,238.7,177.8z M241.9,183.4l1.3-0.9
	c0.6,0.9,1.2,1.7,1.9,2.5l-1.2,1C243.1,185.2,242.5,184.3,241.9,183.4z M245.9,188.5l1.1-1.1c0.7,0.8,1.5,1.5,2.2,2.2l-1,1.1
	C247.4,190,246.6,189.2,245.9,188.5z M250.7,192.8l1-1.2c0.8,0.6,1.7,1.2,2.5,1.8l-0.9,1.3C252.4,194.1,251.5,193.5,250.7,192.8z
	 M256.1,196.4l0.8-1.4c0.9,0.5,1.8,1,2.8,1.4l-0.6,1.4C258,197.4,257,196.9,256.1,196.4z M262,199.1l0.5-1.5c1,0.4,2,0.7,3,1
	l-0.4,1.5C264,199.8,263,199.4,262,199.1z M268.2,200.8l0.3-1.5c1,0.2,2,0.4,3.1,0.5l-0.2,1.5C270.4,201.2,269.3,201,268.2,200.8z
	 M274.7,201.5l0.1-1.5c0.5,0,1,0,1.6,0c0.5,0,1,0,1.6,0l0.1,1.5c-0.5,0-1.1,0-1.6,0C275.7,201.6,275.2,201.6,274.7,201.5z
	 M281.1,201.3l-0.2-1.5c1-0.1,2.1-0.3,3.1-0.5l0.3,1.5C283.3,201,282.2,201.2,281.1,201.3z M287.5,200.1l-0.4-1.5c1-0.3,2-0.6,3-1
	l0.5,1.5C289.6,199.4,288.5,199.8,287.5,200.1z M293.6,197.8l-0.6-1.4c0.9-0.4,1.9-0.9,2.8-1.4l0.8,1.4
	C295.5,196.9,294.6,197.4,293.6,197.8z M299.2,194.7l-0.9-1.3c0.9-0.6,1.7-1.2,2.5-1.8l1,1.2C301,193.5,300.2,194.1,299.2,194.7z
	 M304.4,190.7l-1-1.1c0.8-0.7,1.5-1.4,2.2-2.2l1.1,1.1C305.9,189.2,305.2,190,304.4,190.7z M308.8,186l-1.2-1
	c0.6-0.8,1.3-1.6,1.9-2.5l1.3,0.9C310.1,184.3,309.5,185.2,308.8,186z M312.4,180.6l-1.3-0.8c0.5-0.9,1-1.8,1.4-2.8l1.4,0.7
	C313.5,178.7,313,179.7,312.4,180.6z M315.2,174.8l-1.5-0.5c0.4-1,0.7-2,1-3l1.5,0.4C315.9,172.7,315.5,173.8,315.2,174.8z
	 M317,168.6l-1.5-0.3c0.2-1,0.4-2,0.5-3.1l1.5,0.2C317.3,166.4,317.2,167.5,317,168.6z" />
  <path class="st14" d="M276.5,183.7c-13,0-23.5-10.6-23.5-23.5h6.5c0,3.4,1,6.7,2.9,9.5c1.9,2.8,4.5,5,7.6,6.3c3.1,1.3,6.5,1.6,9.8,1
	c3.3-0.7,6.3-2.3,8.7-4.7c2.4-2.4,4-5.4,4.7-8.7c0.7-3.3,0.3-6.7-1-9.8c-1.3-3.1-3.5-5.8-6.3-7.6c-2.8-1.9-6.1-2.9-9.5-2.9v-6.5
	c13,0,23.5,10.6,23.5,23.5C300,173.1,289.5,183.7,276.5,183.7z" />
  <path class="st21" d="M276.5,177.2c-4.5,0-8.9-1.8-12.1-5c-3.2-3.2-5-7.5-5-12.1c0-4.5,1.8-8.9,5-12.1c3.2-3.2,7.5-5,12.1-5v6.5
	c-2.8,0-5.5,1.1-7.5,3.1c-2,2-3.1,4.7-3.1,7.5s1.1,5.5,3.1,7.5c2,2,4.7,3.1,7.5,3.1V177.2z" />
  <path class="st21" d="M276.3,190v-6.5c12.9,0,23.3-10.5,23.3-23.3c0-12.9-10.5-23.4-23.3-23.4S253,147.3,253,160.1h-6.5
	c0-16.5,13.4-29.8,29.8-29.8c16.4,0,29.8,13.4,29.8,29.8C306.1,176.6,292.7,190,276.3,190z" />
  <linearGradient id="SVGID_16_" gradientUnits="userSpaceOnUse" x1="318.6384" y1="295.7015" x2="453.7394" y2="283.0465"
    gradientTransform="matrix(1 0 0 -1 0 450)">
    <stop offset="0" style="stop-color:#2E3ECA;stop-opacity:0.53" />
    <stop offset="1" style="stop-color:#A4B6F8;stop-opacity:0.65" />
  </linearGradient>
  <circle class="st22" cx="384.8" cy="160.5" r="46.5" />
  <path class="st19" d="M425.9,162.1l-1.5-0.1c0-0.5,0-1,0-1.6s0-1,0-1.6l1.5-0.1c0,0.5,0,1.1,0,1.6S425.9,161.6,425.9,162.1z
	 M425.6,155.6l-1.5,0.2c-0.1-1-0.3-2.1-0.5-3.1l1.5-0.3C425.3,153.5,425.5,154.6,425.6,155.6z M424.4,149.3l-1.5,0.4
	c-0.3-1-0.6-2-1-3l1.5-0.5C423.7,147.2,424.1,148.3,424.4,149.3z M422.1,143.2l-1.4,0.7c-0.4-0.9-0.9-1.9-1.4-2.8l1.3-0.8
	C421.1,141.3,421.6,142.3,422.1,143.2z M418.9,137.6l-1.3,0.9c-0.6-0.9-1.2-1.7-1.9-2.5l1.2-1C417.6,135.8,418.3,136.7,418.9,137.6z
	 M414.8,132.5l-1.1,1.1c-0.7-0.8-1.5-1.5-2.2-2.2l1-1.1C413.3,131,414.1,131.8,414.8,132.5z M410.1,128.2l-1,1.2
	c-0.8-0.6-1.7-1.2-2.5-1.8l0.9-1.3C408.3,126.9,409.2,127.5,410.1,128.2z M404.6,124.6l-0.8,1.4c-0.9-0.5-1.8-1-2.8-1.4l0.6-1.4
	C402.7,123.6,403.7,124.1,404.6,124.6z M398.8,121.9l-0.5,1.5c-1-0.4-2-0.7-3-0.9l0.4-1.5C396.7,121.2,397.7,121.6,398.8,121.9z
	 M392.5,120.2l-0.3,1.5c-1-0.2-2-0.4-3.1-0.5l0.2-1.5C390.4,119.8,391.5,120,392.5,120.2z M386.1,119.5L386,121c-0.5,0-1,0-1.6,0
	c-0.5,0-1,0-1.6,0l-0.1-1.5c0.5,0,1.1,0,1.6,0C385,119.4,385.5,119.4,386.1,119.5z M379.6,119.7l0.2,1.5c-1,0.1-2.1,0.3-3.1,0.5
	l-0.3-1.5C377.5,120,378.5,119.8,379.6,119.7z M373.2,120.9l0.4,1.5c-1,0.3-2,0.6-3,0.9l-0.5-1.5
	C371.2,121.6,372.2,121.2,373.2,120.9z M367.2,123.2l0.6,1.4c-1,0.4-1.9,0.9-2.8,1.4l-0.8-1.4C365.2,124.1,366.2,123.6,367.2,123.2z
	 M361.5,126.3c-0.9,0.6-1.8,1.2-2.6,1.9l1,1.2c0.8-0.6,1.7-1.2,2.5-1.8L361.5,126.3z M356.4,130.3l1,1.1c-0.8,0.7-1.5,1.4-2.2,2.2
	l-1.1-1.1C354.8,131.8,355.6,131,356.4,130.3z M352,135l1.2,1c-0.6,0.8-1.3,1.6-1.9,2.5l-1.3-0.9C350.6,136.7,351.3,135.8,352,135z
	 M348.3,140.4c-0.5,0.9-1,1.9-1.5,2.9l1.4,0.7c0.4-0.9,0.9-1.9,1.4-2.8L348.3,140.4z M345.6,146.2l1.5,0.5c-0.4,1-0.7,2-1,3
	l-1.5-0.4C344.9,148.3,345.2,147.2,345.6,146.2z M343.8,152.4l1.5,0.3c-0.2,1-0.4,2-0.5,3.1l-1.5-0.2
	C343.4,154.6,343.6,153.5,343.8,152.4z M343,158.9c0,0.5,0,1.1,0,1.6s0,1.1,0,1.6l1.5-0.1c0-0.5,0-1,0-1.6s0-1,0-1.6L343,158.9z
	 M343.3,165.4l1.5-0.2c0.1,1,0.3,2.1,0.5,3.1l-1.5,0.3C343.6,167.5,343.4,166.4,343.3,165.4z M344.6,171.7l1.5-0.4c0.3,1,0.6,2,1,3
	l-1.5,0.5C345.2,173.8,344.9,172.7,344.6,171.7z M346.8,177.8l1.4-0.7c0.4,0.9,0.9,1.9,1.4,2.8l-1.3,0.8
	C347.8,179.7,347.3,178.7,346.8,177.8z M350,183.4l1.3-0.9c0.6,0.9,1.2,1.7,1.9,2.5l-1.2,1C351.3,185.2,350.6,184.3,350,183.4z
	 M354.1,188.5l1.1-1.1c0.7,0.8,1.5,1.5,2.2,2.2l-1,1.1C355.6,190,354.8,189.2,354.1,188.5z M358.9,192.8l1-1.2
	c0.8,0.6,1.7,1.2,2.5,1.8l-0.9,1.3C360.6,194.1,359.7,193.5,358.9,192.8z M364.3,196.4l0.8-1.4c0.9,0.5,1.8,1,2.8,1.4l-0.6,1.4
	C366.2,197.4,365.2,196.9,364.3,196.4z M370.2,199.1l0.5-1.5c1,0.4,2,0.7,3,1l-0.4,1.5C372.2,199.8,371.2,199.4,370.2,199.1z
	 M376.4,200.8l0.3-1.5c1,0.2,2,0.4,3.1,0.5l-0.2,1.5C378.5,201.2,377.5,201,376.4,200.8z M382.8,201.5l0.1-1.5c0.5,0,1,0,1.6,0
	c0.5,0,1,0,1.6,0l0.1,1.5c-0.5,0-1.1,0-1.6,0C383.9,201.6,383.4,201.6,382.8,201.5z M389.3,201.3l-0.2-1.5c1-0.1,2.1-0.3,3.1-0.5
	l0.3,1.5C391.5,201,390.4,201.2,389.3,201.3z M395.7,200.1l-0.4-1.5c1-0.3,2-0.6,3-1l0.5,1.5C397.7,199.4,396.7,199.8,395.7,200.1z
	 M401.8,197.8l-0.6-1.4c0.9-0.4,1.9-0.9,2.8-1.4l0.8,1.4C403.7,196.9,402.7,197.4,401.8,197.8z M407.4,194.7l-0.9-1.3
	c0.9-0.6,1.7-1.2,2.5-1.8l1,1.2C409.2,193.5,408.3,194.1,407.4,194.7z M412.5,190.7l-1-1.1c0.8-0.7,1.5-1.4,2.2-2.2l1.1,1.1
	C414.1,189.2,413.3,190,412.5,190.7z M417,186l-1.2-1c0.6-0.8,1.3-1.6,1.9-2.5l1.3,0.9C418.3,184.3,417.6,185.2,417,186z
	 M420.6,180.6l-1.3-0.8c0.5-0.9,1-1.8,1.4-2.8l1.4,0.7C421.6,178.7,421.1,179.7,420.6,180.6z M423.3,174.8l-1.5-0.5c0.4-1,0.7-2,1-3
	l1.5,0.4C424.1,172.7,423.7,173.8,423.3,174.8z M425.1,168.6l-1.5-0.3c0.2-1,0.4-2,0.5-3.1l1.5,0.2
	C425.5,166.4,425.3,167.5,425.1,168.6z" />
  <path class="st23" d="M376.3,146.2l-6.6-6.6l-6.6,6.6l6.6,6.6L376.3,146.2z" />
  <path class="st14" d="M362.4,153.5c3.9,0,7.7,1.6,10.4,4.3c2.8,2.8,4.3,6.5,4.3,10.4h-14.7V153.5z" />
  <path class="st14" d="M362.4,168.2c3.9,0,7.7,1.6,10.4,4.3c2.8,2.8,4.3,6.5,4.3,10.4h-14.7V168.2z" />
  <path class="st14" d="M377.1,138.8h14.7v14.7c-3.9,0-7.7-1.6-10.4-4.3C378.6,146.5,377.1,142.7,377.1,138.8z" />
  <path class="st14" d="M377.1,153.5c3.9,0,7.6,1.6,10.4,4.3c2.8,2.8,4.3,6.5,4.3,10.4h-14.7V153.5z" />
  <path class="st14" d="M377.1,168.2c3.9,0,7.6,1.6,10.4,4.3c2.8,2.8,4.3,6.5,4.3,10.4h-14.7V168.2z" />
  <path class="st14" d="M391.8,138.8h14.7v14.7c-3.9,0-7.7-1.6-10.4-4.3C393.3,146.5,391.8,142.7,391.8,138.8z" />
  <path class="st14" d="M391.8,153.5c3.9,0,7.7,1.6,10.4,4.3c2.8,2.8,4.3,6.5,4.3,10.4h-14.7V153.5z" />
  <path class="st21"
    d="M399.1,181.6c3.1,0,5.5-2.5,5.5-5.5s-2.5-5.5-5.5-5.5c-3.1,0-5.5,2.5-5.5,5.5S396.1,181.6,399.1,181.6z" />
  <path class="st14" d="M425.4,94.1c-1.9-0.8-4-2.2-5.5-4.1c-1.6-2-2.8-4.4-3.6-7.2l-0.9-3.2c-0.1-0.4-0.5-0.7-0.9-0.7
	c-0.4,0-0.8,0.3-0.9,0.7l-0.9,3.2c-0.8,2.8-2.1,5.3-3.6,7.2c-1.5,1.9-3.4,3.3-5.3,4.1c-0.4,0.1-0.6,0.5-0.6,0.9
	c0,0.4,0.2,0.7,0.6,0.9l0.3,0.1c3.8,1.6,7,5.7,8.6,11l1,3.3c0.1,0.4,0.5,0.7,0.9,0.7c0.4,0,0.8-0.3,0.9-0.7l1-3.3
	c1.6-5.4,5-9.4,8.8-11l0.3-0.1c0.4-0.2,0.6-0.5,0.6-0.9C426,94.6,425.8,94.3,425.4,94.1z" />
  <circle class="st24" cx="386.5" cy="283.5" r="46.5" />
  <circle class="st24" cx="276.5" cy="283.5" r="46.5" />
  <path class="st25" d="M275.8,362.9c-0.3,0-0.6,0-0.8-0.1c-3.4-0.3-6.1-2.2-7.5-5.5c-0.7-1.6-1.4-3.3-2.1-5c-0.7,1.6-1.3,3.3-2,4.9
	c-1.4,3.5-4.5,5.5-8.2,5.6h-0.1c-3.6,0-6.6-1.9-8.2-5.3c-0.7-1.5-1.4-3-2.1-4.4l-0.6-1.1c-1.9,0.7-3.9,1.3-6,2.1
	c-1,0.4-2,0.5-3.1,0.5c-2.5,0-4.8-1.1-6.5-3c-2.4-2.7-3-6.3-1.6-9.6c1.8-4.2,3.5-8.5,5.3-12.7l2.2-5.2c-0.6-0.9-1-1.7-1.4-2.5
	c-0.5-0.8-0.9-1.5-1.2-2.2c-0.2-0.3-0.7-0.7-1.6-1.1c-0.3-0.2-0.6-0.3-0.9-0.5c-1.3-0.7-2.8-1.5-4.2-2.5c-3.4-2.5-5.2-6.2-5.4-10.4
	v-0.4c-0.1-1.1-0.1-2.4,0.1-3.8c0.2-1.5-0.3-2.9-1.2-4.3c-0.8-1.1-1.4-2.3-2.2-3.8c-1.9-3.9-1.9-8.2,0-12.2c0.7-1.5,1.5-2.9,2.3-4
	l0.3-0.5c0.7-1,0.9-1.8,0.9-2.7c-0.1-1.1-0.1-2.1-0.1-3.1c0-0.5,0-0.9,0-1.3c0-5.1,2.4-9.4,6.9-12.1c1.1-0.7,2.3-1.3,3.5-2
	c1.1-0.6,1.9-1.3,2.5-2.5c1-1.9,2-3.9,3.6-5.8c2.5-2.9,5.9-4.5,9.8-4.6h0.6c0.6,0,1.1-0.1,1.6-0.1c0.8,0,1.4,0.1,2,0.1
	c0.2,0,0.4,0.1,0.6,0.1c1.2,0,2.4-0.5,3.7-1.3c1.1-0.8,2.3-1.4,3.3-1.9c2-1.1,4.2-1.6,6.4-1.6c2.1,0,4.3,0.6,6.4,1.5
	c1.6,0.8,3,1.7,4.2,2.5c0.9,0.6,1.7,0.9,2.5,0.9c0.1,0,0.2,0,0.2,0c0.8-0.1,1.6-0.1,2.2-0.1h1.6h0.7c5.1,0,9.3,2.5,11.9,7
	c0.6,1.1,1.3,2.3,2,3.6c0.5,1,1.1,1.7,2.2,2.2c1.3,0.7,3,1.5,4.6,2.7c3.8,2.6,5.9,6.5,5.9,11.2c0,0.2,0,0.4,0,0.7v0.1
	c0,1,0.1,1.9-0.1,3.1c-0.2,1.5,0.3,2.9,1.2,4.3c0.8,1.1,1.3,2.1,1.8,3l0.1-0.1c2.5,4.6,2.4,9.5-0.3,14.1c-0.7,1.1-1.3,2.2-2,3.3
	l-0.5,0.8c-0.3,0.4-0.4,0.8-0.4,1.3c0,0.8,0,1.5,0,2.2c0,0.9,0,1.7,0,2.6c0.1,5.1-2.3,9.5-6.8,12.2c-1.1,0.7-2.3,1.4-3.8,2.1
	c-1,0.5-1.5,1-1.9,1.7c-0.4,0.7-0.7,1.3-1,2c0,0,2.4,5.6,3.2,7.7c0.6,1.3,1.1,2.6,1.6,3.9c1.1,2.6,2.2,5.2,3.3,7.8
	c2.2,5.1,0.1,8.5-1.4,10.1c-1.7,1.9-4,2.9-6.5,2.9c-1.1,0-2.3-0.2-3.5-0.7c-1.2-0.5-2.3-0.9-3.5-1.2c0,0-1.5-0.5-2-0.7
	c-0.9,1.8-1.7,3.7-2.8,5.8C282.3,361.1,279.4,362.9,275.8,362.9z" />
  <path class="st26" d="M285.8,353c-0.3,0-0.6,0-0.8-0.1c-3.4-0.3-6.1-2.2-7.5-5.5c-0.7-1.6-1.4-3.3-2.1-5c-0.7,1.6-1.3,3.3-2,4.9
	c-1.4,3.5-4.5,5.5-8.2,5.6H265c-3.6,0-6.6-1.9-8.2-5.3c-0.7-1.5-1.4-3-2.1-4.4l-0.6-1.1c-1.9,0.7-3.9,1.3-6,2.1
	c-1,0.4-2,0.5-3.1,0.5c-2.5,0-4.8-1-6.5-3c-2.4-2.7-3-6.3-1.6-9.6c1.8-4.2,3.5-8.5,5.3-12.7l2.2-5.2c-0.6-0.9-1-1.7-1.4-2.5
	c-0.5-0.8-0.9-1.5-1.2-2.2c-0.2-0.3-0.7-0.7-1.6-1.1c-0.3-0.2-0.6-0.3-0.9-0.5c-1.3-0.7-2.8-1.5-4.2-2.5c-3.4-2.5-5.2-6.2-5.4-10.4
	v-0.4c-0.1-1.1-0.1-2.4,0.1-3.8c0.2-1.5-0.3-2.9-1.2-4.3c-0.8-1.1-1.4-2.3-2.2-3.8c-1.9-3.9-1.9-8.2,0-12.2c0.7-1.5,1.5-2.9,2.3-4
	l0.3-0.5c0.7-1,0.9-1.8,0.9-2.7c-0.1-1.1-0.1-2.1-0.1-3.1c0-0.5,0-0.9,0-1.3c0-5.1,2.4-9.4,6.9-12.1c1.1-0.7,2.3-1.3,3.5-2
	c1.1-0.6,1.9-1.3,2.5-2.5c1-1.9,2-3.9,3.6-5.8c2.5-2.9,5.9-4.5,9.8-4.6h0.6c0.6,0,1.1-0.1,1.6-0.1c0.8,0,1.4,0.1,2,0.1
	c0.2,0,0.4,0.1,0.6,0.1c1.2,0,2.4-0.5,3.7-1.3c1.1-0.8,2.3-1.4,3.3-1.9c2-1.1,4.2-1.6,6.4-1.6c2.1,0,4.3,0.6,6.4,1.5
	c1.6,0.8,3,1.7,4.2,2.5c0.9,0.6,1.7,0.9,2.5,0.9c0.1,0,0.2,0,0.2,0c0.8-0.1,1.6-0.1,2.2-0.1h1.6h0.7c5.1,0,9.3,2.5,11.9,7
	c0.6,1.1,1.3,2.3,2,3.6c0.5,1,1.1,1.7,2.2,2.2c1.3,0.7,3,1.5,4.6,2.7c3.8,2.6,5.9,6.5,5.9,11.2c0,0.2,0,0.4,0,0.7v0.1
	c0,1,0.1,1.9-0.1,3.1c-0.2,1.5,0.3,2.9,1.2,4.3c0.8,1.1,1.3,2.1,1.8,3l0.1-0.1c2.5,4.6,2.4,9.5-0.3,14.1c-0.7,1.1-1.3,2.2-2,3.3
	l-0.5,0.8c-0.3,0.4-0.4,0.8-0.4,1.3c0,0.8,0,1.5,0,2.2c0,0.9,0,1.7,0,2.6c0.1,5.1-2.3,9.5-6.8,12.2c-1.1,0.7-2.3,1.4-3.8,2.1
	c-1,0.5-1.5,1.1-1.9,1.7c-0.4,0.7-0.7,1.3-1,2c0,0,2.4,5.6,3.2,7.7c0.6,1.3,1.1,2.6,1.6,3.9c1.1,2.6,2.2,5.2,3.3,7.8
	c2.2,5.1,0.1,8.5-1.4,10.1c-1.7,1.9-4,2.9-6.5,2.9c-1.1,0-2.3-0.2-3.5-0.7c-1.2-0.5-2.3-0.9-3.5-1.2c0,0-1.5-0.5-2-0.7
	c-0.9,1.8-1.7,3.7-2.8,5.8C292.3,351.1,289.3,353,285.8,353z" />
  <path class="st27"
    d="M274.3,228c2,0,4,0.5,5.9,1.4c1.5,0.8,2.9,1.6,4.1,2.4c1.1,0.7,2,1,3.1,1c0.1,0,0.2,0,0.3,0
	c0.8-0.1,1.5-0.1,2.1-0.1h1.6c0.2,0,0.7,0,0.7,0c4.7,0,8.7,2.3,11.1,6.5c0.6,1,1.3,2.3,2,3.6c0.6,1.2,1.4,2,2.6,2.6
	c1.2,0.7,2.9,1.5,4.5,2.6c3.5,2.4,5.4,6,5.5,10.4c0,0.3,0,0.5,0,0.8c0,0.9,0.1,1.9-0.1,3c-0.2,1.8,0.3,3.4,1.4,5
	c0.7,1,1.2,2,1.7,2.9l0.1,0.1c2.3,4.3,2.2,8.9-0.3,13.2c-0.7,1.1-1.3,2.2-2,3.3l-0.5,0.8c-0.4,0.6-0.5,1.1-0.5,1.8
	c0,0.8,0,1.5,0,2.2c0,0.9,0,1.7,0,2.6c0.1,4.8-2.1,8.8-6.3,11.3c-1.1,0.7-2.3,1.3-3.7,2.1c-1.2,0.6-1.9,1.2-2.3,2.1
	c-0.4,0.8-0.9,1.6-1.3,2.4l0.6,1.4c1,2.2,1.9,4.5,2.9,6.8c0.6,1.3,1.1,2.6,1.6,3.9c1.1,2.6,2.2,5.2,3.3,7.8c1.9,4.6,0.1,7.6-1.2,9.1
	c-1.5,1.6-3.5,2.6-5.8,2.6c-1,0-2.1-0.2-3.1-0.6c-1.3-0.5-2.6-0.9-3.9-1.3c-0.8-0.3-1.6-0.6-2.5-0.9c-1,2.1-2,4.2-3.1,6.6
	c-1.3,2.9-4,4.5-7.2,4.5c-0.3,0-0.5,0-0.7-0.1c-3-0.2-5.4-2-6.6-4.9c-1-2.4-2-4.8-3-7.2c-1,2.4-2,4.8-3,7.1c-1.3,3.1-4,4.9-7.3,5
	H265c-3.2,0-5.9-1.7-7.3-4.7c-0.7-1.5-1.4-3-2.1-4.4c-0.3-0.7-0.6-1.3-0.9-1.9c-2.2,0.8-4.5,1.5-6.9,2.3c-0.9,0.3-1.8,0.5-2.7,0.5
	c-2.2,0-4.2-0.9-5.7-2.6c-2.1-2.4-2.7-5.6-1.4-8.5c1.8-4.2,3.5-8.5,5.3-12.7c0.8-1.9,1.6-3.8,2.4-5.7c-0.7-1-1.1-2-1.7-2.9
	c-0.5-0.8-0.9-1.5-1.3-2.2c-0.3-0.5-1.1-1-2-1.5c-0.3-0.2-0.6-0.3-0.9-0.5c-1.2-0.7-2.7-1.4-4-2.5c-3.2-2.4-4.8-5.7-5-9.7v-0.3
	c-0.1-1.1-0.1-2.4,0.1-3.7c0.2-1.8-0.3-3.3-1.4-5c-0.8-1-1.4-2.2-2.1-3.6c-1.8-3.7-1.8-7.6,0-11.4c0.7-1.4,1.5-2.8,2.2-3.9l0.3-0.5
	c0.8-1.2,1.1-2.2,1-3.3c-0.1-1-0.1-2-0.1-3c0-0.5,0-0.9,0-1.4c-0.1-4.8,2.2-8.8,6.4-11.3c1.1-0.7,2.2-1.3,3.5-1.9
	c1.3-0.7,2.3-1.6,3-3c0.9-1.8,1.9-3.8,3.5-5.6c2.3-2.7,5.4-4.1,9.1-4.2h0.6c0.6,0,1-0.1,1.6-0.1c0.7,0,1.3,0.1,1.9,0.1
	c0.3,0,0.5,0.1,0.7,0.1c1.4,0,2.9-0.5,4.3-1.5c1.1-0.8,2.3-1.4,3.2-1.9C270.3,228.5,272.2,228,274.3,228z M274.3,226
	c-2.3,0-4.6,0.6-6.8,1.7c-1,0.5-2.2,1.1-3.4,2c-1.1,0.8-2.1,1.2-3.2,1.2c-0.2,0-0.4,0-0.5-0.1c-0.7-0.1-1.3-0.1-2.1-0.1
	c-0.6,0-1.2,0-1.6,0.1h-0.6c-4.2,0.1-7.9,1.8-10.6,4.9c-1.7,2-2.8,4.1-3.8,6.1c-0.5,1-1.1,1.5-2,2c-1.3,0.7-2.5,1.3-3.6,2
	c-4.8,2.9-7.4,7.5-7.3,13.1c0,0.5,0,0.9,0,1.3c0,1,0,2,0.1,3.1c0.1,0.5-0.1,1-0.7,2.1l-0.3,0.4c-0.8,1.2-1.6,2.5-2.3,4.1
	c-2,4.3-2,8.9,0,13.1c0.8,1.5,1.4,2.8,2.2,3.9c0.9,1.3,1.2,2.3,1.1,3.6c-0.2,1.4-0.1,2.8-0.1,4v0.4c0.2,4.6,2.1,8.4,5.7,11.2
	c1.5,1.1,3,1.9,4.3,2.6c0.3,0.2,0.6,0.3,0.9,0.5c0.9,0.5,1.2,0.8,1.3,0.9c0.4,0.7,0.8,1.3,1.2,2.1c0.4,0.7,0.8,1.4,1.2,2.1
	c-0.7,1.6-1.3,3.2-2,4.8c-1.7,4.2-3.5,8.5-5.3,12.7c-1.5,3.7-0.9,7.7,1.8,10.6c1.9,2.1,4.4,3.2,7.2,3.2c1.1,0,2.2-0.2,3.3-0.6
	c1.7-0.6,3.5-1.2,5.2-1.8l0.2,0.3c0.7,1.5,1.4,3,2.1,4.4c1.7,3.7,5.1,5.9,9.1,5.9h0.1c4.1-0.1,7.6-2.3,9.2-6.2
	c0.4-0.9,0.8-1.8,1.1-2.8c0.4,1,0.8,1.8,1.1,2.8c1.5,3.6,4.5,5.8,8.3,6.1c0.3,0,0.6,0.1,0.9,0.1c3.9,0,7.3-2.1,9-5.6
	c1-2,1.7-3.6,2.3-5c0.2,0.1,0.4,0.2,0.6,0.2l0.3,0.1l0.2,0.1c1.2,0.5,2.5,0.9,3.7,1.3c1.3,0.5,2.6,0.7,3.8,0.7
	c2.8,0,5.4-1.1,7.3-3.2c1.3-1.4,4.1-5.4,1.6-11.2c-1.1-2.6-2.2-5.2-3.3-7.8c-0.6-1.3-1.1-2.6-1.6-3.9c-0.8-1.8-1.5-3.7-2.3-5.6
	l-0.5-1.2l-0.2-0.5c0.3-0.5,0.6-1.1,0.9-1.6c0.2-0.4,0.5-0.8,1.5-1.3c1.4-0.8,2.7-1.4,3.8-2.1c4.8-3,7.3-7.6,7.3-13.1
	c0-0.9,0-1.7,0-2.5c0-0.8,0-1.5,0-2.2c0-0.4,0.1-0.7,0.2-0.8l0.5-0.8c0.8-1.2,1.3-2.3,2-3.4c2.9-4.9,3-10.2,0.4-15.2l-0.1-0.1
	c-0.5-0.9-1.1-2-1.8-3.1c-0.9-1.2-1.2-2.4-1.1-3.7c0.1-1.2,0.1-2.2,0.1-3.2v-0.1c0-0.2,0-0.4,0-0.6c-0.1-5-2.2-9.2-6.4-12
	c-1.7-1.2-3.4-2.1-4.7-2.8c-0.9-0.4-1.3-1-1.7-1.7c-0.7-1.4-1.4-2.7-2-3.7c-2.9-4.8-7.4-7.5-12.9-7.5c0,0-0.5,0-0.7,0H290
	c-0.6,0-1.4,0-2.2,0.1c-0.1,0-0.1,0-0.2,0c-0.7,0-1.3-0.2-2-0.7c-1.2-0.8-2.7-1.7-4.3-2.5C278.9,226.5,276.6,226,274.3,226z" />
  <path class="st28" d="M298.8,312.1c1.4,3.5,3,7,4.4,10.4c1.6,3.9,3.3,7.9,5,11.8c0.6,1.3,0.7,2.7-0.4,3.8c-1,1.1-2.3,1.1-3.6,0.7
	c-3.2-1.1-6.4-2.2-9.7-3.4c-0.8-0.3-1.1-0.1-1.4,0.7c-1.4,3.3-3.1,6.5-4.5,9.7c-0.6,1.3-1.6,1.7-3.1,1.6c-1.2-0.1-2-0.8-2.5-1.8
	c-2.4-5.7-4.8-11.5-7.2-17.2c-0.1-0.3-0.3-0.5-0.5-0.9c-0.8,1.9-1.6,3.8-2.4,5.6c-1.7,4.2-3.4,8.3-5.2,12.5
	c-0.5,1.2-1.4,1.9-2.9,1.9s-2.3-0.7-2.9-1.9c-1.5-3.2-3.1-6.4-4.6-9.7c-0.3-0.6-0.6-0.7-1.2-0.5c-3.4,1.2-6.9,2.4-10.3,3.5
	c-1.2,0.4-2.3,0.2-3.2-0.8c-0.9-1-1.1-2-0.6-3.3c2.8-6.7,5.6-13.4,8.4-20.1c0.2-0.3,0.3-0.6,0.5-1c0.4,0.2,0.8,0.4,1.1,0.8
	c-1.3,3.4-2.8,6.8-4.1,10.1c-1.4,3.4-2.9,6.9-4.3,10.3c-0.3,0.8-0.4,1.5,0.2,2.1c0.6,0.6,1.2,0.4,1.9,0.2c3.6-1.2,7.2-2.5,10.7-3.7
	c0.9-0.4,1.3-0.2,1.7,0.8c1.5,3.5,3.2,7,4.9,10.4c0.3,0.7,0.8,1.2,1.5,1.2c0.8,0,1.2-0.5,1.5-1.1c2.6-6.1,5-12.3,7.7-18.3
	c0.4-1,0.4-1.6-0.3-2.5c-0.3,0.2-0.3,0.4-0.4,0.6c-2.5,6-5,12-7.6,18.1c-0.2,0.4-0.2,1-0.8,1c-0.6,0-0.7-0.6-0.9-1
	c-1.7-3.5-3.5-6.9-5.1-10.4c-0.3-0.6-0.6-0.8-1.2-0.6c-1.8,0.7-3.8,1.2-5.6,1.8c-1.9,0.6-3.8,1.2-5.7,1.8c-0.3,0.1-0.6,0.2-0.9-0.1
	c-0.2-0.3-0.2-0.6-0.1-0.8c0.1-0.3,0.2-0.5,0.3-0.7c2.6-6.2,5.2-12.4,7.8-18.6c2.1,0.6,4.4,0.5,6.6,0.4c2.9-0.2,5.3,0.8,7.7,2.3
	c1.9,1.2,3.9,2.5,6.3,2.6c3.4,8,6.8,16,10.1,24.1c0.3,0.8,0.7,1.4,1.5,1.4c0.9,0,1.3-0.6,1.6-1.3c1.5-3.3,3.1-6.6,4.6-9.9
	c0.8-1.5,0.4-1.6,2.3-1c3.4,1.2,6.9,2.4,10.3,3.6c0.8,0.3,1.4,0.3,2-0.3c0.6-0.7,0.4-1.3,0.1-2c-3.1-7.3-6-14.5-9.1-21.7
	C298.1,312.8,298.3,312.4,298.8,312.1z" />
  <path class="st29" d="M259.9,239.5c-1.5,0-2.6-0.1-3.7,0c-1.9,0.1-3.5,0.8-4.7,2.5c-0.9,1.2-1.6,2.6-2.3,4c-1.2,2.5-3.1,4.3-5.5,5.6
	c-1.1,0.6-2.1,1.1-3.2,1.7c-2.2,1.2-3.3,3.2-3.2,5.7c0,1.6,0,3.3,0.1,4.9c0.1,1.8-0.5,3.5-1.3,5.1c-0.8,1.2-1.4,2.5-2.2,3.7
	c-1.5,2.6-1.6,5.1,0,7.7c0.4,0.6,0.7,1.2,1.1,1.8c1.9,2.8,2.8,5.7,2.5,9c-0.1,1-0.1,2-0.1,3.1c0,2.2,0.8,4,2.7,5.2
	c0.7,0.5,1.4,1,2.2,1.3c3.5,1.5,6.1,4,7.7,7.6c0.3,0.8,0.8,1.4,1.1,2.1c1.2,2.1,3.2,3.2,5.6,3.2c1.7,0,3.4,0,5.1,0
	c1.8,0,3.5,0.5,5,1.4c1.2,0.8,2.5,1.4,3.7,2.2c2.5,1.5,4.9,1.5,7.3,0c0.9-0.6,1.8-1.1,2.8-1.7c2.1-1.3,4.3-2.1,6.9-1.9
	c1.3,0.1,2.8,0.1,4.1,0.1c2.5,0,4.4-1,5.7-3.2c0.6-1,1.2-2.1,1.7-3.2c1.2-2.5,3.1-4.3,5.5-5.6c1.1-0.6,2.2-1.2,3.3-1.8
	c1.7-1.1,3-2.5,3.1-4.6c0.2-1.9,0.1-3.9,0.1-5.9c0-2,0.5-3.8,1.5-5.5c0.8-1.2,1.4-2.5,2.2-3.7c1.3-2.3,1.4-4.6,0.1-7
	c-0.6-1-1.2-2-1.8-3.1c-1.3-2.1-2.1-4.4-2-7.1c0.1-1.4,0.1-2.9,0.1-4.3c-0.1-2.1-0.8-3.9-2.6-5.2c-1.2-0.9-2.6-1.5-3.9-2.3
	c-2.4-1.2-4.1-3.1-5.3-5.4c-0.6-1.1-1.2-2.3-1.9-3.5c-1-1.7-2.5-3-4.6-3.1c-0.8-0.1-1.6-0.1-2.4-0.1c-1.7-0.1-3.5,0.2-5.2-0.1
	c-2.1-0.3-3.9-1.3-5.6-2.6c-3.6-2.7-7.1-2.8-10.6-0.1C266.2,238.8,263,239.9,259.9,239.5z M252.3,314.6c-0.3-0.4-0.7-0.6-1.1-0.8
	c-1.8-2.1-3-4.8-4.4-7.2c-0.9-1.5-2.4-2.4-3.9-3.2c-1.4-0.8-3-1.5-4.3-2.6c-1.9-1.4-3-3.4-3.1-5.9c-0.1-1.1-0.1-2.3,0-3.5
	c0.3-3.1-0.6-5.8-2.3-8.3c-0.7-1-1.2-1.9-1.7-3.1c-1.1-2.4-1.1-4.7,0.1-7.1c0.7-1.3,1.4-2.6,2.2-3.8c1.2-1.9,1.8-3.9,1.7-6.2
	c-0.1-1.3,0-2.8-0.1-4.2c-0.1-3.1,1.3-5.4,4-7.1c1-0.6,2-1.2,3.2-1.7c2.3-1.1,4-2.9,5.2-5.2c0.8-1.6,1.6-3.2,2.9-4.6
	c1.4-1.7,3.3-2.5,5.5-2.5c1.1-0.1,2.3-0.1,3.4,0c3.1,0.3,5.8-0.6,8.4-2.4c0.9-0.6,1.7-1,2.7-1.5c2.5-1.3,4.9-1.2,7.4,0
	c1.2,0.7,2.5,1.4,3.6,2.1c1.9,1.2,4,1.8,6.2,1.7c1.3-0.1,2.8,0,4.1-0.1c3.1-0.1,5.4,1.4,7,4.1c0.7,1.1,1.2,2.1,1.8,3.3
	c1.1,2.2,2.8,3.8,4.9,4.9c1.3,0.7,2.7,1.4,3.9,2.3c2.2,1.5,3.3,3.7,3.4,6.4c0,1,0.1,2.1,0,3.2c-0.3,3.2,0.6,5.8,2.3,8.4
	c0.6,0.8,1,1.6,1.4,2.5c1.5,2.9,1.3,5.6-0.2,8.4c-0.8,1.3-1.6,2.8-2.4,4.1c-0.8,1.3-1.1,2.9-1.1,4.4c0,1.6,0,3.2,0.1,4.8
	c0.1,3.1-1.3,5.4-3.9,7.1c-1.1,0.7-2.3,1.3-3.4,1.9c-1.9,1-3.5,2.3-4.4,4.3c-0.8,1.4-1.5,3-2.4,4.4c-0.5,0.3-0.7,0.8-1,1.2
	c-0.4,0.3-0.7,0.6-1,0.9c-1.7,1.1-3.6,1.4-5.6,1.4c-1.4-0.1-2.9,0-4.3,0c-1,0-1.9,0.2-2.9,0.6c-2.9,1.2-5.2,3.4-8.3,4.3
	c-0.5-0.2-1-0.1-1.5-0.1c-2.4-0.1-4.4-1.3-6.3-2.6c-2.4-1.5-4.8-2.5-7.7-2.3c-2.1,0.2-4.4,0.2-6.6-0.4
	C253.2,314.9,252.8,314.7,252.3,314.6z" />
  <path class="st26" d="M286.6,285.8c0.8,0,1.3-0.6,1-1.4c-1.4-4.9-2.8-9.8-4.2-14.6c-0.2-0.8-0.8-0.9-1.4-0.8
	c-0.6,0.2-0.7,0.7-0.8,1.1c-0.9,3.1-1.8,6.1-2.8,9.2c-0.5,1.6-1,3.3-1.4,5c-0.2,0.7-0.1,1.3,0.8,1.5c0.7,0.2,1.1-0.1,1.3-0.9
	c0.2-0.7,0.5-1.4,0.6-2.1c0.1-0.5,0.4-0.7,0.9-0.7c1.1,0.1,2.2,0.1,3.4,0c0.5,0,0.8,0.2,0.9,0.7c0.2,0.7,0.4,1.3,0.6,2
	C285.7,285.3,285.9,285.8,286.6,285.8z M261.4,277.4c-0.1,0.8,0.2,1.5,0.5,2.3c0.7,1.4,1.4,2.9,2.1,4.2c0.6,1.1,1.3,1.8,2.7,1.8
	c1.3,0.1,2.2-0.7,2.8-1.8c0.8-1.5,1.5-3.1,2.2-4.6c0.6-1.3,0.6-2.7-0.1-4c-0.8-1.6-1.6-3.3-2.4-4.9c-1-1.9-3.8-2.1-4.9-0.2
	c-1,1.7-1.8,3.7-2.8,5.5C261.4,276.2,261.3,276.8,261.4,277.4z M292.6,277.1c0,2.5,0,4.9,0,7.4c0,0.8,0.3,1.3,1.1,1.3
	c1,0,1.1-0.7,1.1-1.4c0.1-1.4,0.1-2.8,0-4.2c0-0.6,0.2-0.8,0.8-0.8c1.5,0.1,3.1,0.1,4.5,0c1.8-0.1,3.2-1.4,3.2-3.2
	c0.1-1.3,0.1-2.8,0-4.1c-0.1-1.8-1.4-3.2-3.3-3.2c-2.1,0-4.4,0.1-6.6,0c-0.7,0-1,0.2-0.9,0.9C292.6,272.2,292.6,274.6,292.6,277.1z
	 M245.8,277.1c0,2.4,0,4.8,0,7.2c0,0.3-0.1,0.6,0.1,0.8c0.2,0.6,0.6,0.8,1.2,0.8c0.8-0.1,1-0.6,1-1.2c0.1-1.4,0.1-2.9,0-4.3
	c0-0.7,0.2-1,0.9-1c1.4,0.1,3,0.1,4.4,0c1.7-0.1,3.2-1.3,3.2-3.1c0.1-1.3,0.1-2.8,0-4.2c-0.1-1.8-1.5-3.2-3.3-3.2
	c-2.1,0-4.4,0.1-6.6,0c-0.8,0-0.9,0.3-0.9,1C245.8,272.2,245.8,274.6,245.8,277.1z M259.9,239.5c3.1,0.6,6.2-0.6,9.1-2.8
	c3.6-2.7,7-2.6,10.6,0c1.6,1.2,3.5,2.3,5.6,2.6c1.7,0.3,3.5,0.1,5.2,0.1c0.8,0,1.6,0,2.4,0.1c2,0.2,3.6,1.3,4.6,3.1
	c0.7,1.1,1.3,2.3,1.9,3.5c1.2,2.4,3,4.2,5.3,5.4c1.3,0.7,2.7,1.4,3.9,2.3c1.8,1.2,2.6,3.1,2.6,5.2c0,1.4,0.1,2.9-0.1,4.3
	c-0.2,2.6,0.6,4.9,2,7.1c0.7,1,1.2,2,1.8,3.1c1.3,2.3,1.2,4.6-0.1,7c-0.8,1.2-1.4,2.5-2.2,3.7c-1,1.7-1.5,3.5-1.5,5.5
	s0.2,3.9-0.1,5.9c-0.2,2.1-1.3,3.6-3.2,4.6c-1,0.7-2.1,1.2-3.3,1.8c-2.5,1.2-4.3,3.1-5.5,5.6c-0.6,1.1-1.1,2.1-1.7,3.2
	c-1.2,2.2-3.2,3.3-5.7,3.2c-1.3,0-2.8,0.1-4.1-0.1c-2.5-0.2-4.8,0.6-6.9,1.9c-0.9,0.6-1.8,1.1-2.8,1.7c-2.5,1.5-4.9,1.5-7.3,0
	c-1.2-0.8-2.5-1.5-3.7-2.2c-1.5-0.9-3.2-1.4-5-1.4c-1.7,0-3.4,0-5.1,0c-2.5,0-4.4-1-5.6-3.2c-0.4-0.7-0.9-1.3-1.1-2.1
	c-1.5-3.6-4.2-6-7.7-7.6c-0.8-0.4-1.5-0.9-2.2-1.3c-1.9-1.2-2.7-3.1-2.7-5.2c0-1-0.1-2,0.1-3.1c0.3-3.3-0.6-6.3-2.5-9
	c-0.4-0.6-0.7-1.2-1.1-1.8c-1.6-2.6-1.5-5.1,0-7.7c0.8-1.2,1.5-2.5,2.2-3.7c0.9-1.5,1.3-3.2,1.3-5.1c-0.1-1.6,0-3.3-0.1-4.9
	c0-2.5,1-4.5,3.2-5.7c1.1-0.6,2.1-1.2,3.2-1.7c2.5-1.2,4.3-3.1,5.5-5.6c0.7-1.3,1.4-2.8,2.3-4c1.1-1.6,2.8-2.4,4.7-2.5
	C257.4,239.4,258.4,239.5,259.9,239.5z" />
  <path class="st28" d="M296.8,314.2c2.4,5.7,4.7,11.4,7.1,17.1c0.4,1,0.8,1.9,1.2,3c0.2,0.4,0.4,0.7,0.1,1.1c-0.4,0.4-0.7,0.2-1.1,0
	c-3.7-1.2-7.5-2.4-11.2-3.6c-0.8-0.3-1-0.1-1.3,0.6c-1.6,3.5-3.4,6.9-5.1,10.4c-0.2,0.4-0.3,0.8-0.9,0.8s-0.7-0.5-0.8-0.9
	c-3-7.2-5.9-14.3-8.9-21.5c-0.1-0.3-0.2-0.5-0.2-0.8c3.1-0.9,5.4-3.1,8.3-4.3c0.9-0.4,1.8-0.6,2.9-0.6c1.4,0,2.9-0.1,4.3,0
	C293.2,315.7,295,315.4,296.8,314.2z" />
  <path class="st29" d="M247.9,274.1c0,0.8,0,1.6,0,2.4c0,0.5,0.1,0.7,0.7,0.7c1.5-0.1,3.1,0,4.5,0c0.8,0,1.2-0.5,1.2-1.2
	c0.1-1.2,0.1-2.4,0-3.6c-0.1-0.8-0.5-1.3-1.3-1.3c-1.4,0-2.9,0-4.3,0c-0.6,0-0.8,0.3-0.8,0.8C247.9,272.6,247.9,273.3,247.9,274.1z
	 M245.8,277.1c0-2.4,0-4.8,0-7.3c0-0.7,0.2-1,0.9-1c2.1,0.1,4.3,0,6.6,0c1.8,0,3.3,1.3,3.3,3.2c0.1,1.3,0.1,2.8,0,4.2
	c-0.1,1.7-1.4,3.1-3.2,3.1c-1.4,0.1-3,0.1-4.4,0c-0.8-0.1-0.9,0.3-0.9,1c0.1,1.4,0.1,2.9,0,4.3c0,0.6-0.3,1.1-1,1.2
	c-0.6,0.1-1-0.2-1.2-0.8c-0.1-0.3-0.1-0.5-0.1-0.8C245.8,281.8,245.8,279.5,245.8,277.1z" />
  <path class="st29" d="M294.7,274.1c0,0.8,0,1.6,0,2.4c0,0.5,0.2,0.7,0.7,0.7c1.4,0,3,0,4.4,0c0.9,0,1.3-0.5,1.3-1.3
	c0.1-1.2,0.1-2.4,0-3.6c-0.1-0.8-0.5-1.2-1.3-1.2c-1.4,0-2.9,0.1-4.2,0c-0.6,0-0.9,0.2-0.8,0.9C294.7,272.6,294.7,273.4,294.7,274.1
	z M292.6,277.1c0-2.4,0.1-4.8,0-7.3c0-0.8,0.2-0.9,0.9-0.9c2.1,0.1,4.3,0,6.6,0c1.8,0,3.2,1.3,3.3,3.2c0.1,1.3,0.1,2.8,0,4.1
	c-0.1,1.8-1.4,3.2-3.2,3.2c-1.5,0.1-3.1,0.1-4.5,0c-0.6,0-0.8,0.2-0.8,0.8c0.1,1.4,0.1,2.8,0,4.2c0,0.8-0.2,1.4-1.1,1.4
	c-0.9,0-1.1-0.6-1.1-1.3C292.6,281.9,292.6,279.5,292.6,277.1z" />
  <path class="st29" d="M269.9,277.4c-0.1-0.3-0.1-0.7-0.2-1c-0.8-1.6-1.5-3.3-2.4-4.8c-0.4-0.7-0.9-0.7-1.3,0
	c-0.8,1.5-1.5,3.2-2.3,4.7c-0.4,0.8-0.3,1.6,0.1,2.4c0.7,1.4,1.4,2.9,2.1,4.2c0.2,0.3,0.3,0.7,0.8,0.7c0.4,0,0.5-0.3,0.7-0.6
	c0.8-1.4,1.4-3,2.2-4.4C269.8,278.2,269.9,277.7,269.9,277.4z M261.4,277.4c-0.1-0.6,0-1.1,0.2-1.6c0.9-1.8,1.7-3.8,2.8-5.5
	c1.1-1.9,3.9-1.7,4.9,0.2c0.9,1.6,1.6,3.3,2.4,4.9c0.7,1.3,0.7,2.7,0.1,4c-0.7,1.5-1.5,3.1-2.2,4.6c-0.6,1.1-1.4,1.9-2.8,1.8
	c-1.3-0.1-2.1-0.7-2.7-1.8c-0.7-1.4-1.4-2.9-2.1-4.2C261.5,278.9,261.3,278.2,261.4,277.4z" />
  <path class="st29" d="M282.5,274.4c-0.1,0-0.2,0-0.3,0c-0.3,1-0.6,2-0.9,3.1c-0.2,0.8-1,1.9-0.5,2.4c0.6,0.5,1.7,0.1,2.7,0.2
	c0.4,0,0.5-0.1,0.4-0.5C283.4,277.7,283,276.1,282.5,274.4z M286.6,285.8c-0.7,0-0.9-0.4-1-1c-0.2-0.7-0.5-1.3-0.6-2
	c-0.1-0.6-0.4-0.7-0.9-0.7c-1.1,0.1-2.2,0.1-3.4,0c-0.5,0-0.8,0.2-0.9,0.7c-0.2,0.7-0.5,1.4-0.6,2.1c-0.2,0.8-0.7,1-1.3,0.9
	c-0.8-0.2-1-0.9-0.8-1.5c0.5-1.6,1-3.3,1.4-5c0.9-3.1,1.8-6.1,2.8-9.2c0.2-0.5,0.3-1,0.8-1.1c0.7-0.2,1.2,0,1.4,0.8
	c1.4,4.9,2.9,9.8,4.2,14.6C287.9,285.1,287.4,285.8,286.6,285.8z" />
  <path class="st26"
    d="M247.9,274.1c0-0.8,0-1.4,0-2.2c0-0.6,0.2-0.8,0.8-0.8c1.4,0.1,2.9,0,4.3,0c0.9,0,1.3,0.5,1.3,1.3
	c0.1,1.2,0.1,2.4,0,3.6c-0.1,0.8-0.5,1.2-1.2,1.2c-1.5,0-3.1,0-4.5,0c-0.6,0-0.7-0.3-0.7-0.7C247.9,275.7,247.9,274.9,247.9,274.1z" />
  <path class="st26"
    d="M294.7,274.1c0-0.8,0.1-1.4,0-2.2c-0.1-0.6,0.2-0.9,0.8-0.9c1.4,0.1,2.9,0.1,4.2,0c0.9,0,1.3,0.5,1.3,1.2
	c0.1,1.2,0.1,2.4,0,3.6c-0.1,0.9-0.5,1.3-1.3,1.3c-1.4,0-3,0-4.4,0c-0.5,0-0.7-0.2-0.7-0.7C294.7,275.8,294.7,274.9,294.7,274.1z" />
  <path class="st26" d="M269.9,277.4c0,0.5-0.1,0.9-0.3,1.2c-0.8,1.4-1.4,3-2.2,4.4c-0.2,0.3-0.3,0.6-0.7,0.6c-0.4,0-0.6-0.3-0.8-0.7
	c-0.7-1.4-1.4-2.9-2.1-4.2c-0.4-0.8-0.5-1.6-0.1-2.4c0.8-1.5,1.4-3.1,2.3-4.7c0.4-0.7,1-0.7,1.3,0c0.8,1.6,1.6,3.2,2.4,4.8
	C269.8,276.7,269.8,277,269.9,277.4z" />
  <path class="st26" d="M282.5,274.4c0.5,1.6,1,3.4,1.4,5c0.1,0.4,0.1,0.5-0.4,0.5c-0.9,0-2.1,0.4-2.7-0.2c-0.6-0.5,0.3-1.5,0.5-2.4
	c0.3-1,0.6-2,0.9-3.1C282.3,274.4,282.4,274.4,282.5,274.4z" />
  <circle class="st24" cx="167.5" cy="283.5" r="46.5" />
  <path class="st30" d="M342.6,374.1l-3.9-7.2l-8.5,5.3c-0.3,0.1-0.6,0.3-1.1,0.5c1.5,2.9,3.9,7.4,3.9,7.4c0.3,0.6,1.1,0.6,1.4,0
	l1.8-3.4c0.3-0.6,1.2-1.3,2-1.3l3.5-0.1C342.6,375.3,343,374.8,342.6,374.1z" />
  <path class="st30" d="M315.1,366.9l-3.9,7.2c-0.3,0.6-0.1,1.2,0.9,1.2l3.5,0.1c0.7,0,1.7,0.6,2,1.3l1.8,3.4c0.3,0.6,1.1,0.6,1.4,0
	c0,0,2.4-4.5,3.9-7.4c-0.5-0.1-0.7-0.3-1.1-0.5L315.1,366.9z" />
  <path class="st30" d="M338.1,365.4c1.7-1,2.9-2.9,2.9-4.8v-9.4c0-2-1-3.9-2.9-4.8l-8.3-4.7c-1-0.5-1.9-0.7-2.9-0.7
	c-1,0-2,0.3-2.9,0.7l-8.3,4.7c-1.7,1-2.9,2.9-2.9,4.8v9.4c0,1.9,1.2,3.9,2.9,4.8l8.3,4.7c0.9,0.5,1.9,0.7,2.9,0.7c1,0,2-0.3,2.9-0.7
	L338.1,365.4z M326.9,366.7c-0.7,0-1.4-0.1-2.1-0.5l-6-3.4c-1.2-0.7-2.1-2.1-2.1-3.5v-6.8c0-1.4,0.8-2.8,2.1-3.5l6-3.4
	c0.6-0.3,1.4-0.5,2.1-0.5c0.7,0,1.4,0.1,2.1,0.5l6,3.4c1.4,0.7,2.1,2,2.1,3.5v6.8c0,1.4-0.8,2.8-2.1,3.5l-6,3.4
	C328.4,366.5,327.6,366.7,326.9,366.7z" />
  <path class="st31" d="M323.3,352.3c0.3,0.3,0.3,0.9,0,1.2l-1.9,1.9l1.9,2c0.3,0.3,0.3,0.9,0,1.2c-0.3,0.3-0.9,0.3-1.2,0l-2.4-2.6
	c-0.3-0.3-0.3-0.8,0-1.2l2.4-2.5C322.4,352,323,352,323.3,352.3z" />
  <path class="st31" d="M330.4,352.3c0.3-0.3,0.9-0.3,1.2,0l2.5,2.5c0.3,0.3,0.3,0.9,0,1.2l-2.5,2.6c-0.3,0.3-0.9,0.3-1.2,0
	c-0.3-0.3-0.3-0.9,0-1.2l1.9-2l-1.9-1.9C330.1,353.2,330.1,352.7,330.4,352.3z" />
  <path class="st31" d="M328.6,352.1c0.4,0.2,0.6,0.7,0.5,1.1l-2.2,5.4c-0.2,0.4-0.7,0.6-1.1,0.5c-0.4-0.2-0.6-0.7-0.5-1.1l2.2-5.4
	C327.7,352.1,328.2,351.9,328.6,352.1z" />
  <path class="st30" d="M181.7,68.7l-2.7-4.9l-5.8,3.6c-0.2,0.1-0.4,0.2-0.7,0.3c1,2,2.7,5.1,2.7,5.1c0.2,0.4,0.7,0.4,0.9,0l1.3-2.3
	c0.2-0.4,0.8-0.9,1.3-0.9l2.4-0.1C181.7,69.5,181.9,69.2,181.7,68.7z" />
  <path class="st30" d="M162.8,63.8l-2.7,4.9c-0.2,0.4-0.1,0.8,0.6,0.8l2.4,0.1c0.5,0,1.2,0.4,1.3,0.9l1.3,2.3c0.2,0.4,0.7,0.4,0.9,0
	c0,0,1.7-3.1,2.7-5.1c-0.3-0.1-0.5-0.2-0.7-0.3L162.8,63.8z" />
  <path class="st30"
    d="M178.5,62.7c1.2-0.7,2-2,2-3.3V53c0-1.4-0.7-2.7-2-3.3l-5.7-3.2c-0.7-0.4-1.3-0.5-2-0.5c-0.7,0-1.4,0.2-2,0.5
	l-5.7,3.2c-1.2,0.7-2,2-2,3.3v6.4c0,1.3,0.8,2.7,2,3.3l5.7,3.2c0.6,0.4,1.3,0.5,2,0.5c0.7,0,1.4-0.2,2-0.5L178.5,62.7z M170.9,63.6
	c-0.5,0-1,0-1.4-0.3l-4.1-2.3c-0.8-0.5-1.4-1.4-1.4-2.4v-4.7c0-1,0.6-1.9,1.4-2.4l4.1-2.3c0.4-0.2,0.9-0.3,1.4-0.3
	c0.5,0,0.9,0,1.4,0.3l4.1,2.3c0.9,0.5,1.4,1.3,1.4,2.4v4.7c0,1-0.6,1.9-1.4,2.4l-4.1,2.3C171.9,63.5,171.4,63.6,170.9,63.6z" />
  <path class="st31" d="M168.4,53.8c0.2,0.2,0.2,0.6,0,0.8l-1.3,1.3l1.3,1.4c0.2,0.2,0.2,0.6,0,0.8c-0.2,0.2-0.6,0.2-0.8,0l-1.7-1.8
	c-0.2-0.2-0.2-0.6,0-0.8l1.7-1.7C167.8,53.6,168.2,53.5,168.4,53.8z" />
  <path class="st31" d="M173.3,53.8c0.2-0.2,0.6-0.2,0.8,0l1.7,1.7c0.2,0.2,0.2,0.6,0,0.8l-1.7,1.8c-0.2,0.2-0.6,0.2-0.8,0
	c-0.2-0.2-0.2-0.6,0-0.8l1.3-1.4l-1.3-1.3C173.1,54.4,173.1,54,173.3,53.8z" />
  <path class="st31" d="M172.1,53.6c0.3,0.1,0.4,0.5,0.3,0.8l-1.5,3.7c-0.1,0.3-0.5,0.4-0.8,0.3c-0.3-0.1-0.4-0.5-0.3-0.8l1.5-3.7
	C171.4,53.6,171.8,53.5,172.1,53.6z" />
</svg>